<?xml version="1.0" encoding="utf-8" standalone="no"?>
<!DOCTYPE svg PUBLIC "-//W3C//DTD SVG 1.1//EN"
  "http://www.w3.org/Graphics/SVG/1.1/DTD/svg11.dtd">
<svg xmlns:xlink="http://www.w3.org/1999/xlink" width="493.38pt" height="360pt" viewBox="0 0 493.38 360" xmlns="http://www.w3.org/2000/svg" version="1.1">
 <metadata>
  <rdf:RDF xmlns:dc="http://purl.org/dc/elements/1.1/" xmlns:cc="http://creativecommons.org/ns#" xmlns:rdf="http://www.w3.org/1999/02/22-rdf-syntax-ns#">
   <cc:Work>
    <dc:type rdf:resource="http://purl.org/dc/dcmitype/StillImage"/>
    <dc:date>2025-10-02T15:29:55.712594</dc:date>
    <dc:format>image/svg+xml</dc:format>
    <dc:creator>
     <cc:Agent>
      <dc:title>Matplotlib v3.10.0, https://matplotlib.org/</dc:title>
     </cc:Agent>
    </dc:creator>
   </cc:Work>
  </rdf:RDF>
 </metadata>
 <defs>
  <style type="text/css">*{stroke-linejoin: round; stroke-linecap: butt}</style>
 </defs>
 <g id="figure_1">
  <g id="patch_1">
   <path d="M 0 360 
L 493.38 360 
L 493.38 0 
L 0 0 
z
" style="fill: #ffffff"/>
  </g>
  <g id="axes_1">
   <g id="patch_2">
    <path d="M 270.64634 318.04 
L 355.0662 318.04 
L 355.0662 10.8 
L 270.64634 10.8 
z
" style="fill: #ffffff"/>
   </g>
   <g id="patch_3">
    <path d="M 270.64634 12.72025 
L 344.158102 12.72025 
L 344.158102 28.08225 
L 270.64634 28.08225 
z
" clip-path="url(#pf890ca05fb)" style="fill: #3274a1"/>
   </g>
   <g id="patch_4">
    <path d="M 270.64634 31.92275 
L 349.867249 31.92275 
L 349.867249 47.28475 
L 270.64634 47.28475 
z
" clip-path="url(#pf890ca05fb)" style="fill: #3274a1"/>
   </g>
   <g id="patch_5">
    <path d="M 270.64634 51.12525 
L 349.012432 51.12525 
L 349.012432 66.48725 
L 270.64634 66.48725 
z
" clip-path="url(#pf890ca05fb)" style="fill: #3274a1"/>
   </g>
   <g id="patch_6">
    <path d="M 270.64634 70.32775 
L 349.07766 70.32775 
L 349.07766 85.68975 
L 270.64634 85.68975 
z
" clip-path="url(#pf890ca05fb)" style="fill: #3274a1"/>
   </g>
   <g id="patch_7">
    <path d="M 270.64634 89.53025 
L 336.905909 89.53025 
L 336.905909 104.89225 
L 270.64634 104.89225 
z
" clip-path="url(#pf890ca05fb)" style="fill: #e1812c"/>
   </g>
   <g id="patch_8">
    <path d="M 270.64634 204.74525 
L 332.388965 204.74525 
L 332.388965 220.10725 
L 270.64634 220.10725 
z
" clip-path="url(#pf890ca05fb)" style="fill: #e1812c"/>
   </g>
   <g id="patch_9">
    <path d="M 270.64634 108.73275 
L 336.921957 108.73275 
L 336.921957 124.09475 
L 270.64634 124.09475 
z
" clip-path="url(#pf890ca05fb)" style="fill: #3a923a"/>
   </g>
   <g id="patch_10">
    <path d="M 270.64634 223.94775 
L 333.363606 223.94775 
L 333.363606 239.30975 
L 270.64634 239.30975 
z
" clip-path="url(#pf890ca05fb)" style="fill: #3a923a"/>
   </g>
   <g id="patch_11">
    <path d="M 270.64634 127.93525 
L 335.220881 127.93525 
L 335.220881 143.29725 
L 270.64634 143.29725 
z
" clip-path="url(#pf890ca05fb)" style="fill: #c03d3e"/>
   </g>
   <g id="patch_12">
    <path d="M 270.64634 243.15025 
L 343.424559 243.15025 
L 343.424559 258.51225 
L 270.64634 258.51225 
z
" clip-path="url(#pf890ca05fb)" style="fill: #c03d3e"/>
   </g>
   <g id="patch_13">
    <path d="M 270.64634 147.13775 
L 339.688612 147.13775 
L 339.688612 162.49975 
L 270.64634 162.49975 
z
" clip-path="url(#pf890ca05fb)" style="fill: #9372b2"/>
   </g>
   <g id="patch_14">
    <path d="M 270.64634 262.35275 
L 341.495603 262.35275 
L 341.495603 277.71475 
L 270.64634 277.71475 
z
" clip-path="url(#pf890ca05fb)" style="fill: #9372b2"/>
   </g>
   <g id="patch_15">
    <path d="M 270.64634 166.34025 
L 341.842238 166.34025 
L 341.842238 181.70225 
L 270.64634 181.70225 
z
" clip-path="url(#pf890ca05fb)" style="fill: #845b53"/>
   </g>
   <g id="patch_16">
    <path d="M 270.64634 281.55525 
L 341.492394 281.55525 
L 341.492394 296.91725 
L 270.64634 296.91725 
z
" clip-path="url(#pf890ca05fb)" style="fill: #845b53"/>
   </g>
   <g id="patch_17">
    <path d="M 270.64634 185.54275 
L 340.803405 185.54275 
L 340.803405 200.90475 
L 270.64634 200.90475 
z
" clip-path="url(#pf890ca05fb)" style="fill: #d684bd"/>
   </g>
   <g id="patch_18">
    <path d="M 270.64634 300.75775 
L 342.670308 300.75775 
L 342.670308 316.11975 
L 270.64634 316.11975 
z
" clip-path="url(#pf890ca05fb)" style="fill: #d684bd"/>
   </g>
   <g id="patch_19">
    <path d="M 270.64634 20.40125 
L 270.64634 20.40125 
L 270.64634 20.40125 
L 270.64634 20.40125 
z
" clip-path="url(#pf890ca05fb)" style="fill: #3274a1"/>
   </g>
   <g id="patch_20">
    <path d="M 270.64634 20.40125 
L 270.64634 20.40125 
L 270.64634 20.40125 
L 270.64634 20.40125 
z
" clip-path="url(#pf890ca05fb)" style="fill: #e1812c"/>
   </g>
   <g id="patch_21">
    <path d="M 270.64634 20.40125 
L 270.64634 20.40125 
L 270.64634 20.40125 
L 270.64634 20.40125 
z
" clip-path="url(#pf890ca05fb)" style="fill: #3a923a"/>
   </g>
   <g id="patch_22">
    <path d="M 270.64634 20.40125 
L 270.64634 20.40125 
L 270.64634 20.40125 
L 270.64634 20.40125 
z
" clip-path="url(#pf890ca05fb)" style="fill: #c03d3e"/>
   </g>
   <g id="patch_23">
    <path d="M 270.64634 20.40125 
L 270.64634 20.40125 
L 270.64634 20.40125 
L 270.64634 20.40125 
z
" clip-path="url(#pf890ca05fb)" style="fill: #9372b2"/>
   </g>
   <g id="patch_24">
    <path d="M 270.64634 20.40125 
L 270.64634 20.40125 
L 270.64634 20.40125 
L 270.64634 20.40125 
z
" clip-path="url(#pf890ca05fb)" style="fill: #845b53"/>
   </g>
   <g id="patch_25">
    <path d="M 270.64634 20.40125 
L 270.64634 20.40125 
L 270.64634 20.40125 
L 270.64634 20.40125 
z
" clip-path="url(#pf890ca05fb)" style="fill: #d684bd"/>
   </g>
   <g id="matplotlib.axis_1">
    <g id="xtick_1">
     <g id="line2d_1">
      <defs>
       <path id="m9377bec85f" d="M 0 0 
L 0 3.5 
" style="stroke: #000000; stroke-width: 0.8"/>
      </defs>
      <g>
       <use xlink:href="#m9377bec85f" x="270.64634" y="318.04" style="stroke: #000000; stroke-width: 0.8"/>
      </g>
     </g>
     <g id="text_1">
      <!-- 0 -->
      <g transform="translate(267.46509 332.638438) scale(0.1 -0.1)">
       <defs>
        <path id="DejaVuSans-30" d="M 2034 4250 
Q 1547 4250 1301 3770 
Q 1056 3291 1056 2328 
Q 1056 1369 1301 889 
Q 1547 409 2034 409 
Q 2525 409 2770 889 
Q 3016 1369 3016 2328 
Q 3016 3291 2770 3770 
Q 2525 4250 2034 4250 
z
M 2034 4750 
Q 2819 4750 3233 4129 
Q 3647 3509 3647 2328 
Q 3647 1150 3233 529 
Q 2819 -91 2034 -91 
Q 1250 -91 836 529 
Q 422 1150 422 2328 
Q 422 3509 836 4129 
Q 1250 4750 2034 4750 
z
" transform="scale(0.015625)"/>
       </defs>
       <use xlink:href="#DejaVuSans-30"/>
      </g>
     </g>
    </g>
    <g id="xtick_2">
     <g id="line2d_2">
      <g>
       <use xlink:href="#m9377bec85f" x="334.837872" y="318.04" style="stroke: #000000; stroke-width: 0.8"/>
      </g>
     </g>
     <g id="text_2">
      <!-- 100 -->
      <g transform="translate(325.294122 332.638438) scale(0.1 -0.1)">
       <defs>
        <path id="DejaVuSans-31" d="M 794 531 
L 1825 531 
L 1825 4091 
L 703 3866 
L 703 4441 
L 1819 4666 
L 2450 4666 
L 2450 531 
L 3481 531 
L 3481 0 
L 794 0 
L 794 531 
z
" transform="scale(0.015625)"/>
       </defs>
       <use xlink:href="#DejaVuSans-31"/>
       <use xlink:href="#DejaVuSans-30" transform="translate(63.623047 0)"/>
       <use xlink:href="#DejaVuSans-30" transform="translate(127.246094 0)"/>
      </g>
     </g>
    </g>
    <g id="text_3">
     <!-- score -->
     <g transform="translate(299.423457 346.316563) scale(0.1 -0.1)">
      <defs>
       <path id="DejaVuSans-73" d="M 2834 3397 
L 2834 2853 
Q 2591 2978 2328 3040 
Q 2066 3103 1784 3103 
Q 1356 3103 1142 2972 
Q 928 2841 928 2578 
Q 928 2378 1081 2264 
Q 1234 2150 1697 2047 
L 1894 2003 
Q 2506 1872 2764 1633 
Q 3022 1394 3022 966 
Q 3022 478 2636 193 
Q 2250 -91 1575 -91 
Q 1294 -91 989 -36 
Q 684 19 347 128 
L 347 722 
Q 666 556 975 473 
Q 1284 391 1588 391 
Q 1994 391 2212 530 
Q 2431 669 2431 922 
Q 2431 1156 2273 1281 
Q 2116 1406 1581 1522 
L 1381 1569 
Q 847 1681 609 1914 
Q 372 2147 372 2553 
Q 372 3047 722 3315 
Q 1072 3584 1716 3584 
Q 2034 3584 2315 3537 
Q 2597 3491 2834 3397 
z
" transform="scale(0.015625)"/>
       <path id="DejaVuSans-63" d="M 3122 3366 
L 3122 2828 
Q 2878 2963 2633 3030 
Q 2388 3097 2138 3097 
Q 1578 3097 1268 2742 
Q 959 2388 959 1747 
Q 959 1106 1268 751 
Q 1578 397 2138 397 
Q 2388 397 2633 464 
Q 2878 531 3122 666 
L 3122 134 
Q 2881 22 2623 -34 
Q 2366 -91 2075 -91 
Q 1284 -91 818 406 
Q 353 903 353 1747 
Q 353 2603 823 3093 
Q 1294 3584 2113 3584 
Q 2378 3584 2631 3529 
Q 2884 3475 3122 3366 
z
" transform="scale(0.015625)"/>
       <path id="DejaVuSans-6f" d="M 1959 3097 
Q 1497 3097 1228 2736 
Q 959 2375 959 1747 
Q 959 1119 1226 758 
Q 1494 397 1959 397 
Q 2419 397 2687 759 
Q 2956 1122 2956 1747 
Q 2956 2369 2687 2733 
Q 2419 3097 1959 3097 
z
M 1959 3584 
Q 2709 3584 3137 3096 
Q 3566 2609 3566 1747 
Q 3566 888 3137 398 
Q 2709 -91 1959 -91 
Q 1206 -91 779 398 
Q 353 888 353 1747 
Q 353 2609 779 3096 
Q 1206 3584 1959 3584 
z
" transform="scale(0.015625)"/>
       <path id="DejaVuSans-72" d="M 2631 2963 
Q 2534 3019 2420 3045 
Q 2306 3072 2169 3072 
Q 1681 3072 1420 2755 
Q 1159 2438 1159 1844 
L 1159 0 
L 581 0 
L 581 3500 
L 1159 3500 
L 1159 2956 
Q 1341 3275 1631 3429 
Q 1922 3584 2338 3584 
Q 2397 3584 2469 3576 
Q 2541 3569 2628 3553 
L 2631 2963 
z
" transform="scale(0.015625)"/>
       <path id="DejaVuSans-65" d="M 3597 1894 
L 3597 1613 
L 953 1613 
Q 991 1019 1311 708 
Q 1631 397 2203 397 
Q 2534 397 2845 478 
Q 3156 559 3463 722 
L 3463 178 
Q 3153 47 2828 -22 
Q 2503 -91 2169 -91 
Q 1331 -91 842 396 
Q 353 884 353 1716 
Q 353 2575 817 3079 
Q 1281 3584 2069 3584 
Q 2775 3584 3186 3129 
Q 3597 2675 3597 1894 
z
M 3022 2063 
Q 3016 2534 2758 2815 
Q 2500 3097 2075 3097 
Q 1594 3097 1305 2825 
Q 1016 2553 972 2059 
L 3022 2063 
z
" transform="scale(0.015625)"/>
      </defs>
      <use xlink:href="#DejaVuSans-73"/>
      <use xlink:href="#DejaVuSans-63" transform="translate(52.099609 0)"/>
      <use xlink:href="#DejaVuSans-6f" transform="translate(107.080078 0)"/>
      <use xlink:href="#DejaVuSans-72" transform="translate(168.261719 0)"/>
      <use xlink:href="#DejaVuSans-65" transform="translate(207.125 0)"/>
     </g>
    </g>
   </g>
   <g id="matplotlib.axis_2">
    <g id="ytick_1">
     <g id="line2d_3">
      <defs>
       <path id="m2715141634" d="M 0 0 
L -3.5 0 
" style="stroke: #000000; stroke-width: 0.8"/>
      </defs>
      <g>
       <use xlink:href="#m2715141634" x="270.64634" y="20.40125" style="stroke: #000000; stroke-width: 0.8"/>
      </g>
     </g>
     <g id="text_4">
      <!-- FL -->
      <g transform="translate(252.322902 24.200469) scale(0.1 -0.1)">
       <defs>
        <path id="DejaVuSans-46" d="M 628 4666 
L 3309 4666 
L 3309 4134 
L 1259 4134 
L 1259 2759 
L 3109 2759 
L 3109 2228 
L 1259 2228 
L 1259 0 
L 628 0 
L 628 4666 
z
" transform="scale(0.015625)"/>
        <path id="DejaVuSans-4c" d="M 628 4666 
L 1259 4666 
L 1259 531 
L 3531 531 
L 3531 0 
L 628 0 
L 628 4666 
z
" transform="scale(0.015625)"/>
       </defs>
       <use xlink:href="#DejaVuSans-46"/>
       <use xlink:href="#DejaVuSans-4c" transform="translate(57.519531 0)"/>
      </g>
     </g>
    </g>
    <g id="ytick_2">
     <g id="line2d_4">
      <g>
       <use xlink:href="#m2715141634" x="270.64634" y="39.60375" style="stroke: #000000; stroke-width: 0.8"/>
      </g>
     </g>
     <g id="text_5">
      <!-- PL-1 -->
      <g transform="translate(242.249465 43.402969) scale(0.1 -0.1)">
       <defs>
        <path id="DejaVuSans-50" d="M 1259 4147 
L 1259 2394 
L 2053 2394 
Q 2494 2394 2734 2622 
Q 2975 2850 2975 3272 
Q 2975 3691 2734 3919 
Q 2494 4147 2053 4147 
L 1259 4147 
z
M 628 4666 
L 2053 4666 
Q 2838 4666 3239 4311 
Q 3641 3956 3641 3272 
Q 3641 2581 3239 2228 
Q 2838 1875 2053 1875 
L 1259 1875 
L 1259 0 
L 628 0 
L 628 4666 
z
" transform="scale(0.015625)"/>
        <path id="DejaVuSans-2d" d="M 313 2009 
L 1997 2009 
L 1997 1497 
L 313 1497 
L 313 2009 
z
" transform="scale(0.015625)"/>
       </defs>
       <use xlink:href="#DejaVuSans-50"/>
       <use xlink:href="#DejaVuSans-4c" transform="translate(60.302734 0)"/>
       <use xlink:href="#DejaVuSans-2d" transform="translate(114.265625 0)"/>
       <use xlink:href="#DejaVuSans-31" transform="translate(150.349609 0)"/>
      </g>
     </g>
    </g>
    <g id="ytick_3">
     <g id="line2d_5">
      <g>
       <use xlink:href="#m2715141634" x="270.64634" y="58.80625" style="stroke: #000000; stroke-width: 0.8"/>
      </g>
     </g>
     <g id="text_6">
      <!-- PL-2 -->
      <g transform="translate(242.249465 62.605469) scale(0.1 -0.1)">
       <defs>
        <path id="DejaVuSans-32" d="M 1228 531 
L 3431 531 
L 3431 0 
L 469 0 
L 469 531 
Q 828 903 1448 1529 
Q 2069 2156 2228 2338 
Q 2531 2678 2651 2914 
Q 2772 3150 2772 3378 
Q 2772 3750 2511 3984 
Q 2250 4219 1831 4219 
Q 1534 4219 1204 4116 
Q 875 4013 500 3803 
L 500 4441 
Q 881 4594 1212 4672 
Q 1544 4750 1819 4750 
Q 2544 4750 2975 4387 
Q 3406 4025 3406 3419 
Q 3406 3131 3298 2873 
Q 3191 2616 2906 2266 
Q 2828 2175 2409 1742 
Q 1991 1309 1228 531 
z
" transform="scale(0.015625)"/>
       </defs>
       <use xlink:href="#DejaVuSans-50"/>
       <use xlink:href="#DejaVuSans-4c" transform="translate(60.302734 0)"/>
       <use xlink:href="#DejaVuSans-2d" transform="translate(114.265625 0)"/>
       <use xlink:href="#DejaVuSans-32" transform="translate(150.349609 0)"/>
      </g>
     </g>
    </g>
    <g id="ytick_4">
     <g id="line2d_6">
      <g>
       <use xlink:href="#m2715141634" x="270.64634" y="78.00875" style="stroke: #000000; stroke-width: 0.8"/>
      </g>
     </g>
     <g id="text_7">
      <!-- PL -->
      <g transform="translate(252.044778 81.807969) scale(0.1 -0.1)">
       <use xlink:href="#DejaVuSans-50"/>
       <use xlink:href="#DejaVuSans-4c" transform="translate(60.302734 0)"/>
      </g>
     </g>
    </g>
    <g id="ytick_5">
     <g id="line2d_7">
      <g>
       <use xlink:href="#m2715141634" x="270.64634" y="97.21125" style="stroke: #000000; stroke-width: 0.8"/>
      </g>
     </g>
     <g id="text_8">
      <!-- gemma3:12b_independent -->
      <g transform="translate(128.51509 101.010469) scale(0.1 -0.1)">
       <defs>
        <path id="DejaVuSans-67" d="M 2906 1791 
Q 2906 2416 2648 2759 
Q 2391 3103 1925 3103 
Q 1463 3103 1205 2759 
Q 947 2416 947 1791 
Q 947 1169 1205 825 
Q 1463 481 1925 481 
Q 2391 481 2648 825 
Q 2906 1169 2906 1791 
z
M 3481 434 
Q 3481 -459 3084 -895 
Q 2688 -1331 1869 -1331 
Q 1566 -1331 1297 -1286 
Q 1028 -1241 775 -1147 
L 775 -588 
Q 1028 -725 1275 -790 
Q 1522 -856 1778 -856 
Q 2344 -856 2625 -561 
Q 2906 -266 2906 331 
L 2906 616 
Q 2728 306 2450 153 
Q 2172 0 1784 0 
Q 1141 0 747 490 
Q 353 981 353 1791 
Q 353 2603 747 3093 
Q 1141 3584 1784 3584 
Q 2172 3584 2450 3431 
Q 2728 3278 2906 2969 
L 2906 3500 
L 3481 3500 
L 3481 434 
z
" transform="scale(0.015625)"/>
        <path id="DejaVuSans-6d" d="M 3328 2828 
Q 3544 3216 3844 3400 
Q 4144 3584 4550 3584 
Q 5097 3584 5394 3201 
Q 5691 2819 5691 2113 
L 5691 0 
L 5113 0 
L 5113 2094 
Q 5113 2597 4934 2840 
Q 4756 3084 4391 3084 
Q 3944 3084 3684 2787 
Q 3425 2491 3425 1978 
L 3425 0 
L 2847 0 
L 2847 2094 
Q 2847 2600 2669 2842 
Q 2491 3084 2119 3084 
Q 1678 3084 1418 2786 
Q 1159 2488 1159 1978 
L 1159 0 
L 581 0 
L 581 3500 
L 1159 3500 
L 1159 2956 
Q 1356 3278 1631 3431 
Q 1906 3584 2284 3584 
Q 2666 3584 2933 3390 
Q 3200 3197 3328 2828 
z
" transform="scale(0.015625)"/>
        <path id="DejaVuSans-61" d="M 2194 1759 
Q 1497 1759 1228 1600 
Q 959 1441 959 1056 
Q 959 750 1161 570 
Q 1363 391 1709 391 
Q 2188 391 2477 730 
Q 2766 1069 2766 1631 
L 2766 1759 
L 2194 1759 
z
M 3341 1997 
L 3341 0 
L 2766 0 
L 2766 531 
Q 2569 213 2275 61 
Q 1981 -91 1556 -91 
Q 1019 -91 701 211 
Q 384 513 384 1019 
Q 384 1609 779 1909 
Q 1175 2209 1959 2209 
L 2766 2209 
L 2766 2266 
Q 2766 2663 2505 2880 
Q 2244 3097 1772 3097 
Q 1472 3097 1187 3025 
Q 903 2953 641 2809 
L 641 3341 
Q 956 3463 1253 3523 
Q 1550 3584 1831 3584 
Q 2591 3584 2966 3190 
Q 3341 2797 3341 1997 
z
" transform="scale(0.015625)"/>
        <path id="DejaVuSans-33" d="M 2597 2516 
Q 3050 2419 3304 2112 
Q 3559 1806 3559 1356 
Q 3559 666 3084 287 
Q 2609 -91 1734 -91 
Q 1441 -91 1130 -33 
Q 819 25 488 141 
L 488 750 
Q 750 597 1062 519 
Q 1375 441 1716 441 
Q 2309 441 2620 675 
Q 2931 909 2931 1356 
Q 2931 1769 2642 2001 
Q 2353 2234 1838 2234 
L 1294 2234 
L 1294 2753 
L 1863 2753 
Q 2328 2753 2575 2939 
Q 2822 3125 2822 3475 
Q 2822 3834 2567 4026 
Q 2313 4219 1838 4219 
Q 1578 4219 1281 4162 
Q 984 4106 628 3988 
L 628 4550 
Q 988 4650 1302 4700 
Q 1616 4750 1894 4750 
Q 2613 4750 3031 4423 
Q 3450 4097 3450 3541 
Q 3450 3153 3228 2886 
Q 3006 2619 2597 2516 
z
" transform="scale(0.015625)"/>
        <path id="DejaVuSans-3a" d="M 750 794 
L 1409 794 
L 1409 0 
L 750 0 
L 750 794 
z
M 750 3309 
L 1409 3309 
L 1409 2516 
L 750 2516 
L 750 3309 
z
" transform="scale(0.015625)"/>
        <path id="DejaVuSans-62" d="M 3116 1747 
Q 3116 2381 2855 2742 
Q 2594 3103 2138 3103 
Q 1681 3103 1420 2742 
Q 1159 2381 1159 1747 
Q 1159 1113 1420 752 
Q 1681 391 2138 391 
Q 2594 391 2855 752 
Q 3116 1113 3116 1747 
z
M 1159 2969 
Q 1341 3281 1617 3432 
Q 1894 3584 2278 3584 
Q 2916 3584 3314 3078 
Q 3713 2572 3713 1747 
Q 3713 922 3314 415 
Q 2916 -91 2278 -91 
Q 1894 -91 1617 61 
Q 1341 213 1159 525 
L 1159 0 
L 581 0 
L 581 4863 
L 1159 4863 
L 1159 2969 
z
" transform="scale(0.015625)"/>
        <path id="DejaVuSans-5f" d="M 3263 -1063 
L 3263 -1509 
L -63 -1509 
L -63 -1063 
L 3263 -1063 
z
" transform="scale(0.015625)"/>
        <path id="DejaVuSans-69" d="M 603 3500 
L 1178 3500 
L 1178 0 
L 603 0 
L 603 3500 
z
M 603 4863 
L 1178 4863 
L 1178 4134 
L 603 4134 
L 603 4863 
z
" transform="scale(0.015625)"/>
        <path id="DejaVuSans-6e" d="M 3513 2113 
L 3513 0 
L 2938 0 
L 2938 2094 
Q 2938 2591 2744 2837 
Q 2550 3084 2163 3084 
Q 1697 3084 1428 2787 
Q 1159 2491 1159 1978 
L 1159 0 
L 581 0 
L 581 3500 
L 1159 3500 
L 1159 2956 
Q 1366 3272 1645 3428 
Q 1925 3584 2291 3584 
Q 2894 3584 3203 3211 
Q 3513 2838 3513 2113 
z
" transform="scale(0.015625)"/>
        <path id="DejaVuSans-64" d="M 2906 2969 
L 2906 4863 
L 3481 4863 
L 3481 0 
L 2906 0 
L 2906 525 
Q 2725 213 2448 61 
Q 2172 -91 1784 -91 
Q 1150 -91 751 415 
Q 353 922 353 1747 
Q 353 2572 751 3078 
Q 1150 3584 1784 3584 
Q 2172 3584 2448 3432 
Q 2725 3281 2906 2969 
z
M 947 1747 
Q 947 1113 1208 752 
Q 1469 391 1925 391 
Q 2381 391 2643 752 
Q 2906 1113 2906 1747 
Q 2906 2381 2643 2742 
Q 2381 3103 1925 3103 
Q 1469 3103 1208 2742 
Q 947 2381 947 1747 
z
" transform="scale(0.015625)"/>
        <path id="DejaVuSans-70" d="M 1159 525 
L 1159 -1331 
L 581 -1331 
L 581 3500 
L 1159 3500 
L 1159 2969 
Q 1341 3281 1617 3432 
Q 1894 3584 2278 3584 
Q 2916 3584 3314 3078 
Q 3713 2572 3713 1747 
Q 3713 922 3314 415 
Q 2916 -91 2278 -91 
Q 1894 -91 1617 61 
Q 1341 213 1159 525 
z
M 3116 1747 
Q 3116 2381 2855 2742 
Q 2594 3103 2138 3103 
Q 1681 3103 1420 2742 
Q 1159 2381 1159 1747 
Q 1159 1113 1420 752 
Q 1681 391 2138 391 
Q 2594 391 2855 752 
Q 3116 1113 3116 1747 
z
" transform="scale(0.015625)"/>
        <path id="DejaVuSans-74" d="M 1172 4494 
L 1172 3500 
L 2356 3500 
L 2356 3053 
L 1172 3053 
L 1172 1153 
Q 1172 725 1289 603 
Q 1406 481 1766 481 
L 2356 481 
L 2356 0 
L 1766 0 
Q 1100 0 847 248 
Q 594 497 594 1153 
L 594 3053 
L 172 3053 
L 172 3500 
L 594 3500 
L 594 4494 
L 1172 4494 
z
" transform="scale(0.015625)"/>
       </defs>
       <use xlink:href="#DejaVuSans-67"/>
       <use xlink:href="#DejaVuSans-65" transform="translate(63.476562 0)"/>
       <use xlink:href="#DejaVuSans-6d" transform="translate(125 0)"/>
       <use xlink:href="#DejaVuSans-6d" transform="translate(222.412109 0)"/>
       <use xlink:href="#DejaVuSans-61" transform="translate(319.824219 0)"/>
       <use xlink:href="#DejaVuSans-33" transform="translate(381.103516 0)"/>
       <use xlink:href="#DejaVuSans-3a" transform="translate(444.726562 0)"/>
       <use xlink:href="#DejaVuSans-31" transform="translate(478.417969 0)"/>
       <use xlink:href="#DejaVuSans-32" transform="translate(542.041016 0)"/>
       <use xlink:href="#DejaVuSans-62" transform="translate(605.664062 0)"/>
       <use xlink:href="#DejaVuSans-5f" transform="translate(669.140625 0)"/>
       <use xlink:href="#DejaVuSans-69" transform="translate(719.140625 0)"/>
       <use xlink:href="#DejaVuSans-6e" transform="translate(746.923828 0)"/>
       <use xlink:href="#DejaVuSans-64" transform="translate(810.302734 0)"/>
       <use xlink:href="#DejaVuSans-65" transform="translate(873.779297 0)"/>
       <use xlink:href="#DejaVuSans-70" transform="translate(935.302734 0)"/>
       <use xlink:href="#DejaVuSans-65" transform="translate(998.779297 0)"/>
       <use xlink:href="#DejaVuSans-6e" transform="translate(1060.302734 0)"/>
       <use xlink:href="#DejaVuSans-64" transform="translate(1123.681641 0)"/>
       <use xlink:href="#DejaVuSans-65" transform="translate(1187.158203 0)"/>
       <use xlink:href="#DejaVuSans-6e" transform="translate(1248.681641 0)"/>
       <use xlink:href="#DejaVuSans-74" transform="translate(1312.060547 0)"/>
      </g>
     </g>
    </g>
    <g id="ytick_6">
     <g id="line2d_8">
      <g>
       <use xlink:href="#m2715141634" x="270.64634" y="116.41375" style="stroke: #000000; stroke-width: 0.8"/>
      </g>
     </g>
     <g id="text_9">
      <!-- gemma3:12b-it-qat_independent -->
      <g transform="translate(98.204152 120.212969) scale(0.1 -0.1)">
       <defs>
        <path id="DejaVuSans-71" d="M 947 1747 
Q 947 1113 1208 752 
Q 1469 391 1925 391 
Q 2381 391 2643 752 
Q 2906 1113 2906 1747 
Q 2906 2381 2643 2742 
Q 2381 3103 1925 3103 
Q 1469 3103 1208 2742 
Q 947 2381 947 1747 
z
M 2906 525 
Q 2725 213 2448 61 
Q 2172 -91 1784 -91 
Q 1150 -91 751 415 
Q 353 922 353 1747 
Q 353 2572 751 3078 
Q 1150 3584 1784 3584 
Q 2172 3584 2448 3432 
Q 2725 3281 2906 2969 
L 2906 3500 
L 3481 3500 
L 3481 -1331 
L 2906 -1331 
L 2906 525 
z
" transform="scale(0.015625)"/>
       </defs>
       <use xlink:href="#DejaVuSans-67"/>
       <use xlink:href="#DejaVuSans-65" transform="translate(63.476562 0)"/>
       <use xlink:href="#DejaVuSans-6d" transform="translate(125 0)"/>
       <use xlink:href="#DejaVuSans-6d" transform="translate(222.412109 0)"/>
       <use xlink:href="#DejaVuSans-61" transform="translate(319.824219 0)"/>
       <use xlink:href="#DejaVuSans-33" transform="translate(381.103516 0)"/>
       <use xlink:href="#DejaVuSans-3a" transform="translate(444.726562 0)"/>
       <use xlink:href="#DejaVuSans-31" transform="translate(478.417969 0)"/>
       <use xlink:href="#DejaVuSans-32" transform="translate(542.041016 0)"/>
       <use xlink:href="#DejaVuSans-62" transform="translate(605.664062 0)"/>
       <use xlink:href="#DejaVuSans-2d" transform="translate(669.140625 0)"/>
       <use xlink:href="#DejaVuSans-69" transform="translate(705.224609 0)"/>
       <use xlink:href="#DejaVuSans-74" transform="translate(733.007812 0)"/>
       <use xlink:href="#DejaVuSans-2d" transform="translate(772.216797 0)"/>
       <use xlink:href="#DejaVuSans-71" transform="translate(808.300781 0)"/>
       <use xlink:href="#DejaVuSans-61" transform="translate(871.777344 0)"/>
       <use xlink:href="#DejaVuSans-74" transform="translate(933.056641 0)"/>
       <use xlink:href="#DejaVuSans-5f" transform="translate(972.265625 0)"/>
       <use xlink:href="#DejaVuSans-69" transform="translate(1022.265625 0)"/>
       <use xlink:href="#DejaVuSans-6e" transform="translate(1050.048828 0)"/>
       <use xlink:href="#DejaVuSans-64" transform="translate(1113.427734 0)"/>
       <use xlink:href="#DejaVuSans-65" transform="translate(1176.904297 0)"/>
       <use xlink:href="#DejaVuSans-70" transform="translate(1238.427734 0)"/>
       <use xlink:href="#DejaVuSans-65" transform="translate(1301.904297 0)"/>
       <use xlink:href="#DejaVuSans-6e" transform="translate(1363.427734 0)"/>
       <use xlink:href="#DejaVuSans-64" transform="translate(1426.806641 0)"/>
       <use xlink:href="#DejaVuSans-65" transform="translate(1490.283203 0)"/>
       <use xlink:href="#DejaVuSans-6e" transform="translate(1551.806641 0)"/>
       <use xlink:href="#DejaVuSans-74" transform="translate(1615.185547 0)"/>
      </g>
     </g>
    </g>
    <g id="ytick_7">
     <g id="line2d_9">
      <g>
       <use xlink:href="#m2715141634" x="270.64634" y="135.61625" style="stroke: #000000; stroke-width: 0.8"/>
      </g>
     </g>
     <g id="text_10">
      <!-- gemma3:27b_independent -->
      <g transform="translate(128.51509 139.415469) scale(0.1 -0.1)">
       <defs>
        <path id="DejaVuSans-37" d="M 525 4666 
L 3525 4666 
L 3525 4397 
L 1831 0 
L 1172 0 
L 2766 4134 
L 525 4134 
L 525 4666 
z
" transform="scale(0.015625)"/>
       </defs>
       <use xlink:href="#DejaVuSans-67"/>
       <use xlink:href="#DejaVuSans-65" transform="translate(63.476562 0)"/>
       <use xlink:href="#DejaVuSans-6d" transform="translate(125 0)"/>
       <use xlink:href="#DejaVuSans-6d" transform="translate(222.412109 0)"/>
       <use xlink:href="#DejaVuSans-61" transform="translate(319.824219 0)"/>
       <use xlink:href="#DejaVuSans-33" transform="translate(381.103516 0)"/>
       <use xlink:href="#DejaVuSans-3a" transform="translate(444.726562 0)"/>
       <use xlink:href="#DejaVuSans-32" transform="translate(478.417969 0)"/>
       <use xlink:href="#DejaVuSans-37" transform="translate(542.041016 0)"/>
       <use xlink:href="#DejaVuSans-62" transform="translate(605.664062 0)"/>
       <use xlink:href="#DejaVuSans-5f" transform="translate(669.140625 0)"/>
       <use xlink:href="#DejaVuSans-69" transform="translate(719.140625 0)"/>
       <use xlink:href="#DejaVuSans-6e" transform="translate(746.923828 0)"/>
       <use xlink:href="#DejaVuSans-64" transform="translate(810.302734 0)"/>
       <use xlink:href="#DejaVuSans-65" transform="translate(873.779297 0)"/>
       <use xlink:href="#DejaVuSans-70" transform="translate(935.302734 0)"/>
       <use xlink:href="#DejaVuSans-65" transform="translate(998.779297 0)"/>
       <use xlink:href="#DejaVuSans-6e" transform="translate(1060.302734 0)"/>
       <use xlink:href="#DejaVuSans-64" transform="translate(1123.681641 0)"/>
       <use xlink:href="#DejaVuSans-65" transform="translate(1187.158203 0)"/>
       <use xlink:href="#DejaVuSans-6e" transform="translate(1248.681641 0)"/>
       <use xlink:href="#DejaVuSans-74" transform="translate(1312.060547 0)"/>
      </g>
     </g>
    </g>
    <g id="ytick_8">
     <g id="line2d_10">
      <g>
       <use xlink:href="#m2715141634" x="270.64634" y="154.81875" style="stroke: #000000; stroke-width: 0.8"/>
      </g>
     </g>
     <g id="text_11">
      <!-- gemma3:27b-it-qat_independent -->
      <g transform="translate(98.204152 158.617969) scale(0.1 -0.1)">
       <use xlink:href="#DejaVuSans-67"/>
       <use xlink:href="#DejaVuSans-65" transform="translate(63.476562 0)"/>
       <use xlink:href="#DejaVuSans-6d" transform="translate(125 0)"/>
       <use xlink:href="#DejaVuSans-6d" transform="translate(222.412109 0)"/>
       <use xlink:href="#DejaVuSans-61" transform="translate(319.824219 0)"/>
       <use xlink:href="#DejaVuSans-33" transform="translate(381.103516 0)"/>
       <use xlink:href="#DejaVuSans-3a" transform="translate(444.726562 0)"/>
       <use xlink:href="#DejaVuSans-32" transform="translate(478.417969 0)"/>
       <use xlink:href="#DejaVuSans-37" transform="translate(542.041016 0)"/>
       <use xlink:href="#DejaVuSans-62" transform="translate(605.664062 0)"/>
       <use xlink:href="#DejaVuSans-2d" transform="translate(669.140625 0)"/>
       <use xlink:href="#DejaVuSans-69" transform="translate(705.224609 0)"/>
       <use xlink:href="#DejaVuSans-74" transform="translate(733.007812 0)"/>
       <use xlink:href="#DejaVuSans-2d" transform="translate(772.216797 0)"/>
       <use xlink:href="#DejaVuSans-71" transform="translate(808.300781 0)"/>
       <use xlink:href="#DejaVuSans-61" transform="translate(871.777344 0)"/>
       <use xlink:href="#DejaVuSans-74" transform="translate(933.056641 0)"/>
       <use xlink:href="#DejaVuSans-5f" transform="translate(972.265625 0)"/>
       <use xlink:href="#DejaVuSans-69" transform="translate(1022.265625 0)"/>
       <use xlink:href="#DejaVuSans-6e" transform="translate(1050.048828 0)"/>
       <use xlink:href="#DejaVuSans-64" transform="translate(1113.427734 0)"/>
       <use xlink:href="#DejaVuSans-65" transform="translate(1176.904297 0)"/>
       <use xlink:href="#DejaVuSans-70" transform="translate(1238.427734 0)"/>
       <use xlink:href="#DejaVuSans-65" transform="translate(1301.904297 0)"/>
       <use xlink:href="#DejaVuSans-6e" transform="translate(1363.427734 0)"/>
       <use xlink:href="#DejaVuSans-64" transform="translate(1426.806641 0)"/>
       <use xlink:href="#DejaVuSans-65" transform="translate(1490.283203 0)"/>
       <use xlink:href="#DejaVuSans-6e" transform="translate(1551.806641 0)"/>
       <use xlink:href="#DejaVuSans-74" transform="translate(1615.185547 0)"/>
      </g>
     </g>
    </g>
    <g id="ytick_9">
     <g id="line2d_11">
      <g>
       <use xlink:href="#m2715141634" x="270.64634" y="174.02125" style="stroke: #000000; stroke-width: 0.8"/>
      </g>
     </g>
     <g id="text_12">
      <!-- llama3.3:70b_independent -->
      <g transform="translate(129.532277 177.820469) scale(0.1 -0.1)">
       <defs>
        <path id="DejaVuSans-6c" d="M 603 4863 
L 1178 4863 
L 1178 0 
L 603 0 
L 603 4863 
z
" transform="scale(0.015625)"/>
        <path id="DejaVuSans-2e" d="M 684 794 
L 1344 794 
L 1344 0 
L 684 0 
L 684 794 
z
" transform="scale(0.015625)"/>
       </defs>
       <use xlink:href="#DejaVuSans-6c"/>
       <use xlink:href="#DejaVuSans-6c" transform="translate(27.783203 0)"/>
       <use xlink:href="#DejaVuSans-61" transform="translate(55.566406 0)"/>
       <use xlink:href="#DejaVuSans-6d" transform="translate(116.845703 0)"/>
       <use xlink:href="#DejaVuSans-61" transform="translate(214.257812 0)"/>
       <use xlink:href="#DejaVuSans-33" transform="translate(275.537109 0)"/>
       <use xlink:href="#DejaVuSans-2e" transform="translate(339.160156 0)"/>
       <use xlink:href="#DejaVuSans-33" transform="translate(370.947266 0)"/>
       <use xlink:href="#DejaVuSans-3a" transform="translate(434.570312 0)"/>
       <use xlink:href="#DejaVuSans-37" transform="translate(468.261719 0)"/>
       <use xlink:href="#DejaVuSans-30" transform="translate(531.884766 0)"/>
       <use xlink:href="#DejaVuSans-62" transform="translate(595.507812 0)"/>
       <use xlink:href="#DejaVuSans-5f" transform="translate(658.984375 0)"/>
       <use xlink:href="#DejaVuSans-69" transform="translate(708.984375 0)"/>
       <use xlink:href="#DejaVuSans-6e" transform="translate(736.767578 0)"/>
       <use xlink:href="#DejaVuSans-64" transform="translate(800.146484 0)"/>
       <use xlink:href="#DejaVuSans-65" transform="translate(863.623047 0)"/>
       <use xlink:href="#DejaVuSans-70" transform="translate(925.146484 0)"/>
       <use xlink:href="#DejaVuSans-65" transform="translate(988.623047 0)"/>
       <use xlink:href="#DejaVuSans-6e" transform="translate(1050.146484 0)"/>
       <use xlink:href="#DejaVuSans-64" transform="translate(1113.525391 0)"/>
       <use xlink:href="#DejaVuSans-65" transform="translate(1177.001953 0)"/>
       <use xlink:href="#DejaVuSans-6e" transform="translate(1238.525391 0)"/>
       <use xlink:href="#DejaVuSans-74" transform="translate(1301.904297 0)"/>
      </g>
     </g>
    </g>
    <g id="ytick_10">
     <g id="line2d_12">
      <g>
       <use xlink:href="#m2715141634" x="270.64634" y="193.22375" style="stroke: #000000; stroke-width: 0.8"/>
      </g>
     </g>
     <g id="text_13">
      <!-- llama4:scout_independent -->
      <g transform="translate(131.061965 197.022969) scale(0.1 -0.1)">
       <defs>
        <path id="DejaVuSans-34" d="M 2419 4116 
L 825 1625 
L 2419 1625 
L 2419 4116 
z
M 2253 4666 
L 3047 4666 
L 3047 1625 
L 3713 1625 
L 3713 1100 
L 3047 1100 
L 3047 0 
L 2419 0 
L 2419 1100 
L 313 1100 
L 313 1709 
L 2253 4666 
z
" transform="scale(0.015625)"/>
        <path id="DejaVuSans-75" d="M 544 1381 
L 544 3500 
L 1119 3500 
L 1119 1403 
Q 1119 906 1312 657 
Q 1506 409 1894 409 
Q 2359 409 2629 706 
Q 2900 1003 2900 1516 
L 2900 3500 
L 3475 3500 
L 3475 0 
L 2900 0 
L 2900 538 
Q 2691 219 2414 64 
Q 2138 -91 1772 -91 
Q 1169 -91 856 284 
Q 544 659 544 1381 
z
M 1991 3584 
L 1991 3584 
z
" transform="scale(0.015625)"/>
       </defs>
       <use xlink:href="#DejaVuSans-6c"/>
       <use xlink:href="#DejaVuSans-6c" transform="translate(27.783203 0)"/>
       <use xlink:href="#DejaVuSans-61" transform="translate(55.566406 0)"/>
       <use xlink:href="#DejaVuSans-6d" transform="translate(116.845703 0)"/>
       <use xlink:href="#DejaVuSans-61" transform="translate(214.257812 0)"/>
       <use xlink:href="#DejaVuSans-34" transform="translate(275.537109 0)"/>
       <use xlink:href="#DejaVuSans-3a" transform="translate(339.160156 0)"/>
       <use xlink:href="#DejaVuSans-73" transform="translate(372.851562 0)"/>
       <use xlink:href="#DejaVuSans-63" transform="translate(424.951172 0)"/>
       <use xlink:href="#DejaVuSans-6f" transform="translate(479.931641 0)"/>
       <use xlink:href="#DejaVuSans-75" transform="translate(541.113281 0)"/>
       <use xlink:href="#DejaVuSans-74" transform="translate(604.492188 0)"/>
       <use xlink:href="#DejaVuSans-5f" transform="translate(643.701172 0)"/>
       <use xlink:href="#DejaVuSans-69" transform="translate(693.701172 0)"/>
       <use xlink:href="#DejaVuSans-6e" transform="translate(721.484375 0)"/>
       <use xlink:href="#DejaVuSans-64" transform="translate(784.863281 0)"/>
       <use xlink:href="#DejaVuSans-65" transform="translate(848.339844 0)"/>
       <use xlink:href="#DejaVuSans-70" transform="translate(909.863281 0)"/>
       <use xlink:href="#DejaVuSans-65" transform="translate(973.339844 0)"/>
       <use xlink:href="#DejaVuSans-6e" transform="translate(1034.863281 0)"/>
       <use xlink:href="#DejaVuSans-64" transform="translate(1098.242188 0)"/>
       <use xlink:href="#DejaVuSans-65" transform="translate(1161.71875 0)"/>
       <use xlink:href="#DejaVuSans-6e" transform="translate(1223.242188 0)"/>
       <use xlink:href="#DejaVuSans-74" transform="translate(1286.621094 0)"/>
      </g>
     </g>
    </g>
    <g id="ytick_11">
     <g id="line2d_13">
      <g>
       <use xlink:href="#m2715141634" x="270.64634" y="212.42625" style="stroke: #000000; stroke-width: 0.8"/>
      </g>
     </g>
     <g id="text_14">
      <!-- gemma3:12b_cumulative -->
      <g transform="translate(136.14009 216.225469) scale(0.1 -0.1)">
       <defs>
        <path id="DejaVuSans-76" d="M 191 3500 
L 800 3500 
L 1894 563 
L 2988 3500 
L 3597 3500 
L 2284 0 
L 1503 0 
L 191 3500 
z
" transform="scale(0.015625)"/>
       </defs>
       <use xlink:href="#DejaVuSans-67"/>
       <use xlink:href="#DejaVuSans-65" transform="translate(63.476562 0)"/>
       <use xlink:href="#DejaVuSans-6d" transform="translate(125 0)"/>
       <use xlink:href="#DejaVuSans-6d" transform="translate(222.412109 0)"/>
       <use xlink:href="#DejaVuSans-61" transform="translate(319.824219 0)"/>
       <use xlink:href="#DejaVuSans-33" transform="translate(381.103516 0)"/>
       <use xlink:href="#DejaVuSans-3a" transform="translate(444.726562 0)"/>
       <use xlink:href="#DejaVuSans-31" transform="translate(478.417969 0)"/>
       <use xlink:href="#DejaVuSans-32" transform="translate(542.041016 0)"/>
       <use xlink:href="#DejaVuSans-62" transform="translate(605.664062 0)"/>
       <use xlink:href="#DejaVuSans-5f" transform="translate(669.140625 0)"/>
       <use xlink:href="#DejaVuSans-63" transform="translate(719.140625 0)"/>
       <use xlink:href="#DejaVuSans-75" transform="translate(774.121094 0)"/>
       <use xlink:href="#DejaVuSans-6d" transform="translate(837.5 0)"/>
       <use xlink:href="#DejaVuSans-75" transform="translate(934.912109 0)"/>
       <use xlink:href="#DejaVuSans-6c" transform="translate(998.291016 0)"/>
       <use xlink:href="#DejaVuSans-61" transform="translate(1026.074219 0)"/>
       <use xlink:href="#DejaVuSans-74" transform="translate(1087.353516 0)"/>
       <use xlink:href="#DejaVuSans-69" transform="translate(1126.5625 0)"/>
       <use xlink:href="#DejaVuSans-76" transform="translate(1154.345703 0)"/>
       <use xlink:href="#DejaVuSans-65" transform="translate(1213.525391 0)"/>
      </g>
     </g>
    </g>
    <g id="ytick_12">
     <g id="line2d_14">
      <g>
       <use xlink:href="#m2715141634" x="270.64634" y="231.62875" style="stroke: #000000; stroke-width: 0.8"/>
      </g>
     </g>
     <g id="text_15">
      <!-- gemma3:12b-it-qat_cumulative -->
      <g transform="translate(105.829152 235.427969) scale(0.1 -0.1)">
       <use xlink:href="#DejaVuSans-67"/>
       <use xlink:href="#DejaVuSans-65" transform="translate(63.476562 0)"/>
       <use xlink:href="#DejaVuSans-6d" transform="translate(125 0)"/>
       <use xlink:href="#DejaVuSans-6d" transform="translate(222.412109 0)"/>
       <use xlink:href="#DejaVuSans-61" transform="translate(319.824219 0)"/>
       <use xlink:href="#DejaVuSans-33" transform="translate(381.103516 0)"/>
       <use xlink:href="#DejaVuSans-3a" transform="translate(444.726562 0)"/>
       <use xlink:href="#DejaVuSans-31" transform="translate(478.417969 0)"/>
       <use xlink:href="#DejaVuSans-32" transform="translate(542.041016 0)"/>
       <use xlink:href="#DejaVuSans-62" transform="translate(605.664062 0)"/>
       <use xlink:href="#DejaVuSans-2d" transform="translate(669.140625 0)"/>
       <use xlink:href="#DejaVuSans-69" transform="translate(705.224609 0)"/>
       <use xlink:href="#DejaVuSans-74" transform="translate(733.007812 0)"/>
       <use xlink:href="#DejaVuSans-2d" transform="translate(772.216797 0)"/>
       <use xlink:href="#DejaVuSans-71" transform="translate(808.300781 0)"/>
       <use xlink:href="#DejaVuSans-61" transform="translate(871.777344 0)"/>
       <use xlink:href="#DejaVuSans-74" transform="translate(933.056641 0)"/>
       <use xlink:href="#DejaVuSans-5f" transform="translate(972.265625 0)"/>
       <use xlink:href="#DejaVuSans-63" transform="translate(1022.265625 0)"/>
       <use xlink:href="#DejaVuSans-75" transform="translate(1077.246094 0)"/>
       <use xlink:href="#DejaVuSans-6d" transform="translate(1140.625 0)"/>
       <use xlink:href="#DejaVuSans-75" transform="translate(1238.037109 0)"/>
       <use xlink:href="#DejaVuSans-6c" transform="translate(1301.416016 0)"/>
       <use xlink:href="#DejaVuSans-61" transform="translate(1329.199219 0)"/>
       <use xlink:href="#DejaVuSans-74" transform="translate(1390.478516 0)"/>
       <use xlink:href="#DejaVuSans-69" transform="translate(1429.6875 0)"/>
       <use xlink:href="#DejaVuSans-76" transform="translate(1457.470703 0)"/>
       <use xlink:href="#DejaVuSans-65" transform="translate(1516.650391 0)"/>
      </g>
     </g>
    </g>
    <g id="ytick_13">
     <g id="line2d_15">
      <g>
       <use xlink:href="#m2715141634" x="270.64634" y="250.83125" style="stroke: #000000; stroke-width: 0.8"/>
      </g>
     </g>
     <g id="text_16">
      <!-- gemma3:27b_cumulative -->
      <g transform="translate(136.14009 254.630469) scale(0.1 -0.1)">
       <use xlink:href="#DejaVuSans-67"/>
       <use xlink:href="#DejaVuSans-65" transform="translate(63.476562 0)"/>
       <use xlink:href="#DejaVuSans-6d" transform="translate(125 0)"/>
       <use xlink:href="#DejaVuSans-6d" transform="translate(222.412109 0)"/>
       <use xlink:href="#DejaVuSans-61" transform="translate(319.824219 0)"/>
       <use xlink:href="#DejaVuSans-33" transform="translate(381.103516 0)"/>
       <use xlink:href="#DejaVuSans-3a" transform="translate(444.726562 0)"/>
       <use xlink:href="#DejaVuSans-32" transform="translate(478.417969 0)"/>
       <use xlink:href="#DejaVuSans-37" transform="translate(542.041016 0)"/>
       <use xlink:href="#DejaVuSans-62" transform="translate(605.664062 0)"/>
       <use xlink:href="#DejaVuSans-5f" transform="translate(669.140625 0)"/>
       <use xlink:href="#DejaVuSans-63" transform="translate(719.140625 0)"/>
       <use xlink:href="#DejaVuSans-75" transform="translate(774.121094 0)"/>
       <use xlink:href="#DejaVuSans-6d" transform="translate(837.5 0)"/>
       <use xlink:href="#DejaVuSans-75" transform="translate(934.912109 0)"/>
       <use xlink:href="#DejaVuSans-6c" transform="translate(998.291016 0)"/>
       <use xlink:href="#DejaVuSans-61" transform="translate(1026.074219 0)"/>
       <use xlink:href="#DejaVuSans-74" transform="translate(1087.353516 0)"/>
       <use xlink:href="#DejaVuSans-69" transform="translate(1126.5625 0)"/>
       <use xlink:href="#DejaVuSans-76" transform="translate(1154.345703 0)"/>
       <use xlink:href="#DejaVuSans-65" transform="translate(1213.525391 0)"/>
      </g>
     </g>
    </g>
    <g id="ytick_14">
     <g id="line2d_16">
      <g>
       <use xlink:href="#m2715141634" x="270.64634" y="270.03375" style="stroke: #000000; stroke-width: 0.8"/>
      </g>
     </g>
     <g id="text_17">
      <!-- gemma3:27b-it-qat_cumulative -->
      <g transform="translate(105.829152 273.832969) scale(0.1 -0.1)">
       <use xlink:href="#DejaVuSans-67"/>
       <use xlink:href="#DejaVuSans-65" transform="translate(63.476562 0)"/>
       <use xlink:href="#DejaVuSans-6d" transform="translate(125 0)"/>
       <use xlink:href="#DejaVuSans-6d" transform="translate(222.412109 0)"/>
       <use xlink:href="#DejaVuSans-61" transform="translate(319.824219 0)"/>
       <use xlink:href="#DejaVuSans-33" transform="translate(381.103516 0)"/>
       <use xlink:href="#DejaVuSans-3a" transform="translate(444.726562 0)"/>
       <use xlink:href="#DejaVuSans-32" transform="translate(478.417969 0)"/>
       <use xlink:href="#DejaVuSans-37" transform="translate(542.041016 0)"/>
       <use xlink:href="#DejaVuSans-62" transform="translate(605.664062 0)"/>
       <use xlink:href="#DejaVuSans-2d" transform="translate(669.140625 0)"/>
       <use xlink:href="#DejaVuSans-69" transform="translate(705.224609 0)"/>
       <use xlink:href="#DejaVuSans-74" transform="translate(733.007812 0)"/>
       <use xlink:href="#DejaVuSans-2d" transform="translate(772.216797 0)"/>
       <use xlink:href="#DejaVuSans-71" transform="translate(808.300781 0)"/>
       <use xlink:href="#DejaVuSans-61" transform="translate(871.777344 0)"/>
       <use xlink:href="#DejaVuSans-74" transform="translate(933.056641 0)"/>
       <use xlink:href="#DejaVuSans-5f" transform="translate(972.265625 0)"/>
       <use xlink:href="#DejaVuSans-63" transform="translate(1022.265625 0)"/>
       <use xlink:href="#DejaVuSans-75" transform="translate(1077.246094 0)"/>
       <use xlink:href="#DejaVuSans-6d" transform="translate(1140.625 0)"/>
       <use xlink:href="#DejaVuSans-75" transform="translate(1238.037109 0)"/>
       <use xlink:href="#DejaVuSans-6c" transform="translate(1301.416016 0)"/>
       <use xlink:href="#DejaVuSans-61" transform="translate(1329.199219 0)"/>
       <use xlink:href="#DejaVuSans-74" transform="translate(1390.478516 0)"/>
       <use xlink:href="#DejaVuSans-69" transform="translate(1429.6875 0)"/>
       <use xlink:href="#DejaVuSans-76" transform="translate(1457.470703 0)"/>
       <use xlink:href="#DejaVuSans-65" transform="translate(1516.650391 0)"/>
      </g>
     </g>
    </g>
    <g id="ytick_15">
     <g id="line2d_17">
      <g>
       <use xlink:href="#m2715141634" x="270.64634" y="289.23625" style="stroke: #000000; stroke-width: 0.8"/>
      </g>
     </g>
     <g id="text_18">
      <!-- llama3.3:70b_cumulative -->
      <g transform="translate(137.157278 293.035469) scale(0.1 -0.1)">
       <use xlink:href="#DejaVuSans-6c"/>
       <use xlink:href="#DejaVuSans-6c" transform="translate(27.783203 0)"/>
       <use xlink:href="#DejaVuSans-61" transform="translate(55.566406 0)"/>
       <use xlink:href="#DejaVuSans-6d" transform="translate(116.845703 0)"/>
       <use xlink:href="#DejaVuSans-61" transform="translate(214.257812 0)"/>
       <use xlink:href="#DejaVuSans-33" transform="translate(275.537109 0)"/>
       <use xlink:href="#DejaVuSans-2e" transform="translate(339.160156 0)"/>
       <use xlink:href="#DejaVuSans-33" transform="translate(370.947266 0)"/>
       <use xlink:href="#DejaVuSans-3a" transform="translate(434.570312 0)"/>
       <use xlink:href="#DejaVuSans-37" transform="translate(468.261719 0)"/>
       <use xlink:href="#DejaVuSans-30" transform="translate(531.884766 0)"/>
       <use xlink:href="#DejaVuSans-62" transform="translate(595.507812 0)"/>
       <use xlink:href="#DejaVuSans-5f" transform="translate(658.984375 0)"/>
       <use xlink:href="#DejaVuSans-63" transform="translate(708.984375 0)"/>
       <use xlink:href="#DejaVuSans-75" transform="translate(763.964844 0)"/>
       <use xlink:href="#DejaVuSans-6d" transform="translate(827.34375 0)"/>
       <use xlink:href="#DejaVuSans-75" transform="translate(924.755859 0)"/>
       <use xlink:href="#DejaVuSans-6c" transform="translate(988.134766 0)"/>
       <use xlink:href="#DejaVuSans-61" transform="translate(1015.917969 0)"/>
       <use xlink:href="#DejaVuSans-74" transform="translate(1077.197266 0)"/>
       <use xlink:href="#DejaVuSans-69" transform="translate(1116.40625 0)"/>
       <use xlink:href="#DejaVuSans-76" transform="translate(1144.189453 0)"/>
       <use xlink:href="#DejaVuSans-65" transform="translate(1203.369141 0)"/>
      </g>
     </g>
    </g>
    <g id="ytick_16">
     <g id="line2d_18">
      <g>
       <use xlink:href="#m2715141634" x="270.64634" y="308.43875" style="stroke: #000000; stroke-width: 0.8"/>
      </g>
     </g>
     <g id="text_19">
      <!-- llama4:scout_cumulative -->
      <g transform="translate(138.686965 312.237969) scale(0.1 -0.1)">
       <use xlink:href="#DejaVuSans-6c"/>
       <use xlink:href="#DejaVuSans-6c" transform="translate(27.783203 0)"/>
       <use xlink:href="#DejaVuSans-61" transform="translate(55.566406 0)"/>
       <use xlink:href="#DejaVuSans-6d" transform="translate(116.845703 0)"/>
       <use xlink:href="#DejaVuSans-61" transform="translate(214.257812 0)"/>
       <use xlink:href="#DejaVuSans-34" transform="translate(275.537109 0)"/>
       <use xlink:href="#DejaVuSans-3a" transform="translate(339.160156 0)"/>
       <use xlink:href="#DejaVuSans-73" transform="translate(372.851562 0)"/>
       <use xlink:href="#DejaVuSans-63" transform="translate(424.951172 0)"/>
       <use xlink:href="#DejaVuSans-6f" transform="translate(479.931641 0)"/>
       <use xlink:href="#DejaVuSans-75" transform="translate(541.113281 0)"/>
       <use xlink:href="#DejaVuSans-74" transform="translate(604.492188 0)"/>
       <use xlink:href="#DejaVuSans-5f" transform="translate(643.701172 0)"/>
       <use xlink:href="#DejaVuSans-63" transform="translate(693.701172 0)"/>
       <use xlink:href="#DejaVuSans-75" transform="translate(748.681641 0)"/>
       <use xlink:href="#DejaVuSans-6d" transform="translate(812.060547 0)"/>
       <use xlink:href="#DejaVuSans-75" transform="translate(909.472656 0)"/>
       <use xlink:href="#DejaVuSans-6c" transform="translate(972.851562 0)"/>
       <use xlink:href="#DejaVuSans-61" transform="translate(1000.634766 0)"/>
       <use xlink:href="#DejaVuSans-74" transform="translate(1061.914062 0)"/>
       <use xlink:href="#DejaVuSans-69" transform="translate(1101.123047 0)"/>
       <use xlink:href="#DejaVuSans-76" transform="translate(1128.90625 0)"/>
       <use xlink:href="#DejaVuSans-65" transform="translate(1188.085938 0)"/>
      </g>
     </g>
    </g>
    <g id="text_20">
     <!-- groups -->
     <g transform="translate(92.124465 181.544219) rotate(-90) scale(0.1 -0.1)">
      <use xlink:href="#DejaVuSans-67"/>
      <use xlink:href="#DejaVuSans-72" transform="translate(63.476562 0)"/>
      <use xlink:href="#DejaVuSans-6f" transform="translate(102.339844 0)"/>
      <use xlink:href="#DejaVuSans-75" transform="translate(163.521484 0)"/>
      <use xlink:href="#DejaVuSans-70" transform="translate(226.900391 0)"/>
      <use xlink:href="#DejaVuSans-73" transform="translate(290.376953 0)"/>
     </g>
    </g>
   </g>
   <g id="line2d_19">
    <path d="M 342.748469 20.209225 
L 342.748469 20.593275 
M 342.748469 20.40125 
L 345.481267 20.40125 
M 345.481267 20.209225 
L 345.481267 20.593275 
" clip-path="url(#pf890ca05fb)" style="fill: none; stroke: #424242; stroke-width: 2.25; stroke-linecap: square"/>
   </g>
   <g id="line2d_20">
    <path d="M 348.724372 39.411725 
L 348.724372 39.795775 
M 348.724372 39.60375 
L 351.046207 39.60375 
M 351.046207 39.411725 
L 351.046207 39.795775 
" clip-path="url(#pf890ca05fb)" style="fill: none; stroke: #424242; stroke-width: 2.25; stroke-linecap: square"/>
   </g>
   <g id="line2d_21">
    <path d="M 347.866105 58.614225 
L 347.866105 58.998275 
M 347.866105 58.80625 
L 350.12578 58.80625 
M 350.12578 58.614225 
L 350.12578 58.998275 
" clip-path="url(#pf890ca05fb)" style="fill: none; stroke: #424242; stroke-width: 2.25; stroke-linecap: square"/>
   </g>
   <g id="line2d_22">
    <path d="M 348.393821 77.816725 
L 348.393821 78.200775 
M 348.393821 78.00875 
L 349.78327 78.00875 
M 349.78327 77.816725 
L 349.78327 78.200775 
" clip-path="url(#pf890ca05fb)" style="fill: none; stroke: #424242; stroke-width: 2.25; stroke-linecap: square"/>
   </g>
   <g id="line2d_23">
    <path d="M 335.722565 97.019225 
L 335.722565 97.403275 
M 335.722565 97.21125 
L 338.115999 97.21125 
M 338.115999 97.019225 
L 338.115999 97.403275 
" clip-path="url(#pf890ca05fb)" style="fill: none; stroke: #424242; stroke-width: 2.25; stroke-linecap: square"/>
   </g>
   <g id="line2d_24">
    <path d="M 330.818305 212.234225 
L 330.818305 212.618275 
M 330.818305 212.42625 
L 334.068857 212.42625 
M 334.068857 212.234225 
L 334.068857 212.618275 
" clip-path="url(#pf890ca05fb)" style="fill: none; stroke: #424242; stroke-width: 2.25; stroke-linecap: square"/>
   </g>
   <g id="line2d_25">
    <path d="M 335.701061 116.221725 
L 335.701061 116.605775 
M 335.701061 116.41375 
L 338.046432 116.41375 
M 338.046432 116.221725 
L 338.046432 116.605775 
" clip-path="url(#pf890ca05fb)" style="fill: none; stroke: #424242; stroke-width: 2.25; stroke-linecap: square"/>
   </g>
   <g id="line2d_26">
    <path d="M 331.574428 231.436725 
L 331.574428 231.820775 
M 331.574428 231.62875 
L 335.029457 231.62875 
M 335.029457 231.436725 
L 335.029457 231.820775 
" clip-path="url(#pf890ca05fb)" style="fill: none; stroke: #424242; stroke-width: 2.25; stroke-linecap: square"/>
   </g>
   <g id="line2d_27">
    <path d="M 333.299415 135.424225 
L 333.299415 135.808275 
M 333.299415 135.61625 
L 337.219618 135.61625 
M 337.219618 135.424225 
L 337.219618 135.808275 
" clip-path="url(#pf890ca05fb)" style="fill: none; stroke: #424242; stroke-width: 2.25; stroke-linecap: square"/>
   </g>
   <g id="line2d_28">
    <path d="M 341.945345 250.639225 
L 341.945345 251.023275 
M 341.945345 250.83125 
L 345.00918 250.83125 
M 345.00918 250.639225 
L 345.00918 251.023275 
" clip-path="url(#pf890ca05fb)" style="fill: none; stroke: #424242; stroke-width: 2.25; stroke-linecap: square"/>
   </g>
   <g id="line2d_29">
    <path d="M 338.054643 154.626725 
L 338.054643 155.010775 
M 338.054643 154.81875 
L 341.405815 154.81875 
M 341.405815 154.626725 
L 341.405815 155.010775 
" clip-path="url(#pf890ca05fb)" style="fill: none; stroke: #424242; stroke-width: 2.25; stroke-linecap: square"/>
   </g>
   <g id="line2d_30">
    <path d="M 339.781529 269.841725 
L 339.781529 270.225775 
M 339.781529 270.03375 
L 343.202055 270.03375 
M 343.202055 269.841725 
L 343.202055 270.225775 
" clip-path="url(#pf890ca05fb)" style="fill: none; stroke: #424242; stroke-width: 2.25; stroke-linecap: square"/>
   </g>
   <g id="line2d_31">
    <path d="M 339.710918 173.829225 
L 339.710918 174.213275 
M 339.710918 174.02125 
L 343.976044 174.02125 
M 343.976044 173.829225 
L 343.976044 174.213275 
" clip-path="url(#pf890ca05fb)" style="fill: none; stroke: #424242; stroke-width: 2.25; stroke-linecap: square"/>
   </g>
   <g id="line2d_32">
    <path d="M 339.071223 289.044225 
L 339.071223 289.428275 
M 339.071223 289.23625 
L 343.788284 289.23625 
M 343.788284 289.044225 
L 343.788284 289.428275 
" clip-path="url(#pf890ca05fb)" style="fill: none; stroke: #424242; stroke-width: 2.25; stroke-linecap: square"/>
   </g>
   <g id="line2d_33">
    <path d="M 339.434948 193.031725 
L 339.434948 193.415775 
M 339.434948 193.22375 
L 342.066025 193.22375 
M 342.066025 193.031725 
L 342.066025 193.415775 
" clip-path="url(#pf890ca05fb)" style="fill: none; stroke: #424242; stroke-width: 2.25; stroke-linecap: square"/>
   </g>
   <g id="line2d_34">
    <path d="M 341.063942 308.246725 
L 341.063942 308.630775 
M 341.063942 308.43875 
L 344.292723 308.43875 
M 344.292723 308.246725 
L 344.292723 308.630775 
" clip-path="url(#pf890ca05fb)" style="fill: none; stroke: #424242; stroke-width: 2.25; stroke-linecap: square"/>
   </g>
   <g id="patch_26">
    <path d="M 270.64634 318.04 
L 270.64634 10.8 
" style="fill: none; stroke: #000000; stroke-width: 0.8; stroke-linejoin: miter; stroke-linecap: square"/>
   </g>
   <g id="patch_27">
    <path d="M 270.64634 318.04 
L 355.0662 318.04 
" style="fill: none; stroke: #000000; stroke-width: 0.8; stroke-linejoin: miter; stroke-linecap: square"/>
   </g>
  </g>
  <g id="legend_1">
   <g id="text_21">
    <!-- model -->
    <g transform="translate(406.197187 131.385938) scale(0.1 -0.1)">
     <use xlink:href="#DejaVuSans-6d"/>
     <use xlink:href="#DejaVuSans-6f" transform="translate(97.412109 0)"/>
     <use xlink:href="#DejaVuSans-64" transform="translate(158.59375 0)"/>
     <use xlink:href="#DejaVuSans-65" transform="translate(222.070312 0)"/>
     <use xlink:href="#DejaVuSans-6c" transform="translate(283.59375 0)"/>
    </g>
   </g>
   <g id="patch_28">
    <path d="M 359.153437 146.064063 
L 379.153437 146.064063 
L 379.153437 139.064063 
L 359.153437 139.064063 
z
" style="fill: #3274a1"/>
   </g>
   <g id="text_22">
    <!-- HUMAN -->
    <g transform="translate(387.153437 146.064063) scale(0.1 -0.1)">
     <defs>
      <path id="DejaVuSans-48" d="M 628 4666 
L 1259 4666 
L 1259 2753 
L 3553 2753 
L 3553 4666 
L 4184 4666 
L 4184 0 
L 3553 0 
L 3553 2222 
L 1259 2222 
L 1259 0 
L 628 0 
L 628 4666 
z
" transform="scale(0.015625)"/>
      <path id="DejaVuSans-55" d="M 556 4666 
L 1191 4666 
L 1191 1831 
Q 1191 1081 1462 751 
Q 1734 422 2344 422 
Q 2950 422 3222 751 
Q 3494 1081 3494 1831 
L 3494 4666 
L 4128 4666 
L 4128 1753 
Q 4128 841 3676 375 
Q 3225 -91 2344 -91 
Q 1459 -91 1007 375 
Q 556 841 556 1753 
L 556 4666 
z
" transform="scale(0.015625)"/>
      <path id="DejaVuSans-4d" d="M 628 4666 
L 1569 4666 
L 2759 1491 
L 3956 4666 
L 4897 4666 
L 4897 0 
L 4281 0 
L 4281 4097 
L 3078 897 
L 2444 897 
L 1241 4097 
L 1241 0 
L 628 0 
L 628 4666 
z
" transform="scale(0.015625)"/>
      <path id="DejaVuSans-41" d="M 2188 4044 
L 1331 1722 
L 3047 1722 
L 2188 4044 
z
M 1831 4666 
L 2547 4666 
L 4325 0 
L 3669 0 
L 3244 1197 
L 1141 1197 
L 716 0 
L 50 0 
L 1831 4666 
z
" transform="scale(0.015625)"/>
      <path id="DejaVuSans-4e" d="M 628 4666 
L 1478 4666 
L 3547 763 
L 3547 4666 
L 4159 4666 
L 4159 0 
L 3309 0 
L 1241 3903 
L 1241 0 
L 628 0 
L 628 4666 
z
" transform="scale(0.015625)"/>
     </defs>
     <use xlink:href="#DejaVuSans-48"/>
     <use xlink:href="#DejaVuSans-55" transform="translate(75.195312 0)"/>
     <use xlink:href="#DejaVuSans-4d" transform="translate(148.388672 0)"/>
     <use xlink:href="#DejaVuSans-41" transform="translate(234.667969 0)"/>
     <use xlink:href="#DejaVuSans-4e" transform="translate(303.076172 0)"/>
    </g>
   </g>
   <g id="patch_29">
    <path d="M 359.153437 160.742188 
L 379.153437 160.742188 
L 379.153437 153.742188 
L 359.153437 153.742188 
z
" style="fill: #e1812c"/>
   </g>
   <g id="text_23">
    <!-- gemma3:12b -->
    <g transform="translate(387.153437 160.742188) scale(0.1 -0.1)">
     <use xlink:href="#DejaVuSans-67"/>
     <use xlink:href="#DejaVuSans-65" transform="translate(63.476562 0)"/>
     <use xlink:href="#DejaVuSans-6d" transform="translate(125 0)"/>
     <use xlink:href="#DejaVuSans-6d" transform="translate(222.412109 0)"/>
     <use xlink:href="#DejaVuSans-61" transform="translate(319.824219 0)"/>
     <use xlink:href="#DejaVuSans-33" transform="translate(381.103516 0)"/>
     <use xlink:href="#DejaVuSans-3a" transform="translate(444.726562 0)"/>
     <use xlink:href="#DejaVuSans-31" transform="translate(478.417969 0)"/>
     <use xlink:href="#DejaVuSans-32" transform="translate(542.041016 0)"/>
     <use xlink:href="#DejaVuSans-62" transform="translate(605.664062 0)"/>
    </g>
   </g>
   <g id="patch_30">
    <path d="M 359.153437 175.420313 
L 379.153437 175.420313 
L 379.153437 168.420313 
L 359.153437 168.420313 
z
" style="fill: #3a923a"/>
   </g>
   <g id="text_24">
    <!-- gemma3:12b-it-qat -->
    <g transform="translate(387.153437 175.420313) scale(0.1 -0.1)">
     <use xlink:href="#DejaVuSans-67"/>
     <use xlink:href="#DejaVuSans-65" transform="translate(63.476562 0)"/>
     <use xlink:href="#DejaVuSans-6d" transform="translate(125 0)"/>
     <use xlink:href="#DejaVuSans-6d" transform="translate(222.412109 0)"/>
     <use xlink:href="#DejaVuSans-61" transform="translate(319.824219 0)"/>
     <use xlink:href="#DejaVuSans-33" transform="translate(381.103516 0)"/>
     <use xlink:href="#DejaVuSans-3a" transform="translate(444.726562 0)"/>
     <use xlink:href="#DejaVuSans-31" transform="translate(478.417969 0)"/>
     <use xlink:href="#DejaVuSans-32" transform="translate(542.041016 0)"/>
     <use xlink:href="#DejaVuSans-62" transform="translate(605.664062 0)"/>
     <use xlink:href="#DejaVuSans-2d" transform="translate(669.140625 0)"/>
     <use xlink:href="#DejaVuSans-69" transform="translate(705.224609 0)"/>
     <use xlink:href="#DejaVuSans-74" transform="translate(733.007812 0)"/>
     <use xlink:href="#DejaVuSans-2d" transform="translate(772.216797 0)"/>
     <use xlink:href="#DejaVuSans-71" transform="translate(808.300781 0)"/>
     <use xlink:href="#DejaVuSans-61" transform="translate(871.777344 0)"/>
     <use xlink:href="#DejaVuSans-74" transform="translate(933.056641 0)"/>
    </g>
   </g>
   <g id="patch_31">
    <path d="M 359.153437 190.098438 
L 379.153437 190.098438 
L 379.153437 183.098438 
L 359.153437 183.098438 
z
" style="fill: #c03d3e"/>
   </g>
   <g id="text_25">
    <!-- gemma3:27b -->
    <g transform="translate(387.153437 190.098438) scale(0.1 -0.1)">
     <use xlink:href="#DejaVuSans-67"/>
     <use xlink:href="#DejaVuSans-65" transform="translate(63.476562 0)"/>
     <use xlink:href="#DejaVuSans-6d" transform="translate(125 0)"/>
     <use xlink:href="#DejaVuSans-6d" transform="translate(222.412109 0)"/>
     <use xlink:href="#DejaVuSans-61" transform="translate(319.824219 0)"/>
     <use xlink:href="#DejaVuSans-33" transform="translate(381.103516 0)"/>
     <use xlink:href="#DejaVuSans-3a" transform="translate(444.726562 0)"/>
     <use xlink:href="#DejaVuSans-32" transform="translate(478.417969 0)"/>
     <use xlink:href="#DejaVuSans-37" transform="translate(542.041016 0)"/>
     <use xlink:href="#DejaVuSans-62" transform="translate(605.664062 0)"/>
    </g>
   </g>
   <g id="patch_32">
    <path d="M 359.153437 204.776563 
L 379.153437 204.776563 
L 379.153437 197.776563 
L 359.153437 197.776563 
z
" style="fill: #9372b2"/>
   </g>
   <g id="text_26">
    <!-- gemma3:27b-it-qat -->
    <g transform="translate(387.153437 204.776563) scale(0.1 -0.1)">
     <use xlink:href="#DejaVuSans-67"/>
     <use xlink:href="#DejaVuSans-65" transform="translate(63.476562 0)"/>
     <use xlink:href="#DejaVuSans-6d" transform="translate(125 0)"/>
     <use xlink:href="#DejaVuSans-6d" transform="translate(222.412109 0)"/>
     <use xlink:href="#DejaVuSans-61" transform="translate(319.824219 0)"/>
     <use xlink:href="#DejaVuSans-33" transform="translate(381.103516 0)"/>
     <use xlink:href="#DejaVuSans-3a" transform="translate(444.726562 0)"/>
     <use xlink:href="#DejaVuSans-32" transform="translate(478.417969 0)"/>
     <use xlink:href="#DejaVuSans-37" transform="translate(542.041016 0)"/>
     <use xlink:href="#DejaVuSans-62" transform="translate(605.664062 0)"/>
     <use xlink:href="#DejaVuSans-2d" transform="translate(669.140625 0)"/>
     <use xlink:href="#DejaVuSans-69" transform="translate(705.224609 0)"/>
     <use xlink:href="#DejaVuSans-74" transform="translate(733.007812 0)"/>
     <use xlink:href="#DejaVuSans-2d" transform="translate(772.216797 0)"/>
     <use xlink:href="#DejaVuSans-71" transform="translate(808.300781 0)"/>
     <use xlink:href="#DejaVuSans-61" transform="translate(871.777344 0)"/>
     <use xlink:href="#DejaVuSans-74" transform="translate(933.056641 0)"/>
    </g>
   </g>
   <g id="patch_33">
    <path d="M 359.153437 219.454688 
L 379.153437 219.454688 
L 379.153437 212.454688 
L 359.153437 212.454688 
z
" style="fill: #845b53"/>
   </g>
   <g id="text_27">
    <!-- llama3.3:70b -->
    <g transform="translate(387.153437 219.454688) scale(0.1 -0.1)">
     <use xlink:href="#DejaVuSans-6c"/>
     <use xlink:href="#DejaVuSans-6c" transform="translate(27.783203 0)"/>
     <use xlink:href="#DejaVuSans-61" transform="translate(55.566406 0)"/>
     <use xlink:href="#DejaVuSans-6d" transform="translate(116.845703 0)"/>
     <use xlink:href="#DejaVuSans-61" transform="translate(214.257812 0)"/>
     <use xlink:href="#DejaVuSans-33" transform="translate(275.537109 0)"/>
     <use xlink:href="#DejaVuSans-2e" transform="translate(339.160156 0)"/>
     <use xlink:href="#DejaVuSans-33" transform="translate(370.947266 0)"/>
     <use xlink:href="#DejaVuSans-3a" transform="translate(434.570312 0)"/>
     <use xlink:href="#DejaVuSans-37" transform="translate(468.261719 0)"/>
     <use xlink:href="#DejaVuSans-30" transform="translate(531.884766 0)"/>
     <use xlink:href="#DejaVuSans-62" transform="translate(595.507812 0)"/>
    </g>
   </g>
   <g id="patch_34">
    <path d="M 359.153437 234.132813 
L 379.153437 234.132813 
L 379.153437 227.132813 
L 359.153437 227.132813 
z
" style="fill: #d684bd"/>
   </g>
   <g id="text_28">
    <!-- llama4:scout -->
    <g transform="translate(387.153437 234.132813) scale(0.1 -0.1)">
     <use xlink:href="#DejaVuSans-6c"/>
     <use xlink:href="#DejaVuSans-6c" transform="translate(27.783203 0)"/>
     <use xlink:href="#DejaVuSans-61" transform="translate(55.566406 0)"/>
     <use xlink:href="#DejaVuSans-6d" transform="translate(116.845703 0)"/>
     <use xlink:href="#DejaVuSans-61" transform="translate(214.257812 0)"/>
     <use xlink:href="#DejaVuSans-34" transform="translate(275.537109 0)"/>
     <use xlink:href="#DejaVuSans-3a" transform="translate(339.160156 0)"/>
     <use xlink:href="#DejaVuSans-73" transform="translate(372.851562 0)"/>
     <use xlink:href="#DejaVuSans-63" transform="translate(424.951172 0)"/>
     <use xlink:href="#DejaVuSans-6f" transform="translate(479.931641 0)"/>
     <use xlink:href="#DejaVuSans-75" transform="translate(541.113281 0)"/>
     <use xlink:href="#DejaVuSans-74" transform="translate(604.492188 0)"/>
    </g>
   </g>
  </g>
 </g>
 <defs>
  <clipPath id="pf890ca05fb">
   <rect x="270.64634" y="10.8" width="84.41986" height="307.24"/>
  </clipPath>
 </defs>
</svg>
