<?xml version="1.0" encoding="utf-8" standalone="no"?>
<!DOCTYPE svg PUBLIC "-//W3C//DTD SVG 1.1//EN"
  "http://www.w3.org/Graphics/SVG/1.1/DTD/svg11.dtd">
<svg xmlns:xlink="http://www.w3.org/1999/xlink" width="905.31pt" height="360pt" viewBox="0 0 905.31 360" xmlns="http://www.w3.org/2000/svg" version="1.1">
 <metadata>
  <rdf:RDF xmlns:dc="http://purl.org/dc/elements/1.1/" xmlns:cc="http://creativecommons.org/ns#" xmlns:rdf="http://www.w3.org/1999/02/22-rdf-syntax-ns#">
   <cc:Work>
    <dc:type rdf:resource="http://purl.org/dc/dcmitype/StillImage"/>
    <dc:date>2025-10-02T15:29:50.566016</dc:date>
    <dc:format>image/svg+xml</dc:format>
    <dc:creator>
     <cc:Agent>
      <dc:title>Matplotlib v3.10.0, https://matplotlib.org/</dc:title>
     </cc:Agent>
    </dc:creator>
   </cc:Work>
  </rdf:RDF>
 </metadata>
 <defs>
  <style type="text/css">*{stroke-linejoin: round; stroke-linecap: butt}</style>
 </defs>
 <g id="figure_1">
  <g id="patch_1">
   <path d="M 0 360 
L 905.31 360 
L 905.31 0 
L 0 0 
z
" style="fill: #ffffff"/>
  </g>
  <g id="axes_1">
   <g id="patch_2">
    <path d="M 162.528293 318.04 
L 429.976219 318.04 
L 429.976219 24.72 
L 162.528293 24.72 
z
" style="fill: #ffffff"/>
   </g>
   <g id="patch_3">
    <path d="M 162.528293 29.608667 
L 335.554959 29.608667 
L 335.554959 37.430533 
L 162.528293 37.430533 
z
" clip-path="url(#p7bd720f662)" style="fill: #dae6f1"/>
   </g>
   <g id="patch_4">
    <path d="M 162.528293 78.495333 
L 338.769175 78.495333 
L 338.769175 86.3172 
L 162.528293 86.3172 
z
" clip-path="url(#p7bd720f662)" style="fill: #dae6f1"/>
   </g>
   <g id="patch_5">
    <path d="M 162.528293 127.382 
L 371.395061 127.382 
L 371.395061 135.203867 
L 162.528293 135.203867 
z
" clip-path="url(#p7bd720f662)" style="fill: #dae6f1"/>
   </g>
   <g id="patch_6">
    <path d="M 162.528293 176.268667 
L 367.945348 176.268667 
L 367.945348 184.090533 
L 162.528293 184.090533 
z
" clip-path="url(#p7bd720f662)" style="fill: #dae6f1"/>
   </g>
   <g id="patch_7">
    <path d="M 162.528293 225.155333 
L 353.280884 225.155333 
L 353.280884 232.9772 
L 162.528293 232.9772 
z
" clip-path="url(#p7bd720f662)" style="fill: #dae6f1"/>
   </g>
   <g id="patch_8">
    <path d="M 162.528293 274.042 
L 378.084449 274.042 
L 378.084449 281.863867 
L 162.528293 281.863867 
z
" clip-path="url(#p7bd720f662)" style="fill: #dae6f1"/>
   </g>
   <g id="patch_9">
    <path d="M 162.528293 37.430533 
L 332.372567 37.430533 
L 332.372567 45.2524 
L 162.528293 45.2524 
z
" clip-path="url(#p7bd720f662)" style="fill: #b3cede"/>
   </g>
   <g id="patch_10">
    <path d="M 162.528293 86.3172 
L 333.728266 86.3172 
L 333.728266 94.139067 
L 162.528293 94.139067 
z
" clip-path="url(#p7bd720f662)" style="fill: #b3cede"/>
   </g>
   <g id="patch_11">
    <path d="M 162.528293 135.203867 
L 343.981934 135.203867 
L 343.981934 143.025733 
L 162.528293 143.025733 
z
" clip-path="url(#p7bd720f662)" style="fill: #b3cede"/>
   </g>
   <g id="patch_12">
    <path d="M 162.528293 184.090533 
L 343.179971 184.090533 
L 343.179971 191.9124 
L 162.528293 191.9124 
z
" clip-path="url(#p7bd720f662)" style="fill: #b3cede"/>
   </g>
   <g id="patch_13">
    <path d="M 162.528293 232.9772 
L 321.259653 232.9772 
L 321.259653 240.799067 
L 162.528293 240.799067 
z
" clip-path="url(#p7bd720f662)" style="fill: #b3cede"/>
   </g>
   <g id="patch_14">
    <path d="M 162.528293 281.863867 
L 364.584741 281.863867 
L 364.584741 289.685733 
L 162.528293 289.685733 
z
" clip-path="url(#p7bd720f662)" style="fill: #b3cede"/>
   </g>
   <g id="patch_15">
    <path d="M 162.528293 45.2524 
L 181.438067 45.2524 
L 181.438067 53.074267 
L 162.528293 53.074267 
z
" clip-path="url(#p7bd720f662)" style="fill: #78aac8"/>
   </g>
   <g id="patch_16">
    <path d="M 162.528293 94.139067 
L 175.245132 94.139067 
L 175.245132 101.960933 
L 162.528293 101.960933 
z
" clip-path="url(#p7bd720f662)" style="fill: #78aac8"/>
   </g>
   <g id="patch_17">
    <path d="M 162.528293 143.025733 
L 244.12483 143.025733 
L 244.12483 150.8476 
L 162.528293 150.8476 
z
" clip-path="url(#p7bd720f662)" style="fill: #78aac8"/>
   </g>
   <g id="patch_18">
    <path d="M 162.528293 191.9124 
L 213.949387 191.9124 
L 213.949387 199.734267 
L 162.528293 199.734267 
z
" clip-path="url(#p7bd720f662)" style="fill: #78aac8"/>
   </g>
   <g id="patch_19">
    <path d="M 162.528293 240.799067 
L 162.731966 240.799067 
L 162.731966 248.620933 
L 162.528293 248.620933 
z
" clip-path="url(#p7bd720f662)" style="fill: #78aac8"/>
   </g>
   <g id="patch_20">
    <path d="M 162.528293 289.685733 
L 178.459348 289.685733 
L 178.459348 297.5076 
L 162.528293 297.5076 
z
" clip-path="url(#p7bd720f662)" style="fill: #78aac8"/>
   </g>
   <g id="patch_21">
    <path d="M 162.528293 53.074267 
L 216.278898 53.074267 
L 216.278898 60.896133 
L 162.528293 60.896133 
z
" clip-path="url(#p7bd720f662)" style="fill: #4884af"/>
   </g>
   <g id="patch_22">
    <path d="M 162.528293 101.960933 
L 217.169967 101.960933 
L 217.169967 109.7828 
L 162.528293 109.7828 
z
" clip-path="url(#p7bd720f662)" style="fill: #4884af"/>
   </g>
   <g id="patch_23">
    <path d="M 162.528293 150.8476 
L 236.811692 150.8476 
L 236.811692 158.669467 
L 162.528293 158.669467 
z
" clip-path="url(#p7bd720f662)" style="fill: #4884af"/>
   </g>
   <g id="patch_24">
    <path d="M 162.528293 199.734267 
L 233.514734 199.734267 
L 233.514734 207.556133 
L 162.528293 207.556133 
z
" clip-path="url(#p7bd720f662)" style="fill: #4884af"/>
   </g>
   <g id="patch_25">
    <path d="M 162.528293 248.620933 
L 216.132508 248.620933 
L 216.132508 256.4428 
L 162.528293 256.4428 
z
" clip-path="url(#p7bd720f662)" style="fill: #4884af"/>
   </g>
   <g id="patch_26">
    <path d="M 162.528293 297.5076 
L 252.730018 297.5076 
L 252.730018 305.329467 
L 162.528293 305.329467 
z
" clip-path="url(#p7bd720f662)" style="fill: #4884af"/>
   </g>
   <g id="patch_27">
    <path d="M 162.528293 60.896133 
L 397.013318 60.896133 
L 397.013318 68.718 
L 162.528293 68.718 
z
" clip-path="url(#p7bd720f662)" style="fill: #225b91"/>
   </g>
   <g id="patch_28">
    <path d="M 162.528293 109.7828 
L 396.968765 109.7828 
L 396.968765 117.604667 
L 162.528293 117.604667 
z
" clip-path="url(#p7bd720f662)" style="fill: #225b91"/>
   </g>
   <g id="patch_29">
    <path d="M 162.528293 158.669467 
L 416.069483 158.669467 
L 416.069483 166.491333 
L 162.528293 166.491333 
z
" clip-path="url(#p7bd720f662)" style="fill: #225b91"/>
   </g>
   <g id="patch_30">
    <path d="M 162.528293 207.556133 
L 403.804543 207.556133 
L 403.804543 215.378 
L 162.528293 215.378 
z
" clip-path="url(#p7bd720f662)" style="fill: #225b91"/>
   </g>
   <g id="patch_31">
    <path d="M 162.528293 256.4428 
L 386.543248 256.4428 
L 386.543248 264.264667 
L 162.528293 264.264667 
z
" clip-path="url(#p7bd720f662)" style="fill: #225b91"/>
   </g>
   <g id="patch_32">
    <path d="M 162.528293 305.329467 
L 384.531976 305.329467 
L 384.531976 313.151333 
L 162.528293 313.151333 
z
" clip-path="url(#p7bd720f662)" style="fill: #225b91"/>
   </g>
   <g id="matplotlib.axis_1">
    <g id="xtick_1">
     <g id="line2d_1">
      <defs>
       <path id="m80cc87f710" d="M 0 0 
L 0 3.5 
" style="stroke: #000000; stroke-width: 0.8"/>
      </defs>
      <g>
       <use xlink:href="#m80cc87f710" x="162.528293" y="318.04" style="stroke: #000000; stroke-width: 0.8"/>
      </g>
     </g>
     <g id="text_1">
      <!-- 0 -->
      <g transform="translate(159.347043 332.638438) scale(0.1 -0.1)">
       <defs>
        <path id="DejaVuSans-30" d="M 2034 4250 
Q 1547 4250 1301 3770 
Q 1056 3291 1056 2328 
Q 1056 1369 1301 889 
Q 1547 409 2034 409 
Q 2525 409 2770 889 
Q 3016 1369 3016 2328 
Q 3016 3291 2770 3770 
Q 2525 4250 2034 4250 
z
M 2034 4750 
Q 2819 4750 3233 4129 
Q 3647 3509 3647 2328 
Q 3647 1150 3233 529 
Q 2819 -91 2034 -91 
Q 1250 -91 836 529 
Q 422 1150 422 2328 
Q 422 3509 836 4129 
Q 1250 4750 2034 4750 
z
" transform="scale(0.015625)"/>
       </defs>
       <use xlink:href="#DejaVuSans-30"/>
      </g>
     </g>
    </g>
    <g id="xtick_2">
     <g id="line2d_2">
      <g>
       <use xlink:href="#m80cc87f710" x="226.176138" y="318.04" style="stroke: #000000; stroke-width: 0.8"/>
      </g>
     </g>
     <g id="text_2">
      <!-- 50 -->
      <g transform="translate(219.813638 332.638438) scale(0.1 -0.1)">
       <defs>
        <path id="DejaVuSans-35" d="M 691 4666 
L 3169 4666 
L 3169 4134 
L 1269 4134 
L 1269 2991 
Q 1406 3038 1543 3061 
Q 1681 3084 1819 3084 
Q 2600 3084 3056 2656 
Q 3513 2228 3513 1497 
Q 3513 744 3044 326 
Q 2575 -91 1722 -91 
Q 1428 -91 1123 -41 
Q 819 9 494 109 
L 494 744 
Q 775 591 1075 516 
Q 1375 441 1709 441 
Q 2250 441 2565 725 
Q 2881 1009 2881 1497 
Q 2881 1984 2565 2268 
Q 2250 2553 1709 2553 
Q 1456 2553 1204 2497 
Q 953 2441 691 2322 
L 691 4666 
z
" transform="scale(0.015625)"/>
       </defs>
       <use xlink:href="#DejaVuSans-35"/>
       <use xlink:href="#DejaVuSans-30" transform="translate(63.623047 0)"/>
      </g>
     </g>
    </g>
    <g id="xtick_3">
     <g id="line2d_3">
      <g>
       <use xlink:href="#m80cc87f710" x="289.823983" y="318.04" style="stroke: #000000; stroke-width: 0.8"/>
      </g>
     </g>
     <g id="text_3">
      <!-- 100 -->
      <g transform="translate(280.280233 332.638438) scale(0.1 -0.1)">
       <defs>
        <path id="DejaVuSans-31" d="M 794 531 
L 1825 531 
L 1825 4091 
L 703 3866 
L 703 4441 
L 1819 4666 
L 2450 4666 
L 2450 531 
L 3481 531 
L 3481 0 
L 794 0 
L 794 531 
z
" transform="scale(0.015625)"/>
       </defs>
       <use xlink:href="#DejaVuSans-31"/>
       <use xlink:href="#DejaVuSans-30" transform="translate(63.623047 0)"/>
       <use xlink:href="#DejaVuSans-30" transform="translate(127.246094 0)"/>
      </g>
     </g>
    </g>
    <g id="xtick_4">
     <g id="line2d_4">
      <g>
       <use xlink:href="#m80cc87f710" x="353.471828" y="318.04" style="stroke: #000000; stroke-width: 0.8"/>
      </g>
     </g>
     <g id="text_4">
      <!-- 150 -->
      <g transform="translate(343.928078 332.638438) scale(0.1 -0.1)">
       <use xlink:href="#DejaVuSans-31"/>
       <use xlink:href="#DejaVuSans-35" transform="translate(63.623047 0)"/>
       <use xlink:href="#DejaVuSans-30" transform="translate(127.246094 0)"/>
      </g>
     </g>
    </g>
    <g id="xtick_5">
     <g id="line2d_5">
      <g>
       <use xlink:href="#m80cc87f710" x="417.119673" y="318.04" style="stroke: #000000; stroke-width: 0.8"/>
      </g>
     </g>
     <g id="text_5">
      <!-- 200 -->
      <g transform="translate(407.575923 332.638438) scale(0.1 -0.1)">
       <defs>
        <path id="DejaVuSans-32" d="M 1228 531 
L 3431 531 
L 3431 0 
L 469 0 
L 469 531 
Q 828 903 1448 1529 
Q 2069 2156 2228 2338 
Q 2531 2678 2651 2914 
Q 2772 3150 2772 3378 
Q 2772 3750 2511 3984 
Q 2250 4219 1831 4219 
Q 1534 4219 1204 4116 
Q 875 4013 500 3803 
L 500 4441 
Q 881 4594 1212 4672 
Q 1544 4750 1819 4750 
Q 2544 4750 2975 4387 
Q 3406 4025 3406 3419 
Q 3406 3131 3298 2873 
Q 3191 2616 2906 2266 
Q 2828 2175 2409 1742 
Q 1991 1309 1228 531 
z
" transform="scale(0.015625)"/>
       </defs>
       <use xlink:href="#DejaVuSans-32"/>
       <use xlink:href="#DejaVuSans-30" transform="translate(63.623047 0)"/>
       <use xlink:href="#DejaVuSans-30" transform="translate(127.246094 0)"/>
      </g>
     </g>
    </g>
    <g id="text_6">
     <!-- score -->
     <g transform="translate(282.819443 346.316563) scale(0.1 -0.1)">
      <defs>
       <path id="DejaVuSans-73" d="M 2834 3397 
L 2834 2853 
Q 2591 2978 2328 3040 
Q 2066 3103 1784 3103 
Q 1356 3103 1142 2972 
Q 928 2841 928 2578 
Q 928 2378 1081 2264 
Q 1234 2150 1697 2047 
L 1894 2003 
Q 2506 1872 2764 1633 
Q 3022 1394 3022 966 
Q 3022 478 2636 193 
Q 2250 -91 1575 -91 
Q 1294 -91 989 -36 
Q 684 19 347 128 
L 347 722 
Q 666 556 975 473 
Q 1284 391 1588 391 
Q 1994 391 2212 530 
Q 2431 669 2431 922 
Q 2431 1156 2273 1281 
Q 2116 1406 1581 1522 
L 1381 1569 
Q 847 1681 609 1914 
Q 372 2147 372 2553 
Q 372 3047 722 3315 
Q 1072 3584 1716 3584 
Q 2034 3584 2315 3537 
Q 2597 3491 2834 3397 
z
" transform="scale(0.015625)"/>
       <path id="DejaVuSans-63" d="M 3122 3366 
L 3122 2828 
Q 2878 2963 2633 3030 
Q 2388 3097 2138 3097 
Q 1578 3097 1268 2742 
Q 959 2388 959 1747 
Q 959 1106 1268 751 
Q 1578 397 2138 397 
Q 2388 397 2633 464 
Q 2878 531 3122 666 
L 3122 134 
Q 2881 22 2623 -34 
Q 2366 -91 2075 -91 
Q 1284 -91 818 406 
Q 353 903 353 1747 
Q 353 2603 823 3093 
Q 1294 3584 2113 3584 
Q 2378 3584 2631 3529 
Q 2884 3475 3122 3366 
z
" transform="scale(0.015625)"/>
       <path id="DejaVuSans-6f" d="M 1959 3097 
Q 1497 3097 1228 2736 
Q 959 2375 959 1747 
Q 959 1119 1226 758 
Q 1494 397 1959 397 
Q 2419 397 2687 759 
Q 2956 1122 2956 1747 
Q 2956 2369 2687 2733 
Q 2419 3097 1959 3097 
z
M 1959 3584 
Q 2709 3584 3137 3096 
Q 3566 2609 3566 1747 
Q 3566 888 3137 398 
Q 2709 -91 1959 -91 
Q 1206 -91 779 398 
Q 353 888 353 1747 
Q 353 2609 779 3096 
Q 1206 3584 1959 3584 
z
" transform="scale(0.015625)"/>
       <path id="DejaVuSans-72" d="M 2631 2963 
Q 2534 3019 2420 3045 
Q 2306 3072 2169 3072 
Q 1681 3072 1420 2755 
Q 1159 2438 1159 1844 
L 1159 0 
L 581 0 
L 581 3500 
L 1159 3500 
L 1159 2956 
Q 1341 3275 1631 3429 
Q 1922 3584 2338 3584 
Q 2397 3584 2469 3576 
Q 2541 3569 2628 3553 
L 2631 2963 
z
" transform="scale(0.015625)"/>
       <path id="DejaVuSans-65" d="M 3597 1894 
L 3597 1613 
L 953 1613 
Q 991 1019 1311 708 
Q 1631 397 2203 397 
Q 2534 397 2845 478 
Q 3156 559 3463 722 
L 3463 178 
Q 3153 47 2828 -22 
Q 2503 -91 2169 -91 
Q 1331 -91 842 396 
Q 353 884 353 1716 
Q 353 2575 817 3079 
Q 1281 3584 2069 3584 
Q 2775 3584 3186 3129 
Q 3597 2675 3597 1894 
z
M 3022 2063 
Q 3016 2534 2758 2815 
Q 2500 3097 2075 3097 
Q 1594 3097 1305 2825 
Q 1016 2553 972 2059 
L 3022 2063 
z
" transform="scale(0.015625)"/>
      </defs>
      <use xlink:href="#DejaVuSans-73"/>
      <use xlink:href="#DejaVuSans-63" transform="translate(52.099609 0)"/>
      <use xlink:href="#DejaVuSans-6f" transform="translate(107.080078 0)"/>
      <use xlink:href="#DejaVuSans-72" transform="translate(168.261719 0)"/>
      <use xlink:href="#DejaVuSans-65" transform="translate(207.125 0)"/>
     </g>
    </g>
   </g>
   <g id="matplotlib.axis_2">
    <g id="ytick_1">
     <g id="line2d_6">
      <defs>
       <path id="mc9ddefb7c4" d="M 0 0 
L -3.5 0 
" style="stroke: #000000; stroke-width: 0.8"/>
      </defs>
      <g>
       <use xlink:href="#mc9ddefb7c4" x="162.528293" y="49.163333" style="stroke: #000000; stroke-width: 0.8"/>
      </g>
     </g>
     <g id="text_7">
      <!-- gemma3:12b -->
      <g transform="translate(88.612668 52.962552) scale(0.1 -0.1)">
       <defs>
        <path id="DejaVuSans-67" d="M 2906 1791 
Q 2906 2416 2648 2759 
Q 2391 3103 1925 3103 
Q 1463 3103 1205 2759 
Q 947 2416 947 1791 
Q 947 1169 1205 825 
Q 1463 481 1925 481 
Q 2391 481 2648 825 
Q 2906 1169 2906 1791 
z
M 3481 434 
Q 3481 -459 3084 -895 
Q 2688 -1331 1869 -1331 
Q 1566 -1331 1297 -1286 
Q 1028 -1241 775 -1147 
L 775 -588 
Q 1028 -725 1275 -790 
Q 1522 -856 1778 -856 
Q 2344 -856 2625 -561 
Q 2906 -266 2906 331 
L 2906 616 
Q 2728 306 2450 153 
Q 2172 0 1784 0 
Q 1141 0 747 490 
Q 353 981 353 1791 
Q 353 2603 747 3093 
Q 1141 3584 1784 3584 
Q 2172 3584 2450 3431 
Q 2728 3278 2906 2969 
L 2906 3500 
L 3481 3500 
L 3481 434 
z
" transform="scale(0.015625)"/>
        <path id="DejaVuSans-6d" d="M 3328 2828 
Q 3544 3216 3844 3400 
Q 4144 3584 4550 3584 
Q 5097 3584 5394 3201 
Q 5691 2819 5691 2113 
L 5691 0 
L 5113 0 
L 5113 2094 
Q 5113 2597 4934 2840 
Q 4756 3084 4391 3084 
Q 3944 3084 3684 2787 
Q 3425 2491 3425 1978 
L 3425 0 
L 2847 0 
L 2847 2094 
Q 2847 2600 2669 2842 
Q 2491 3084 2119 3084 
Q 1678 3084 1418 2786 
Q 1159 2488 1159 1978 
L 1159 0 
L 581 0 
L 581 3500 
L 1159 3500 
L 1159 2956 
Q 1356 3278 1631 3431 
Q 1906 3584 2284 3584 
Q 2666 3584 2933 3390 
Q 3200 3197 3328 2828 
z
" transform="scale(0.015625)"/>
        <path id="DejaVuSans-61" d="M 2194 1759 
Q 1497 1759 1228 1600 
Q 959 1441 959 1056 
Q 959 750 1161 570 
Q 1363 391 1709 391 
Q 2188 391 2477 730 
Q 2766 1069 2766 1631 
L 2766 1759 
L 2194 1759 
z
M 3341 1997 
L 3341 0 
L 2766 0 
L 2766 531 
Q 2569 213 2275 61 
Q 1981 -91 1556 -91 
Q 1019 -91 701 211 
Q 384 513 384 1019 
Q 384 1609 779 1909 
Q 1175 2209 1959 2209 
L 2766 2209 
L 2766 2266 
Q 2766 2663 2505 2880 
Q 2244 3097 1772 3097 
Q 1472 3097 1187 3025 
Q 903 2953 641 2809 
L 641 3341 
Q 956 3463 1253 3523 
Q 1550 3584 1831 3584 
Q 2591 3584 2966 3190 
Q 3341 2797 3341 1997 
z
" transform="scale(0.015625)"/>
        <path id="DejaVuSans-33" d="M 2597 2516 
Q 3050 2419 3304 2112 
Q 3559 1806 3559 1356 
Q 3559 666 3084 287 
Q 2609 -91 1734 -91 
Q 1441 -91 1130 -33 
Q 819 25 488 141 
L 488 750 
Q 750 597 1062 519 
Q 1375 441 1716 441 
Q 2309 441 2620 675 
Q 2931 909 2931 1356 
Q 2931 1769 2642 2001 
Q 2353 2234 1838 2234 
L 1294 2234 
L 1294 2753 
L 1863 2753 
Q 2328 2753 2575 2939 
Q 2822 3125 2822 3475 
Q 2822 3834 2567 4026 
Q 2313 4219 1838 4219 
Q 1578 4219 1281 4162 
Q 984 4106 628 3988 
L 628 4550 
Q 988 4650 1302 4700 
Q 1616 4750 1894 4750 
Q 2613 4750 3031 4423 
Q 3450 4097 3450 3541 
Q 3450 3153 3228 2886 
Q 3006 2619 2597 2516 
z
" transform="scale(0.015625)"/>
        <path id="DejaVuSans-3a" d="M 750 794 
L 1409 794 
L 1409 0 
L 750 0 
L 750 794 
z
M 750 3309 
L 1409 3309 
L 1409 2516 
L 750 2516 
L 750 3309 
z
" transform="scale(0.015625)"/>
        <path id="DejaVuSans-62" d="M 3116 1747 
Q 3116 2381 2855 2742 
Q 2594 3103 2138 3103 
Q 1681 3103 1420 2742 
Q 1159 2381 1159 1747 
Q 1159 1113 1420 752 
Q 1681 391 2138 391 
Q 2594 391 2855 752 
Q 3116 1113 3116 1747 
z
M 1159 2969 
Q 1341 3281 1617 3432 
Q 1894 3584 2278 3584 
Q 2916 3584 3314 3078 
Q 3713 2572 3713 1747 
Q 3713 922 3314 415 
Q 2916 -91 2278 -91 
Q 1894 -91 1617 61 
Q 1341 213 1159 525 
L 1159 0 
L 581 0 
L 581 4863 
L 1159 4863 
L 1159 2969 
z
" transform="scale(0.015625)"/>
       </defs>
       <use xlink:href="#DejaVuSans-67"/>
       <use xlink:href="#DejaVuSans-65" transform="translate(63.476562 0)"/>
       <use xlink:href="#DejaVuSans-6d" transform="translate(125 0)"/>
       <use xlink:href="#DejaVuSans-6d" transform="translate(222.412109 0)"/>
       <use xlink:href="#DejaVuSans-61" transform="translate(319.824219 0)"/>
       <use xlink:href="#DejaVuSans-33" transform="translate(381.103516 0)"/>
       <use xlink:href="#DejaVuSans-3a" transform="translate(444.726562 0)"/>
       <use xlink:href="#DejaVuSans-31" transform="translate(478.417969 0)"/>
       <use xlink:href="#DejaVuSans-32" transform="translate(542.041016 0)"/>
       <use xlink:href="#DejaVuSans-62" transform="translate(605.664062 0)"/>
      </g>
     </g>
    </g>
    <g id="ytick_2">
     <g id="line2d_7">
      <g>
       <use xlink:href="#mc9ddefb7c4" x="162.528293" y="98.05" style="stroke: #000000; stroke-width: 0.8"/>
      </g>
     </g>
     <g id="text_8">
      <!-- gemma3:12b-it-qat -->
      <g transform="translate(58.30173 101.849219) scale(0.1 -0.1)">
       <defs>
        <path id="DejaVuSans-2d" d="M 313 2009 
L 1997 2009 
L 1997 1497 
L 313 1497 
L 313 2009 
z
" transform="scale(0.015625)"/>
        <path id="DejaVuSans-69" d="M 603 3500 
L 1178 3500 
L 1178 0 
L 603 0 
L 603 3500 
z
M 603 4863 
L 1178 4863 
L 1178 4134 
L 603 4134 
L 603 4863 
z
" transform="scale(0.015625)"/>
        <path id="DejaVuSans-74" d="M 1172 4494 
L 1172 3500 
L 2356 3500 
L 2356 3053 
L 1172 3053 
L 1172 1153 
Q 1172 725 1289 603 
Q 1406 481 1766 481 
L 2356 481 
L 2356 0 
L 1766 0 
Q 1100 0 847 248 
Q 594 497 594 1153 
L 594 3053 
L 172 3053 
L 172 3500 
L 594 3500 
L 594 4494 
L 1172 4494 
z
" transform="scale(0.015625)"/>
        <path id="DejaVuSans-71" d="M 947 1747 
Q 947 1113 1208 752 
Q 1469 391 1925 391 
Q 2381 391 2643 752 
Q 2906 1113 2906 1747 
Q 2906 2381 2643 2742 
Q 2381 3103 1925 3103 
Q 1469 3103 1208 2742 
Q 947 2381 947 1747 
z
M 2906 525 
Q 2725 213 2448 61 
Q 2172 -91 1784 -91 
Q 1150 -91 751 415 
Q 353 922 353 1747 
Q 353 2572 751 3078 
Q 1150 3584 1784 3584 
Q 2172 3584 2448 3432 
Q 2725 3281 2906 2969 
L 2906 3500 
L 3481 3500 
L 3481 -1331 
L 2906 -1331 
L 2906 525 
z
" transform="scale(0.015625)"/>
       </defs>
       <use xlink:href="#DejaVuSans-67"/>
       <use xlink:href="#DejaVuSans-65" transform="translate(63.476562 0)"/>
       <use xlink:href="#DejaVuSans-6d" transform="translate(125 0)"/>
       <use xlink:href="#DejaVuSans-6d" transform="translate(222.412109 0)"/>
       <use xlink:href="#DejaVuSans-61" transform="translate(319.824219 0)"/>
       <use xlink:href="#DejaVuSans-33" transform="translate(381.103516 0)"/>
       <use xlink:href="#DejaVuSans-3a" transform="translate(444.726562 0)"/>
       <use xlink:href="#DejaVuSans-31" transform="translate(478.417969 0)"/>
       <use xlink:href="#DejaVuSans-32" transform="translate(542.041016 0)"/>
       <use xlink:href="#DejaVuSans-62" transform="translate(605.664062 0)"/>
       <use xlink:href="#DejaVuSans-2d" transform="translate(669.140625 0)"/>
       <use xlink:href="#DejaVuSans-69" transform="translate(705.224609 0)"/>
       <use xlink:href="#DejaVuSans-74" transform="translate(733.007812 0)"/>
       <use xlink:href="#DejaVuSans-2d" transform="translate(772.216797 0)"/>
       <use xlink:href="#DejaVuSans-71" transform="translate(808.300781 0)"/>
       <use xlink:href="#DejaVuSans-61" transform="translate(871.777344 0)"/>
       <use xlink:href="#DejaVuSans-74" transform="translate(933.056641 0)"/>
      </g>
     </g>
    </g>
    <g id="ytick_3">
     <g id="line2d_8">
      <g>
       <use xlink:href="#mc9ddefb7c4" x="162.528293" y="146.936667" style="stroke: #000000; stroke-width: 0.8"/>
      </g>
     </g>
     <g id="text_9">
      <!-- gemma3:27b -->
      <g transform="translate(88.612668 150.735885) scale(0.1 -0.1)">
       <defs>
        <path id="DejaVuSans-37" d="M 525 4666 
L 3525 4666 
L 3525 4397 
L 1831 0 
L 1172 0 
L 2766 4134 
L 525 4134 
L 525 4666 
z
" transform="scale(0.015625)"/>
       </defs>
       <use xlink:href="#DejaVuSans-67"/>
       <use xlink:href="#DejaVuSans-65" transform="translate(63.476562 0)"/>
       <use xlink:href="#DejaVuSans-6d" transform="translate(125 0)"/>
       <use xlink:href="#DejaVuSans-6d" transform="translate(222.412109 0)"/>
       <use xlink:href="#DejaVuSans-61" transform="translate(319.824219 0)"/>
       <use xlink:href="#DejaVuSans-33" transform="translate(381.103516 0)"/>
       <use xlink:href="#DejaVuSans-3a" transform="translate(444.726562 0)"/>
       <use xlink:href="#DejaVuSans-32" transform="translate(478.417969 0)"/>
       <use xlink:href="#DejaVuSans-37" transform="translate(542.041016 0)"/>
       <use xlink:href="#DejaVuSans-62" transform="translate(605.664062 0)"/>
      </g>
     </g>
    </g>
    <g id="ytick_4">
     <g id="line2d_9">
      <g>
       <use xlink:href="#mc9ddefb7c4" x="162.528293" y="195.823333" style="stroke: #000000; stroke-width: 0.8"/>
      </g>
     </g>
     <g id="text_10">
      <!-- gemma3:27b-it-qat -->
      <g transform="translate(58.30173 199.622552) scale(0.1 -0.1)">
       <use xlink:href="#DejaVuSans-67"/>
       <use xlink:href="#DejaVuSans-65" transform="translate(63.476562 0)"/>
       <use xlink:href="#DejaVuSans-6d" transform="translate(125 0)"/>
       <use xlink:href="#DejaVuSans-6d" transform="translate(222.412109 0)"/>
       <use xlink:href="#DejaVuSans-61" transform="translate(319.824219 0)"/>
       <use xlink:href="#DejaVuSans-33" transform="translate(381.103516 0)"/>
       <use xlink:href="#DejaVuSans-3a" transform="translate(444.726562 0)"/>
       <use xlink:href="#DejaVuSans-32" transform="translate(478.417969 0)"/>
       <use xlink:href="#DejaVuSans-37" transform="translate(542.041016 0)"/>
       <use xlink:href="#DejaVuSans-62" transform="translate(605.664062 0)"/>
       <use xlink:href="#DejaVuSans-2d" transform="translate(669.140625 0)"/>
       <use xlink:href="#DejaVuSans-69" transform="translate(705.224609 0)"/>
       <use xlink:href="#DejaVuSans-74" transform="translate(733.007812 0)"/>
       <use xlink:href="#DejaVuSans-2d" transform="translate(772.216797 0)"/>
       <use xlink:href="#DejaVuSans-71" transform="translate(808.300781 0)"/>
       <use xlink:href="#DejaVuSans-61" transform="translate(871.777344 0)"/>
       <use xlink:href="#DejaVuSans-74" transform="translate(933.056641 0)"/>
      </g>
     </g>
    </g>
    <g id="ytick_5">
     <g id="line2d_10">
      <g>
       <use xlink:href="#mc9ddefb7c4" x="162.528293" y="244.71" style="stroke: #000000; stroke-width: 0.8"/>
      </g>
     </g>
     <g id="text_11">
      <!-- llama3.3:70b -->
      <g transform="translate(89.629855 248.509219) scale(0.1 -0.1)">
       <defs>
        <path id="DejaVuSans-6c" d="M 603 4863 
L 1178 4863 
L 1178 0 
L 603 0 
L 603 4863 
z
" transform="scale(0.015625)"/>
        <path id="DejaVuSans-2e" d="M 684 794 
L 1344 794 
L 1344 0 
L 684 0 
L 684 794 
z
" transform="scale(0.015625)"/>
       </defs>
       <use xlink:href="#DejaVuSans-6c"/>
       <use xlink:href="#DejaVuSans-6c" transform="translate(27.783203 0)"/>
       <use xlink:href="#DejaVuSans-61" transform="translate(55.566406 0)"/>
       <use xlink:href="#DejaVuSans-6d" transform="translate(116.845703 0)"/>
       <use xlink:href="#DejaVuSans-61" transform="translate(214.257812 0)"/>
       <use xlink:href="#DejaVuSans-33" transform="translate(275.537109 0)"/>
       <use xlink:href="#DejaVuSans-2e" transform="translate(339.160156 0)"/>
       <use xlink:href="#DejaVuSans-33" transform="translate(370.947266 0)"/>
       <use xlink:href="#DejaVuSans-3a" transform="translate(434.570312 0)"/>
       <use xlink:href="#DejaVuSans-37" transform="translate(468.261719 0)"/>
       <use xlink:href="#DejaVuSans-30" transform="translate(531.884766 0)"/>
       <use xlink:href="#DejaVuSans-62" transform="translate(595.507812 0)"/>
      </g>
     </g>
    </g>
    <g id="ytick_6">
     <g id="line2d_11">
      <g>
       <use xlink:href="#mc9ddefb7c4" x="162.528293" y="293.596667" style="stroke: #000000; stroke-width: 0.8"/>
      </g>
     </g>
     <g id="text_12">
      <!-- llama4:scout -->
      <g transform="translate(91.159543 297.395885) scale(0.1 -0.1)">
       <defs>
        <path id="DejaVuSans-34" d="M 2419 4116 
L 825 1625 
L 2419 1625 
L 2419 4116 
z
M 2253 4666 
L 3047 4666 
L 3047 1625 
L 3713 1625 
L 3713 1100 
L 3047 1100 
L 3047 0 
L 2419 0 
L 2419 1100 
L 313 1100 
L 313 1709 
L 2253 4666 
z
" transform="scale(0.015625)"/>
        <path id="DejaVuSans-75" d="M 544 1381 
L 544 3500 
L 1119 3500 
L 1119 1403 
Q 1119 906 1312 657 
Q 1506 409 1894 409 
Q 2359 409 2629 706 
Q 2900 1003 2900 1516 
L 2900 3500 
L 3475 3500 
L 3475 0 
L 2900 0 
L 2900 538 
Q 2691 219 2414 64 
Q 2138 -91 1772 -91 
Q 1169 -91 856 284 
Q 544 659 544 1381 
z
M 1991 3584 
L 1991 3584 
z
" transform="scale(0.015625)"/>
       </defs>
       <use xlink:href="#DejaVuSans-6c"/>
       <use xlink:href="#DejaVuSans-6c" transform="translate(27.783203 0)"/>
       <use xlink:href="#DejaVuSans-61" transform="translate(55.566406 0)"/>
       <use xlink:href="#DejaVuSans-6d" transform="translate(116.845703 0)"/>
       <use xlink:href="#DejaVuSans-61" transform="translate(214.257812 0)"/>
       <use xlink:href="#DejaVuSans-34" transform="translate(275.537109 0)"/>
       <use xlink:href="#DejaVuSans-3a" transform="translate(339.160156 0)"/>
       <use xlink:href="#DejaVuSans-73" transform="translate(372.851562 0)"/>
       <use xlink:href="#DejaVuSans-63" transform="translate(424.951172 0)"/>
       <use xlink:href="#DejaVuSans-6f" transform="translate(479.931641 0)"/>
       <use xlink:href="#DejaVuSans-75" transform="translate(541.113281 0)"/>
       <use xlink:href="#DejaVuSans-74" transform="translate(604.492188 0)"/>
      </g>
     </g>
    </g>
    <g id="text_13">
     <!-- model -->
     <g transform="translate(52.222043 186.949531) rotate(-90) scale(0.1 -0.1)">
      <defs>
       <path id="DejaVuSans-64" d="M 2906 2969 
L 2906 4863 
L 3481 4863 
L 3481 0 
L 2906 0 
L 2906 525 
Q 2725 213 2448 61 
Q 2172 -91 1784 -91 
Q 1150 -91 751 415 
Q 353 922 353 1747 
Q 353 2572 751 3078 
Q 1150 3584 1784 3584 
Q 2172 3584 2448 3432 
Q 2725 3281 2906 2969 
z
M 947 1747 
Q 947 1113 1208 752 
Q 1469 391 1925 391 
Q 2381 391 2643 752 
Q 2906 1113 2906 1747 
Q 2906 2381 2643 2742 
Q 2381 3103 1925 3103 
Q 1469 3103 1208 2742 
Q 947 2381 947 1747 
z
" transform="scale(0.015625)"/>
      </defs>
      <use xlink:href="#DejaVuSans-6d"/>
      <use xlink:href="#DejaVuSans-6f" transform="translate(97.412109 0)"/>
      <use xlink:href="#DejaVuSans-64" transform="translate(158.59375 0)"/>
      <use xlink:href="#DejaVuSans-65" transform="translate(222.070312 0)"/>
      <use xlink:href="#DejaVuSans-6c" transform="translate(283.59375 0)"/>
     </g>
    </g>
   </g>
   <g id="line2d_12">
    <path d="M 332.111133 33.5196 
L 338.712211 33.5196 
" clip-path="url(#p7bd720f662)" style="fill: none; stroke: #424242; stroke-width: 2.25; stroke-linecap: square"/>
   </g>
   <g id="line2d_13">
    <path d="M 335.644066 82.406267 
L 341.577637 82.406267 
" clip-path="url(#p7bd720f662)" style="fill: none; stroke: #424242; stroke-width: 2.25; stroke-linecap: square"/>
   </g>
   <g id="line2d_14">
    <path d="M 368.675866 131.292933 
L 373.75751 131.292933 
" clip-path="url(#p7bd720f662)" style="fill: none; stroke: #424242; stroke-width: 2.25; stroke-linecap: square"/>
   </g>
   <g id="line2d_15">
    <path d="M 365.819191 180.1796 
L 369.600828 180.1796 
" clip-path="url(#p7bd720f662)" style="fill: none; stroke: #424242; stroke-width: 2.25; stroke-linecap: square"/>
   </g>
   <g id="line2d_16">
    <path d="M 351.485856 229.066267 
L 354.943525 229.066267 
" clip-path="url(#p7bd720f662)" style="fill: none; stroke: #424242; stroke-width: 2.25; stroke-linecap: square"/>
   </g>
   <g id="line2d_17">
    <path d="M 377.60709 277.952933 
L 378.517255 277.952933 
" clip-path="url(#p7bd720f662)" style="fill: none; stroke: #424242; stroke-width: 2.25; stroke-linecap: square"/>
   </g>
   <g id="line2d_18">
    <path d="M 331.328424 41.341467 
L 333.302144 41.341467 
" clip-path="url(#p7bd720f662)" style="fill: none; stroke: #424242; stroke-width: 2.25; stroke-linecap: square"/>
   </g>
   <g id="line2d_19">
    <path d="M 332.607428 90.228133 
L 334.95667 90.228133 
" clip-path="url(#p7bd720f662)" style="fill: none; stroke: #424242; stroke-width: 2.25; stroke-linecap: square"/>
   </g>
   <g id="line2d_20">
    <path d="M 343.116164 139.1148 
L 344.771326 139.1148 
" clip-path="url(#p7bd720f662)" style="fill: none; stroke: #424242; stroke-width: 2.25; stroke-linecap: square"/>
   </g>
   <g id="line2d_21">
    <path d="M 342.371484 188.001467 
L 343.976206 188.001467 
" clip-path="url(#p7bd720f662)" style="fill: none; stroke: #424242; stroke-width: 2.25; stroke-linecap: square"/>
   </g>
   <g id="line2d_22">
    <path d="M 320.731376 236.888133 
L 321.730806 236.888133 
" clip-path="url(#p7bd720f662)" style="fill: none; stroke: #424242; stroke-width: 2.25; stroke-linecap: square"/>
   </g>
   <g id="line2d_23">
    <path d="M 363.464539 285.7748 
L 365.686008 285.7748 
" clip-path="url(#p7bd720f662)" style="fill: none; stroke: #424242; stroke-width: 2.25; stroke-linecap: square"/>
   </g>
   <g id="line2d_24">
    <path d="M 179.891106 49.163333 
L 182.99187 49.163333 
" clip-path="url(#p7bd720f662)" style="fill: none; stroke: #424242; stroke-width: 2.25; stroke-linecap: square"/>
   </g>
   <g id="line2d_25">
    <path d="M 174.048393 98.05 
L 176.486583 98.05 
" clip-path="url(#p7bd720f662)" style="fill: none; stroke: #424242; stroke-width: 2.25; stroke-linecap: square"/>
   </g>
   <g id="line2d_26">
    <path d="M 241.40643 146.936667 
L 246.792152 146.936667 
" clip-path="url(#p7bd720f662)" style="fill: none; stroke: #424242; stroke-width: 2.25; stroke-linecap: square"/>
   </g>
   <g id="line2d_27">
    <path d="M 212.006854 195.823333 
L 215.788809 195.823333 
" clip-path="url(#p7bd720f662)" style="fill: none; stroke: #424242; stroke-width: 2.25; stroke-linecap: square"/>
   </g>
   <g id="line2d_28">
    <path d="M 162.528293 244.71 
L 162.986557 244.71 
" clip-path="url(#p7bd720f662)" style="fill: none; stroke: #424242; stroke-width: 2.25; stroke-linecap: square"/>
   </g>
   <g id="line2d_29">
    <path d="M 175.867449 293.596667 
L 181.61644 293.596667 
" clip-path="url(#p7bd720f662)" style="fill: none; stroke: #424242; stroke-width: 2.25; stroke-linecap: square"/>
   </g>
   <g id="line2d_30">
    <path d="M 215.992323 56.9852 
L 216.552742 56.9852 
" clip-path="url(#p7bd720f662)" style="fill: none; stroke: #424242; stroke-width: 2.25; stroke-linecap: square"/>
   </g>
   <g id="line2d_31">
    <path d="M 216.705179 105.871867 
L 217.685674 105.871867 
" clip-path="url(#p7bd720f662)" style="fill: none; stroke: #424242; stroke-width: 2.25; stroke-linecap: square"/>
   </g>
   <g id="line2d_32">
    <path d="M 235.75482 154.758533 
L 237.823852 154.758533 
" clip-path="url(#p7bd720f662)" style="fill: none; stroke: #424242; stroke-width: 2.25; stroke-linecap: square"/>
   </g>
   <g id="line2d_33">
    <path d="M 232.782307 203.6452 
L 234.221384 203.6452 
" clip-path="url(#p7bd720f662)" style="fill: none; stroke: #424242; stroke-width: 2.25; stroke-linecap: square"/>
   </g>
   <g id="line2d_34">
    <path d="M 216.017941 252.531867 
L 216.297992 252.531867 
" clip-path="url(#p7bd720f662)" style="fill: none; stroke: #424242; stroke-width: 2.25; stroke-linecap: square"/>
   </g>
   <g id="line2d_35">
    <path d="M 249.482705 301.418533 
L 256.084419 301.418533 
" clip-path="url(#p7bd720f662)" style="fill: none; stroke: #424242; stroke-width: 2.25; stroke-linecap: square"/>
   </g>
   <g id="line2d_36">
    <path d="M 396.319557 64.807067 
L 397.675415 64.807067 
" clip-path="url(#p7bd720f662)" style="fill: none; stroke: #424242; stroke-width: 2.25; stroke-linecap: square"/>
   </g>
   <g id="line2d_37">
    <path d="M 396.140866 113.693733 
L 397.707239 113.693733 
" clip-path="url(#p7bd720f662)" style="fill: none; stroke: #424242; stroke-width: 2.25; stroke-linecap: square"/>
   </g>
   <g id="line2d_38">
    <path d="M 414.847445 162.5804 
L 417.240604 162.5804 
" clip-path="url(#p7bd720f662)" style="fill: none; stroke: #424242; stroke-width: 2.25; stroke-linecap: square"/>
   </g>
   <g id="line2d_39">
    <path d="M 403.257172 211.467067 
L 404.364804 211.467067 
" clip-path="url(#p7bd720f662)" style="fill: none; stroke: #424242; stroke-width: 2.25; stroke-linecap: square"/>
   </g>
   <g id="line2d_40">
    <path d="M 385.836598 260.353733 
L 387.256263 260.353733 
" clip-path="url(#p7bd720f662)" style="fill: none; stroke: #424242; stroke-width: 2.25; stroke-linecap: square"/>
   </g>
   <g id="line2d_41">
    <path d="M 383.297208 309.2404 
L 385.627355 309.2404 
" clip-path="url(#p7bd720f662)" style="fill: none; stroke: #424242; stroke-width: 2.25; stroke-linecap: square"/>
   </g>
   <g id="patch_33">
    <path d="M 162.528293 318.04 
L 162.528293 24.72 
" style="fill: none; stroke: #000000; stroke-width: 0.8; stroke-linejoin: miter; stroke-linecap: square"/>
   </g>
   <g id="patch_34">
    <path d="M 162.528293 318.04 
L 429.976219 318.04 
" style="fill: none; stroke: #000000; stroke-width: 0.8; stroke-linejoin: miter; stroke-linecap: square"/>
   </g>
   <g id="text_14">
    <!-- task = psiq_independent_item -->
    <g transform="translate(220.113975 18.72) scale(0.1 -0.1)">
     <defs>
      <path id="DejaVuSans-6b" d="M 581 4863 
L 1159 4863 
L 1159 1991 
L 2875 3500 
L 3609 3500 
L 1753 1863 
L 3688 0 
L 2938 0 
L 1159 1709 
L 1159 0 
L 581 0 
L 581 4863 
z
" transform="scale(0.015625)"/>
      <path id="DejaVuSans-20" transform="scale(0.015625)"/>
      <path id="DejaVuSans-3d" d="M 678 2906 
L 4684 2906 
L 4684 2381 
L 678 2381 
L 678 2906 
z
M 678 1631 
L 4684 1631 
L 4684 1100 
L 678 1100 
L 678 1631 
z
" transform="scale(0.015625)"/>
      <path id="DejaVuSans-70" d="M 1159 525 
L 1159 -1331 
L 581 -1331 
L 581 3500 
L 1159 3500 
L 1159 2969 
Q 1341 3281 1617 3432 
Q 1894 3584 2278 3584 
Q 2916 3584 3314 3078 
Q 3713 2572 3713 1747 
Q 3713 922 3314 415 
Q 2916 -91 2278 -91 
Q 1894 -91 1617 61 
Q 1341 213 1159 525 
z
M 3116 1747 
Q 3116 2381 2855 2742 
Q 2594 3103 2138 3103 
Q 1681 3103 1420 2742 
Q 1159 2381 1159 1747 
Q 1159 1113 1420 752 
Q 1681 391 2138 391 
Q 2594 391 2855 752 
Q 3116 1113 3116 1747 
z
" transform="scale(0.015625)"/>
      <path id="DejaVuSans-5f" d="M 3263 -1063 
L 3263 -1509 
L -63 -1509 
L -63 -1063 
L 3263 -1063 
z
" transform="scale(0.015625)"/>
      <path id="DejaVuSans-6e" d="M 3513 2113 
L 3513 0 
L 2938 0 
L 2938 2094 
Q 2938 2591 2744 2837 
Q 2550 3084 2163 3084 
Q 1697 3084 1428 2787 
Q 1159 2491 1159 1978 
L 1159 0 
L 581 0 
L 581 3500 
L 1159 3500 
L 1159 2956 
Q 1366 3272 1645 3428 
Q 1925 3584 2291 3584 
Q 2894 3584 3203 3211 
Q 3513 2838 3513 2113 
z
" transform="scale(0.015625)"/>
     </defs>
     <use xlink:href="#DejaVuSans-74"/>
     <use xlink:href="#DejaVuSans-61" transform="translate(39.208984 0)"/>
     <use xlink:href="#DejaVuSans-73" transform="translate(100.488281 0)"/>
     <use xlink:href="#DejaVuSans-6b" transform="translate(152.587891 0)"/>
     <use xlink:href="#DejaVuSans-20" transform="translate(210.498047 0)"/>
     <use xlink:href="#DejaVuSans-3d" transform="translate(242.285156 0)"/>
     <use xlink:href="#DejaVuSans-20" transform="translate(326.074219 0)"/>
     <use xlink:href="#DejaVuSans-70" transform="translate(357.861328 0)"/>
     <use xlink:href="#DejaVuSans-73" transform="translate(421.337891 0)"/>
     <use xlink:href="#DejaVuSans-69" transform="translate(473.4375 0)"/>
     <use xlink:href="#DejaVuSans-71" transform="translate(501.220703 0)"/>
     <use xlink:href="#DejaVuSans-5f" transform="translate(564.697266 0)"/>
     <use xlink:href="#DejaVuSans-69" transform="translate(614.697266 0)"/>
     <use xlink:href="#DejaVuSans-6e" transform="translate(642.480469 0)"/>
     <use xlink:href="#DejaVuSans-64" transform="translate(705.859375 0)"/>
     <use xlink:href="#DejaVuSans-65" transform="translate(769.335938 0)"/>
     <use xlink:href="#DejaVuSans-70" transform="translate(830.859375 0)"/>
     <use xlink:href="#DejaVuSans-65" transform="translate(894.335938 0)"/>
     <use xlink:href="#DejaVuSans-6e" transform="translate(955.859375 0)"/>
     <use xlink:href="#DejaVuSans-64" transform="translate(1019.238281 0)"/>
     <use xlink:href="#DejaVuSans-65" transform="translate(1082.714844 0)"/>
     <use xlink:href="#DejaVuSans-6e" transform="translate(1144.238281 0)"/>
     <use xlink:href="#DejaVuSans-74" transform="translate(1207.617188 0)"/>
     <use xlink:href="#DejaVuSans-5f" transform="translate(1246.826172 0)"/>
     <use xlink:href="#DejaVuSans-69" transform="translate(1296.826172 0)"/>
     <use xlink:href="#DejaVuSans-74" transform="translate(1324.609375 0)"/>
     <use xlink:href="#DejaVuSans-65" transform="translate(1363.818359 0)"/>
     <use xlink:href="#DejaVuSans-6d" transform="translate(1425.341797 0)"/>
    </g>
   </g>
  </g>
  <g id="axes_2">
   <g id="patch_35">
    <path d="M 443.498973 318.04 
L 710.9469 318.04 
L 710.9469 24.72 
L 443.498973 24.72 
z
" style="fill: #ffffff"/>
   </g>
   <g id="patch_36">
    <path d="M 443.498973 29.608667 
L 637.752196 29.608667 
L 637.752196 37.430533 
L 443.498973 37.430533 
z
" clip-path="url(#p23a4178e67)" style="fill: #dae6f1"/>
   </g>
   <g id="patch_37">
    <path d="M 443.498973 78.495333 
L 652.932207 78.495333 
L 652.932207 86.3172 
L 443.498973 86.3172 
z
" clip-path="url(#p23a4178e67)" style="fill: #dae6f1"/>
   </g>
   <g id="patch_38">
    <path d="M 443.498973 127.382 
L 656.884739 127.382 
L 656.884739 135.203867 
L 443.498973 135.203867 
z
" clip-path="url(#p23a4178e67)" style="fill: #dae6f1"/>
   </g>
   <g id="patch_39">
    <path d="M 443.498973 176.268667 
L 655.019857 176.268667 
L 655.019857 184.090533 
L 443.498973 184.090533 
z
" clip-path="url(#p23a4178e67)" style="fill: #dae6f1"/>
   </g>
   <g id="patch_40">
    <path d="M 443.498973 225.155333 
L 655.248989 225.155333 
L 655.248989 232.9772 
L 443.498973 232.9772 
z
" clip-path="url(#p23a4178e67)" style="fill: #dae6f1"/>
   </g>
   <g id="patch_41">
    <path d="M 443.498973 274.042 
L 663.586857 274.042 
L 663.586857 281.863867 
L 443.498973 281.863867 
z
" clip-path="url(#p23a4178e67)" style="fill: #dae6f1"/>
   </g>
   <g id="patch_42">
    <path d="M 443.498973 37.430533 
L 623.647834 37.430533 
L 623.647834 45.2524 
L 443.498973 45.2524 
z
" clip-path="url(#p23a4178e67)" style="fill: #b3cede"/>
   </g>
   <g id="patch_43">
    <path d="M 443.498973 86.3172 
L 639.381581 86.3172 
L 639.381581 94.139067 
L 443.498973 94.139067 
z
" clip-path="url(#p23a4178e67)" style="fill: #b3cede"/>
   </g>
   <g id="patch_44">
    <path d="M 443.498973 135.203867 
L 643.932402 135.203867 
L 643.932402 143.025733 
L 443.498973 143.025733 
z
" clip-path="url(#p23a4178e67)" style="fill: #b3cede"/>
   </g>
   <g id="patch_45">
    <path d="M 443.498973 184.090533 
L 642.23937 184.090533 
L 642.23937 191.9124 
L 443.498973 191.9124 
z
" clip-path="url(#p23a4178e67)" style="fill: #b3cede"/>
   </g>
   <g id="patch_46">
    <path d="M 443.498973 232.9772 
L 623.285041 232.9772 
L 623.285041 240.799067 
L 443.498973 240.799067 
z
" clip-path="url(#p23a4178e67)" style="fill: #b3cede"/>
   </g>
   <g id="patch_47">
    <path d="M 443.498973 281.863867 
L 657.406651 281.863867 
L 657.406651 289.685733 
L 443.498973 289.685733 
z
" clip-path="url(#p23a4178e67)" style="fill: #b3cede"/>
   </g>
   <g id="patch_48">
    <path d="M 443.498973 45.2524 
L 480.860258 45.2524 
L 480.860258 53.074267 
L 443.498973 53.074267 
z
" clip-path="url(#p23a4178e67)" style="fill: #78aac8"/>
   </g>
   <g id="patch_49">
    <path d="M 443.498973 94.139067 
L 483.756235 94.139067 
L 483.756235 101.960933 
L 443.498973 101.960933 
z
" clip-path="url(#p23a4178e67)" style="fill: #78aac8"/>
   </g>
   <g id="patch_50">
    <path d="M 443.498973 143.025733 
L 494.703665 143.025733 
L 494.703665 150.8476 
L 443.498973 150.8476 
z
" clip-path="url(#p23a4178e67)" style="fill: #78aac8"/>
   </g>
   <g id="patch_51">
    <path d="M 443.498973 191.9124 
L 563.417878 191.9124 
L 563.417878 199.734267 
L 443.498973 199.734267 
z
" clip-path="url(#p23a4178e67)" style="fill: #78aac8"/>
   </g>
   <g id="patch_52">
    <path d="M 443.498973 240.799067 
L 446.39495 240.799067 
L 446.39495 248.620933 
L 443.498973 248.620933 
z
" clip-path="url(#p23a4178e67)" style="fill: #78aac8"/>
   </g>
   <g id="patch_53">
    <path d="M 443.498973 289.685733 
L 444.390043 289.685733 
L 444.390043 297.5076 
L 443.498973 297.5076 
z
" clip-path="url(#p23a4178e67)" style="fill: #78aac8"/>
   </g>
   <g id="patch_54">
    <path d="M 443.498973 53.074267 
L 549.434447 53.074267 
L 549.434447 60.896133 
L 443.498973 60.896133 
z
" clip-path="url(#p23a4178e67)" style="fill: #4884af"/>
   </g>
   <g id="patch_55">
    <path d="M 443.498973 101.960933 
L 574.161634 101.960933 
L 574.161634 109.7828 
L 443.498973 109.7828 
z
" clip-path="url(#p23a4178e67)" style="fill: #4884af"/>
   </g>
   <g id="patch_56">
    <path d="M 443.498973 150.8476 
L 586.197442 150.8476 
L 586.197442 158.669467 
L 443.498973 158.669467 
z
" clip-path="url(#p23a4178e67)" style="fill: #4884af"/>
   </g>
   <g id="patch_57">
    <path d="M 443.498973 199.734267 
L 580.494595 199.734267 
L 580.494595 207.556133 
L 443.498973 207.556133 
z
" clip-path="url(#p23a4178e67)" style="fill: #4884af"/>
   </g>
   <g id="patch_58">
    <path d="M 443.498973 248.620933 
L 492.030455 248.620933 
L 492.030455 256.4428 
L 443.498973 256.4428 
z
" clip-path="url(#p23a4178e67)" style="fill: #4884af"/>
   </g>
   <g id="patch_59">
    <path d="M 443.498973 297.5076 
L 528.5134 297.5076 
L 528.5134 305.329467 
L 443.498973 305.329467 
z
" clip-path="url(#p23a4178e67)" style="fill: #4884af"/>
   </g>
   <g id="patch_60">
    <path d="M 443.498973 60.896133 
L 655.732713 60.896133 
L 655.732713 68.718 
L 443.498973 68.718 
z
" clip-path="url(#p23a4178e67)" style="fill: #225b91"/>
   </g>
   <g id="patch_61">
    <path d="M 443.498973 109.7828 
L 676.061834 109.7828 
L 676.061834 117.604667 
L 443.498973 117.604667 
z
" clip-path="url(#p23a4178e67)" style="fill: #225b91"/>
   </g>
   <g id="patch_62">
    <path d="M 443.498973 158.669467 
L 695.168917 158.669467 
L 695.168917 166.491333 
L 443.498973 166.491333 
z
" clip-path="url(#p23a4178e67)" style="fill: #225b91"/>
   </g>
   <g id="patch_63">
    <path d="M 443.498973 207.556133 
L 679.365158 207.556133 
L 679.365158 215.378 
L 443.498973 215.378 
z
" clip-path="url(#p23a4178e67)" style="fill: #225b91"/>
   </g>
   <g id="patch_64">
    <path d="M 443.498973 256.4428 
L 690.439883 256.4428 
L 690.439883 264.264667 
L 443.498973 264.264667 
z
" clip-path="url(#p23a4178e67)" style="fill: #225b91"/>
   </g>
   <g id="patch_65">
    <path d="M 443.498973 305.329467 
L 667.940369 305.329467 
L 667.940369 313.151333 
L 443.498973 313.151333 
z
" clip-path="url(#p23a4178e67)" style="fill: #225b91"/>
   </g>
   <g id="patch_66">
    <path d="M 443.498973 49.163333 
L 443.498973 49.163333 
L 443.498973 49.163333 
L 443.498973 49.163333 
z
" clip-path="url(#p23a4178e67)" style="fill: #dae6f1"/>
   </g>
   <g id="patch_67">
    <path d="M 443.498973 49.163333 
L 443.498973 49.163333 
L 443.498973 49.163333 
L 443.498973 49.163333 
z
" clip-path="url(#p23a4178e67)" style="fill: #b3cede"/>
   </g>
   <g id="patch_68">
    <path d="M 443.498973 49.163333 
L 443.498973 49.163333 
L 443.498973 49.163333 
L 443.498973 49.163333 
z
" clip-path="url(#p23a4178e67)" style="fill: #78aac8"/>
   </g>
   <g id="patch_69">
    <path d="M 443.498973 49.163333 
L 443.498973 49.163333 
L 443.498973 49.163333 
L 443.498973 49.163333 
z
" clip-path="url(#p23a4178e67)" style="fill: #4884af"/>
   </g>
   <g id="patch_70">
    <path d="M 443.498973 49.163333 
L 443.498973 49.163333 
L 443.498973 49.163333 
L 443.498973 49.163333 
z
" clip-path="url(#p23a4178e67)" style="fill: #225b91"/>
   </g>
   <g id="matplotlib.axis_3">
    <g id="xtick_6">
     <g id="line2d_42">
      <g>
       <use xlink:href="#m80cc87f710" x="443.498973" y="318.04" style="stroke: #000000; stroke-width: 0.8"/>
      </g>
     </g>
     <g id="text_15">
      <!-- 0 -->
      <g transform="translate(440.317723 332.638438) scale(0.1 -0.1)">
       <use xlink:href="#DejaVuSans-30"/>
      </g>
     </g>
    </g>
    <g id="xtick_7">
     <g id="line2d_43">
      <g>
       <use xlink:href="#m80cc87f710" x="507.146818" y="318.04" style="stroke: #000000; stroke-width: 0.8"/>
      </g>
     </g>
     <g id="text_16">
      <!-- 50 -->
      <g transform="translate(500.784318 332.638438) scale(0.1 -0.1)">
       <use xlink:href="#DejaVuSans-35"/>
       <use xlink:href="#DejaVuSans-30" transform="translate(63.623047 0)"/>
      </g>
     </g>
    </g>
    <g id="xtick_8">
     <g id="line2d_44">
      <g>
       <use xlink:href="#m80cc87f710" x="570.794663" y="318.04" style="stroke: #000000; stroke-width: 0.8"/>
      </g>
     </g>
     <g id="text_17">
      <!-- 100 -->
      <g transform="translate(561.250913 332.638438) scale(0.1 -0.1)">
       <use xlink:href="#DejaVuSans-31"/>
       <use xlink:href="#DejaVuSans-30" transform="translate(63.623047 0)"/>
       <use xlink:href="#DejaVuSans-30" transform="translate(127.246094 0)"/>
      </g>
     </g>
    </g>
    <g id="xtick_9">
     <g id="line2d_45">
      <g>
       <use xlink:href="#m80cc87f710" x="634.442508" y="318.04" style="stroke: #000000; stroke-width: 0.8"/>
      </g>
     </g>
     <g id="text_18">
      <!-- 150 -->
      <g transform="translate(624.898758 332.638438) scale(0.1 -0.1)">
       <use xlink:href="#DejaVuSans-31"/>
       <use xlink:href="#DejaVuSans-35" transform="translate(63.623047 0)"/>
       <use xlink:href="#DejaVuSans-30" transform="translate(127.246094 0)"/>
      </g>
     </g>
    </g>
    <g id="xtick_10">
     <g id="line2d_46">
      <g>
       <use xlink:href="#m80cc87f710" x="698.090354" y="318.04" style="stroke: #000000; stroke-width: 0.8"/>
      </g>
     </g>
     <g id="text_19">
      <!-- 200 -->
      <g transform="translate(688.546604 332.638438) scale(0.1 -0.1)">
       <use xlink:href="#DejaVuSans-32"/>
       <use xlink:href="#DejaVuSans-30" transform="translate(63.623047 0)"/>
       <use xlink:href="#DejaVuSans-30" transform="translate(127.246094 0)"/>
      </g>
     </g>
    </g>
    <g id="text_20">
     <!-- score -->
     <g transform="translate(563.790124 346.316563) scale(0.1 -0.1)">
      <use xlink:href="#DejaVuSans-73"/>
      <use xlink:href="#DejaVuSans-63" transform="translate(52.099609 0)"/>
      <use xlink:href="#DejaVuSans-6f" transform="translate(107.080078 0)"/>
      <use xlink:href="#DejaVuSans-72" transform="translate(168.261719 0)"/>
      <use xlink:href="#DejaVuSans-65" transform="translate(207.125 0)"/>
     </g>
    </g>
   </g>
   <g id="matplotlib.axis_4">
    <g id="ytick_7">
     <g id="line2d_47">
      <g>
       <use xlink:href="#mc9ddefb7c4" x="443.498973" y="49.163333" style="stroke: #000000; stroke-width: 0.8"/>
      </g>
     </g>
    </g>
    <g id="ytick_8">
     <g id="line2d_48">
      <g>
       <use xlink:href="#mc9ddefb7c4" x="443.498973" y="98.05" style="stroke: #000000; stroke-width: 0.8"/>
      </g>
     </g>
    </g>
    <g id="ytick_9">
     <g id="line2d_49">
      <g>
       <use xlink:href="#mc9ddefb7c4" x="443.498973" y="146.936667" style="stroke: #000000; stroke-width: 0.8"/>
      </g>
     </g>
    </g>
    <g id="ytick_10">
     <g id="line2d_50">
      <g>
       <use xlink:href="#mc9ddefb7c4" x="443.498973" y="195.823333" style="stroke: #000000; stroke-width: 0.8"/>
      </g>
     </g>
    </g>
    <g id="ytick_11">
     <g id="line2d_51">
      <g>
       <use xlink:href="#mc9ddefb7c4" x="443.498973" y="244.71" style="stroke: #000000; stroke-width: 0.8"/>
      </g>
     </g>
    </g>
    <g id="ytick_12">
     <g id="line2d_52">
      <g>
       <use xlink:href="#mc9ddefb7c4" x="443.498973" y="293.596667" style="stroke: #000000; stroke-width: 0.8"/>
      </g>
     </g>
    </g>
   </g>
   <g id="line2d_53">
    <path d="M 636.001722 33.5196 
L 639.368852 33.5196 
" clip-path="url(#p23a4178e67)" style="fill: none; stroke: #424242; stroke-width: 2.25; stroke-linecap: square"/>
   </g>
   <g id="line2d_54">
    <path d="M 650.952123 82.406267 
L 654.587211 82.406267 
" clip-path="url(#p23a4178e67)" style="fill: none; stroke: #424242; stroke-width: 2.25; stroke-linecap: square"/>
   </g>
   <g id="line2d_55">
    <path d="M 654.835119 131.292933 
L 658.973024 131.292933 
" clip-path="url(#p23a4178e67)" style="fill: none; stroke: #424242; stroke-width: 2.25; stroke-linecap: square"/>
   </g>
   <g id="line2d_56">
    <path d="M 652.938572 180.1796 
L 656.884739 180.1796 
" clip-path="url(#p23a4178e67)" style="fill: none; stroke: #424242; stroke-width: 2.25; stroke-linecap: square"/>
   </g>
   <g id="line2d_57">
    <path d="M 653.548955 229.066267 
L 656.770173 229.066267 
" clip-path="url(#p23a4178e67)" style="fill: none; stroke: #424242; stroke-width: 2.25; stroke-linecap: square"/>
   </g>
   <g id="line2d_58">
    <path d="M 663.115704 277.952933 
L 664.076945 277.952933 
" clip-path="url(#p23a4178e67)" style="fill: none; stroke: #424242; stroke-width: 2.25; stroke-linecap: square"/>
   </g>
   <g id="line2d_59">
    <path d="M 622.310752 41.341467 
L 624.92811 41.341467 
" clip-path="url(#p23a4178e67)" style="fill: none; stroke: #424242; stroke-width: 2.25; stroke-linecap: square"/>
   </g>
   <g id="line2d_60">
    <path d="M 638.362898 90.228133 
L 640.387376 90.228133 
" clip-path="url(#p23a4178e67)" style="fill: none; stroke: #424242; stroke-width: 2.25; stroke-linecap: square"/>
   </g>
   <g id="line2d_61">
    <path d="M 641.978095 139.1148 
L 645.810014 139.1148 
" clip-path="url(#p23a4178e67)" style="fill: none; stroke: #424242; stroke-width: 2.25; stroke-linecap: square"/>
   </g>
   <g id="line2d_62">
    <path d="M 640.615713 188.001467 
L 643.849978 188.001467 
" clip-path="url(#p23a4178e67)" style="fill: none; stroke: #424242; stroke-width: 2.25; stroke-linecap: square"/>
   </g>
   <g id="line2d_63">
    <path d="M 622.444253 236.888133 
L 624.080798 236.888133 
" clip-path="url(#p23a4178e67)" style="fill: none; stroke: #424242; stroke-width: 2.25; stroke-linecap: square"/>
   </g>
   <g id="line2d_64">
    <path d="M 656.629988 285.7748 
L 658.119507 285.7748 
" clip-path="url(#p23a4178e67)" style="fill: none; stroke: #424242; stroke-width: 2.25; stroke-linecap: square"/>
   </g>
   <g id="line2d_65">
    <path d="M 477.31937 49.163333 
L 484.584135 49.163333 
" clip-path="url(#p23a4178e67)" style="fill: none; stroke: #424242; stroke-width: 2.25; stroke-linecap: square"/>
   </g>
   <g id="line2d_66">
    <path d="M 478.784702 98.05 
L 489.523844 98.05 
" clip-path="url(#p23a4178e67)" style="fill: none; stroke: #424242; stroke-width: 2.25; stroke-linecap: square"/>
   </g>
   <g id="line2d_67">
    <path d="M 487.358544 146.936667 
L 502.335837 146.936667 
" clip-path="url(#p23a4178e67)" style="fill: none; stroke: #424242; stroke-width: 2.25; stroke-linecap: square"/>
   </g>
   <g id="line2d_68">
    <path d="M 557.337281 195.823333 
L 569.98204 195.823333 
" clip-path="url(#p23a4178e67)" style="fill: none; stroke: #424242; stroke-width: 2.25; stroke-linecap: square"/>
   </g>
   <g id="line2d_69">
    <path d="M 445.01952 244.71 
L 448.190297 244.71 
" clip-path="url(#p23a4178e67)" style="fill: none; stroke: #424242; stroke-width: 2.25; stroke-linecap: square"/>
   </g>
   <g id="line2d_70">
    <path d="M 443.498973 293.596667 
L 446.172183 293.596667 
" clip-path="url(#p23a4178e67)" style="fill: none; stroke: #424242; stroke-width: 2.25; stroke-linecap: square"/>
   </g>
   <g id="line2d_71">
    <path d="M 546.104232 56.9852 
L 552.71963 56.9852 
" clip-path="url(#p23a4178e67)" style="fill: none; stroke: #424242; stroke-width: 2.25; stroke-linecap: square"/>
   </g>
   <g id="line2d_72">
    <path d="M 569.724902 105.871867 
L 578.406946 105.871867 
" clip-path="url(#p23a4178e67)" style="fill: none; stroke: #424242; stroke-width: 2.25; stroke-linecap: square"/>
   </g>
   <g id="line2d_73">
    <path d="M 582.734363 154.758533 
L 589.330666 154.758533 
" clip-path="url(#p23a4178e67)" style="fill: none; stroke: #424242; stroke-width: 2.25; stroke-linecap: square"/>
   </g>
   <g id="line2d_74">
    <path d="M 576.032404 203.6452 
L 584.797508 203.6452 
" clip-path="url(#p23a4178e67)" style="fill: none; stroke: #424242; stroke-width: 2.25; stroke-linecap: square"/>
   </g>
   <g id="line2d_75">
    <path d="M 490.73188 252.531867 
L 493.412091 252.531867 
" clip-path="url(#p23a4178e67)" style="fill: none; stroke: #424242; stroke-width: 2.25; stroke-linecap: square"/>
   </g>
   <g id="line2d_76">
    <path d="M 523.12195 301.418533 
L 534.319993 301.418533 
" clip-path="url(#p23a4178e67)" style="fill: none; stroke: #424242; stroke-width: 2.25; stroke-linecap: square"/>
   </g>
   <g id="line2d_77">
    <path d="M 654.720712 64.807067 
L 656.840344 64.807067 
" clip-path="url(#p23a4178e67)" style="fill: none; stroke: #424242; stroke-width: 2.25; stroke-linecap: square"/>
   </g>
   <g id="line2d_78">
    <path d="M 674.954203 113.693733 
L 677.201131 113.693733 
" clip-path="url(#p23a4178e67)" style="fill: none; stroke: #424242; stroke-width: 2.25; stroke-linecap: square"/>
   </g>
   <g id="line2d_79">
    <path d="M 693.985068 162.5804 
L 696.264138 162.5804 
" clip-path="url(#p23a4178e67)" style="fill: none; stroke: #424242; stroke-width: 2.25; stroke-linecap: square"/>
   </g>
   <g id="line2d_80">
    <path d="M 677.97668 211.467067 
L 680.740428 211.467067 
" clip-path="url(#p23a4178e67)" style="fill: none; stroke: #424242; stroke-width: 2.25; stroke-linecap: square"/>
   </g>
   <g id="line2d_81">
    <path d="M 689.860687 260.353733 
L 690.943178 260.353733 
" clip-path="url(#p23a4178e67)" style="fill: none; stroke: #424242; stroke-width: 2.25; stroke-linecap: square"/>
   </g>
   <g id="line2d_82">
    <path d="M 667.418457 309.2404 
L 668.462441 309.2404 
" clip-path="url(#p23a4178e67)" style="fill: none; stroke: #424242; stroke-width: 2.25; stroke-linecap: square"/>
   </g>
   <g id="patch_71">
    <path d="M 443.498973 318.04 
L 443.498973 24.72 
" style="fill: none; stroke: #000000; stroke-width: 0.8; stroke-linejoin: miter; stroke-linecap: square"/>
   </g>
   <g id="patch_72">
    <path d="M 443.498973 318.04 
L 710.9469 318.04 
" style="fill: none; stroke: #000000; stroke-width: 0.8; stroke-linejoin: miter; stroke-linecap: square"/>
   </g>
   <g id="text_21">
    <!-- task = psiq_cumulative_item -->
    <g transform="translate(504.897155 18.72) scale(0.1 -0.1)">
     <defs>
      <path id="DejaVuSans-76" d="M 191 3500 
L 800 3500 
L 1894 563 
L 2988 3500 
L 3597 3500 
L 2284 0 
L 1503 0 
L 191 3500 
z
" transform="scale(0.015625)"/>
     </defs>
     <use xlink:href="#DejaVuSans-74"/>
     <use xlink:href="#DejaVuSans-61" transform="translate(39.208984 0)"/>
     <use xlink:href="#DejaVuSans-73" transform="translate(100.488281 0)"/>
     <use xlink:href="#DejaVuSans-6b" transform="translate(152.587891 0)"/>
     <use xlink:href="#DejaVuSans-20" transform="translate(210.498047 0)"/>
     <use xlink:href="#DejaVuSans-3d" transform="translate(242.285156 0)"/>
     <use xlink:href="#DejaVuSans-20" transform="translate(326.074219 0)"/>
     <use xlink:href="#DejaVuSans-70" transform="translate(357.861328 0)"/>
     <use xlink:href="#DejaVuSans-73" transform="translate(421.337891 0)"/>
     <use xlink:href="#DejaVuSans-69" transform="translate(473.4375 0)"/>
     <use xlink:href="#DejaVuSans-71" transform="translate(501.220703 0)"/>
     <use xlink:href="#DejaVuSans-5f" transform="translate(564.697266 0)"/>
     <use xlink:href="#DejaVuSans-63" transform="translate(614.697266 0)"/>
     <use xlink:href="#DejaVuSans-75" transform="translate(669.677734 0)"/>
     <use xlink:href="#DejaVuSans-6d" transform="translate(733.056641 0)"/>
     <use xlink:href="#DejaVuSans-75" transform="translate(830.46875 0)"/>
     <use xlink:href="#DejaVuSans-6c" transform="translate(893.847656 0)"/>
     <use xlink:href="#DejaVuSans-61" transform="translate(921.630859 0)"/>
     <use xlink:href="#DejaVuSans-74" transform="translate(982.910156 0)"/>
     <use xlink:href="#DejaVuSans-69" transform="translate(1022.119141 0)"/>
     <use xlink:href="#DejaVuSans-76" transform="translate(1049.902344 0)"/>
     <use xlink:href="#DejaVuSans-65" transform="translate(1109.082031 0)"/>
     <use xlink:href="#DejaVuSans-5f" transform="translate(1170.605469 0)"/>
     <use xlink:href="#DejaVuSans-69" transform="translate(1220.605469 0)"/>
     <use xlink:href="#DejaVuSans-74" transform="translate(1248.388672 0)"/>
     <use xlink:href="#DejaVuSans-65" transform="translate(1287.597656 0)"/>
     <use xlink:href="#DejaVuSans-6d" transform="translate(1349.121094 0)"/>
    </g>
   </g>
  </g>
  <g id="legend_1">
   <g id="text_22">
    <!-- imagination_ability -->
    <g transform="translate(760.105313 145.925) scale(0.1 -0.1)">
     <defs>
      <path id="DejaVuSans-79" d="M 2059 -325 
Q 1816 -950 1584 -1140 
Q 1353 -1331 966 -1331 
L 506 -1331 
L 506 -850 
L 844 -850 
Q 1081 -850 1212 -737 
Q 1344 -625 1503 -206 
L 1606 56 
L 191 3500 
L 800 3500 
L 1894 763 
L 2988 3500 
L 3597 3500 
L 2059 -325 
z
" transform="scale(0.015625)"/>
     </defs>
     <use xlink:href="#DejaVuSans-69"/>
     <use xlink:href="#DejaVuSans-6d" transform="translate(27.783203 0)"/>
     <use xlink:href="#DejaVuSans-61" transform="translate(125.195312 0)"/>
     <use xlink:href="#DejaVuSans-67" transform="translate(186.474609 0)"/>
     <use xlink:href="#DejaVuSans-69" transform="translate(249.951172 0)"/>
     <use xlink:href="#DejaVuSans-6e" transform="translate(277.734375 0)"/>
     <use xlink:href="#DejaVuSans-61" transform="translate(341.113281 0)"/>
     <use xlink:href="#DejaVuSans-74" transform="translate(402.392578 0)"/>
     <use xlink:href="#DejaVuSans-69" transform="translate(441.601562 0)"/>
     <use xlink:href="#DejaVuSans-6f" transform="translate(469.384766 0)"/>
     <use xlink:href="#DejaVuSans-6e" transform="translate(530.566406 0)"/>
     <use xlink:href="#DejaVuSans-5f" transform="translate(593.945312 0)"/>
     <use xlink:href="#DejaVuSans-61" transform="translate(643.945312 0)"/>
     <use xlink:href="#DejaVuSans-62" transform="translate(705.224609 0)"/>
     <use xlink:href="#DejaVuSans-69" transform="translate(768.701172 0)"/>
     <use xlink:href="#DejaVuSans-6c" transform="translate(796.484375 0)"/>
     <use xlink:href="#DejaVuSans-69" transform="translate(824.267578 0)"/>
     <use xlink:href="#DejaVuSans-74" transform="translate(852.050781 0)"/>
     <use xlink:href="#DejaVuSans-79" transform="translate(891.259766 0)"/>
    </g>
   </g>
   <g id="patch_73">
    <path d="M 718.944375 160.88125 
L 738.944375 160.88125 
L 738.944375 153.88125 
L 718.944375 153.88125 
z
" style="fill: #dae6f1"/>
   </g>
   <g id="text_23">
    <!-- No Imagery Ability Instruction -->
    <g transform="translate(746.944375 160.88125) scale(0.1 -0.1)">
     <defs>
      <path id="DejaVuSans-4e" d="M 628 4666 
L 1478 4666 
L 3547 763 
L 3547 4666 
L 4159 4666 
L 4159 0 
L 3309 0 
L 1241 3903 
L 1241 0 
L 628 0 
L 628 4666 
z
" transform="scale(0.015625)"/>
      <path id="DejaVuSans-49" d="M 628 4666 
L 1259 4666 
L 1259 0 
L 628 0 
L 628 4666 
z
" transform="scale(0.015625)"/>
      <path id="DejaVuSans-41" d="M 2188 4044 
L 1331 1722 
L 3047 1722 
L 2188 4044 
z
M 1831 4666 
L 2547 4666 
L 4325 0 
L 3669 0 
L 3244 1197 
L 1141 1197 
L 716 0 
L 50 0 
L 1831 4666 
z
" transform="scale(0.015625)"/>
     </defs>
     <use xlink:href="#DejaVuSans-4e"/>
     <use xlink:href="#DejaVuSans-6f" transform="translate(74.804688 0)"/>
     <use xlink:href="#DejaVuSans-20" transform="translate(135.986328 0)"/>
     <use xlink:href="#DejaVuSans-49" transform="translate(167.773438 0)"/>
     <use xlink:href="#DejaVuSans-6d" transform="translate(197.265625 0)"/>
     <use xlink:href="#DejaVuSans-61" transform="translate(294.677734 0)"/>
     <use xlink:href="#DejaVuSans-67" transform="translate(355.957031 0)"/>
     <use xlink:href="#DejaVuSans-65" transform="translate(419.433594 0)"/>
     <use xlink:href="#DejaVuSans-72" transform="translate(480.957031 0)"/>
     <use xlink:href="#DejaVuSans-79" transform="translate(522.070312 0)"/>
     <use xlink:href="#DejaVuSans-20" transform="translate(581.25 0)"/>
     <use xlink:href="#DejaVuSans-41" transform="translate(613.037109 0)"/>
     <use xlink:href="#DejaVuSans-62" transform="translate(681.445312 0)"/>
     <use xlink:href="#DejaVuSans-69" transform="translate(744.921875 0)"/>
     <use xlink:href="#DejaVuSans-6c" transform="translate(772.705078 0)"/>
     <use xlink:href="#DejaVuSans-69" transform="translate(800.488281 0)"/>
     <use xlink:href="#DejaVuSans-74" transform="translate(828.271484 0)"/>
     <use xlink:href="#DejaVuSans-79" transform="translate(867.480469 0)"/>
     <use xlink:href="#DejaVuSans-20" transform="translate(926.660156 0)"/>
     <use xlink:href="#DejaVuSans-49" transform="translate(958.447266 0)"/>
     <use xlink:href="#DejaVuSans-6e" transform="translate(987.939453 0)"/>
     <use xlink:href="#DejaVuSans-73" transform="translate(1051.318359 0)"/>
     <use xlink:href="#DejaVuSans-74" transform="translate(1103.417969 0)"/>
     <use xlink:href="#DejaVuSans-72" transform="translate(1142.626953 0)"/>
     <use xlink:href="#DejaVuSans-75" transform="translate(1183.740234 0)"/>
     <use xlink:href="#DejaVuSans-63" transform="translate(1247.119141 0)"/>
     <use xlink:href="#DejaVuSans-74" transform="translate(1302.099609 0)"/>
     <use xlink:href="#DejaVuSans-69" transform="translate(1341.308594 0)"/>
     <use xlink:href="#DejaVuSans-6f" transform="translate(1369.091797 0)"/>
     <use xlink:href="#DejaVuSans-6e" transform="translate(1430.273438 0)"/>
    </g>
   </g>
   <g id="patch_74">
    <path d="M 718.944375 175.559375 
L 738.944375 175.559375 
L 738.944375 168.559375 
L 718.944375 168.559375 
z
" style="fill: #b3cede"/>
   </g>
   <g id="text_24">
    <!-- Typical Imagery -->
    <g transform="translate(746.944375 175.559375) scale(0.1 -0.1)">
     <defs>
      <path id="DejaVuSans-54" d="M -19 4666 
L 3928 4666 
L 3928 4134 
L 2272 4134 
L 2272 0 
L 1638 0 
L 1638 4134 
L -19 4134 
L -19 4666 
z
" transform="scale(0.015625)"/>
     </defs>
     <use xlink:href="#DejaVuSans-54"/>
     <use xlink:href="#DejaVuSans-79" transform="translate(45.458984 0)"/>
     <use xlink:href="#DejaVuSans-70" transform="translate(104.638672 0)"/>
     <use xlink:href="#DejaVuSans-69" transform="translate(168.115234 0)"/>
     <use xlink:href="#DejaVuSans-63" transform="translate(195.898438 0)"/>
     <use xlink:href="#DejaVuSans-61" transform="translate(250.878906 0)"/>
     <use xlink:href="#DejaVuSans-6c" transform="translate(312.158203 0)"/>
     <use xlink:href="#DejaVuSans-20" transform="translate(339.941406 0)"/>
     <use xlink:href="#DejaVuSans-49" transform="translate(371.728516 0)"/>
     <use xlink:href="#DejaVuSans-6d" transform="translate(401.220703 0)"/>
     <use xlink:href="#DejaVuSans-61" transform="translate(498.632812 0)"/>
     <use xlink:href="#DejaVuSans-67" transform="translate(559.912109 0)"/>
     <use xlink:href="#DejaVuSans-65" transform="translate(623.388672 0)"/>
     <use xlink:href="#DejaVuSans-72" transform="translate(684.912109 0)"/>
     <use xlink:href="#DejaVuSans-79" transform="translate(726.025391 0)"/>
    </g>
   </g>
   <g id="patch_75">
    <path d="M 718.944375 190.2375 
L 738.944375 190.2375 
L 738.944375 183.2375 
L 718.944375 183.2375 
z
" style="fill: #78aac8"/>
   </g>
   <g id="text_25">
    <!-- Aphantasia -->
    <g transform="translate(746.944375 190.2375) scale(0.1 -0.1)">
     <defs>
      <path id="DejaVuSans-68" d="M 3513 2113 
L 3513 0 
L 2938 0 
L 2938 2094 
Q 2938 2591 2744 2837 
Q 2550 3084 2163 3084 
Q 1697 3084 1428 2787 
Q 1159 2491 1159 1978 
L 1159 0 
L 581 0 
L 581 4863 
L 1159 4863 
L 1159 2956 
Q 1366 3272 1645 3428 
Q 1925 3584 2291 3584 
Q 2894 3584 3203 3211 
Q 3513 2838 3513 2113 
z
" transform="scale(0.015625)"/>
     </defs>
     <use xlink:href="#DejaVuSans-41"/>
     <use xlink:href="#DejaVuSans-70" transform="translate(68.408203 0)"/>
     <use xlink:href="#DejaVuSans-68" transform="translate(131.884766 0)"/>
     <use xlink:href="#DejaVuSans-61" transform="translate(195.263672 0)"/>
     <use xlink:href="#DejaVuSans-6e" transform="translate(256.542969 0)"/>
     <use xlink:href="#DejaVuSans-74" transform="translate(319.921875 0)"/>
     <use xlink:href="#DejaVuSans-61" transform="translate(359.130859 0)"/>
     <use xlink:href="#DejaVuSans-73" transform="translate(420.410156 0)"/>
     <use xlink:href="#DejaVuSans-69" transform="translate(472.509766 0)"/>
     <use xlink:href="#DejaVuSans-61" transform="translate(500.292969 0)"/>
    </g>
   </g>
   <g id="patch_76">
    <path d="M 718.944375 204.915625 
L 738.944375 204.915625 
L 738.944375 197.915625 
L 718.944375 197.915625 
z
" style="fill: #4884af"/>
   </g>
   <g id="text_26">
    <!-- Hypophantasia -->
    <g transform="translate(746.944375 204.915625) scale(0.1 -0.1)">
     <defs>
      <path id="DejaVuSans-48" d="M 628 4666 
L 1259 4666 
L 1259 2753 
L 3553 2753 
L 3553 4666 
L 4184 4666 
L 4184 0 
L 3553 0 
L 3553 2222 
L 1259 2222 
L 1259 0 
L 628 0 
L 628 4666 
z
" transform="scale(0.015625)"/>
     </defs>
     <use xlink:href="#DejaVuSans-48"/>
     <use xlink:href="#DejaVuSans-79" transform="translate(75.195312 0)"/>
     <use xlink:href="#DejaVuSans-70" transform="translate(134.375 0)"/>
     <use xlink:href="#DejaVuSans-6f" transform="translate(197.851562 0)"/>
     <use xlink:href="#DejaVuSans-70" transform="translate(259.033203 0)"/>
     <use xlink:href="#DejaVuSans-68" transform="translate(322.509766 0)"/>
     <use xlink:href="#DejaVuSans-61" transform="translate(385.888672 0)"/>
     <use xlink:href="#DejaVuSans-6e" transform="translate(447.167969 0)"/>
     <use xlink:href="#DejaVuSans-74" transform="translate(510.546875 0)"/>
     <use xlink:href="#DejaVuSans-61" transform="translate(549.755859 0)"/>
     <use xlink:href="#DejaVuSans-73" transform="translate(611.035156 0)"/>
     <use xlink:href="#DejaVuSans-69" transform="translate(663.134766 0)"/>
     <use xlink:href="#DejaVuSans-61" transform="translate(690.917969 0)"/>
    </g>
   </g>
   <g id="patch_77">
    <path d="M 718.944375 219.59375 
L 738.944375 219.59375 
L 738.944375 212.59375 
L 718.944375 212.59375 
z
" style="fill: #225b91"/>
   </g>
   <g id="text_27">
    <!-- Hyperphantasia -->
    <g transform="translate(746.944375 219.59375) scale(0.1 -0.1)">
     <use xlink:href="#DejaVuSans-48"/>
     <use xlink:href="#DejaVuSans-79" transform="translate(75.195312 0)"/>
     <use xlink:href="#DejaVuSans-70" transform="translate(134.375 0)"/>
     <use xlink:href="#DejaVuSans-65" transform="translate(197.851562 0)"/>
     <use xlink:href="#DejaVuSans-72" transform="translate(259.375 0)"/>
     <use xlink:href="#DejaVuSans-70" transform="translate(300.488281 0)"/>
     <use xlink:href="#DejaVuSans-68" transform="translate(363.964844 0)"/>
     <use xlink:href="#DejaVuSans-61" transform="translate(427.34375 0)"/>
     <use xlink:href="#DejaVuSans-6e" transform="translate(488.623047 0)"/>
     <use xlink:href="#DejaVuSans-74" transform="translate(552.001953 0)"/>
     <use xlink:href="#DejaVuSans-61" transform="translate(591.210938 0)"/>
     <use xlink:href="#DejaVuSans-73" transform="translate(652.490234 0)"/>
     <use xlink:href="#DejaVuSans-69" transform="translate(704.589844 0)"/>
     <use xlink:href="#DejaVuSans-61" transform="translate(732.373047 0)"/>
    </g>
   </g>
  </g>
 </g>
 <defs>
  <clipPath id="p7bd720f662">
   <rect x="162.528293" y="24.72" width="267.447927" height="293.32"/>
  </clipPath>
  <clipPath id="p23a4178e67">
   <rect x="443.498973" y="24.72" width="267.447927" height="293.32"/>
  </clipPath>
 </defs>
</svg>
