<?xml version="1.0" encoding="utf-8" standalone="no"?>
<!DOCTYPE svg PUBLIC "-//W3C//DTD SVG 1.1//EN"
  "http://www.w3.org/Graphics/SVG/1.1/DTD/svg11.dtd">
<svg xmlns:xlink="http://www.w3.org/1999/xlink" width="418.253972pt" height="351.99625pt" viewBox="0 0 418.253972 351.99625" xmlns="http://www.w3.org/2000/svg" version="1.1">
 <metadata>
  <rdf:RDF xmlns:dc="http://purl.org/dc/elements/1.1/" xmlns:cc="http://creativecommons.org/ns#" xmlns:rdf="http://www.w3.org/1999/02/22-rdf-syntax-ns#">
   <cc:Work>
    <dc:type rdf:resource="http://purl.org/dc/dcmitype/StillImage"/>
    <dc:date>2025-10-02T15:32:13.557458</dc:date>
    <dc:format>image/svg+xml</dc:format>
    <dc:creator>
     <cc:Agent>
      <dc:title>Matplotlib v3.10.0, https://matplotlib.org/</dc:title>
     </cc:Agent>
    </dc:creator>
   </cc:Work>
  </rdf:RDF>
 </metadata>
 <defs>
  <style type="text/css">*{stroke-linejoin: round; stroke-linecap: butt}</style>
 </defs>
 <g id="figure_1">
  <g id="patch_1">
   <path d="M 0 351.99625 
L 418.253972 351.99625 
L 418.253972 0 
L 0 0 
z
" style="fill: #ffffff"/>
  </g>
  <g id="axes_1">
   <g id="patch_2">
    <path d="M 193.320313 314.44 
L 277.740173 314.44 
L 277.740173 7.2 
L 193.320313 7.2 
z
" style="fill: #ffffff"/>
   </g>
   <g id="patch_3">
    <path d="M 193.320313 9.007294 
L 266.803694 9.007294 
L 266.803694 23.465647 
L 193.320313 23.465647 
z
" clip-path="url(#p9da4249177)" style="fill: #3274a1"/>
   </g>
   <g id="patch_4">
    <path d="M 193.320313 27.080235 
L 272.510636 27.080235 
L 272.510636 41.538588 
L 193.320313 41.538588 
z
" clip-path="url(#p9da4249177)" style="fill: #3274a1"/>
   </g>
   <g id="patch_5">
    <path d="M 193.320313 45.153176 
L 271.656149 45.153176 
L 271.656149 59.611529 
L 193.320313 59.611529 
z
" clip-path="url(#p9da4249177)" style="fill: #3274a1"/>
   </g>
   <g id="patch_6">
    <path d="M 193.320313 63.226118 
L 271.721352 63.226118 
L 271.721352 77.684471 
L 193.320313 77.684471 
z
" clip-path="url(#p9da4249177)" style="fill: #3274a1"/>
   </g>
   <g id="patch_7">
    <path d="M 193.320313 81.299059 
L 270.487375 81.299059 
L 270.487375 95.757412 
L 193.320313 95.757412 
z
" clip-path="url(#p9da4249177)" style="fill: #3274a1"/>
   </g>
   <g id="patch_8">
    <path d="M 193.320313 99.372 
L 259.5543 99.372 
L 259.5543 113.830353 
L 193.320313 113.830353 
z
" clip-path="url(#p9da4249177)" style="fill: #e1812c"/>
   </g>
   <g id="patch_9">
    <path d="M 193.320313 207.809647 
L 255.0391 207.809647 
L 255.0391 222.268 
L 193.320313 222.268 
z
" clip-path="url(#p9da4249177)" style="fill: #e1812c"/>
   </g>
   <g id="patch_10">
    <path d="M 193.320313 117.444941 
L 259.570342 117.444941 
L 259.570342 131.903294 
L 193.320313 131.903294 
z
" clip-path="url(#p9da4249177)" style="fill: #3a923a"/>
   </g>
   <g id="patch_11">
    <path d="M 193.320313 225.882588 
L 256.013365 225.882588 
L 256.013365 240.340941 
L 193.320313 240.340941 
z
" clip-path="url(#p9da4249177)" style="fill: #3a923a"/>
   </g>
   <g id="patch_12">
    <path d="M 193.320313 135.517882 
L 257.869923 135.517882 
L 257.869923 149.976235 
L 193.320313 149.976235 
z
" clip-path="url(#p9da4249177)" style="fill: #c03d3e"/>
   </g>
   <g id="patch_13">
    <path d="M 193.320313 243.955529 
L 266.070433 243.955529 
L 266.070433 258.413882 
L 193.320313 258.413882 
z
" clip-path="url(#p9da4249177)" style="fill: #c03d3e"/>
   </g>
   <g id="patch_14">
    <path d="M 193.320313 153.590824 
L 262.335929 153.590824 
L 262.335929 168.049176 
L 193.320313 168.049176 
z
" clip-path="url(#p9da4249177)" style="fill: #9372b2"/>
   </g>
   <g id="patch_15">
    <path d="M 193.320313 262.028471 
L 264.142222 262.028471 
L 264.142222 276.486824 
L 193.320313 276.486824 
z
" clip-path="url(#p9da4249177)" style="fill: #9372b2"/>
   </g>
   <g id="patch_16">
    <path d="M 193.320313 171.663765 
L 264.488723 171.663765 
L 264.488723 186.122118 
L 193.320313 186.122118 
z
" clip-path="url(#p9da4249177)" style="fill: #845b53"/>
   </g>
   <g id="patch_17">
    <path d="M 193.320313 280.101412 
L 264.139014 280.101412 
L 264.139014 294.559765 
L 193.320313 294.559765 
z
" clip-path="url(#p9da4249177)" style="fill: #845b53"/>
   </g>
   <g id="patch_18">
    <path d="M 193.320313 189.736706 
L 263.450291 189.736706 
L 263.450291 204.195059 
L 193.320313 204.195059 
z
" clip-path="url(#p9da4249177)" style="fill: #d684bd"/>
   </g>
   <g id="patch_19">
    <path d="M 193.320313 298.174353 
L 265.316474 298.174353 
L 265.316474 312.632706 
L 193.320313 312.632706 
z
" clip-path="url(#p9da4249177)" style="fill: #d684bd"/>
   </g>
   <g id="patch_20">
    <path d="M 193.320313 16.236471 
L 193.320313 16.236471 
L 193.320313 16.236471 
L 193.320313 16.236471 
z
" clip-path="url(#p9da4249177)" style="fill: #3274a1"/>
   </g>
   <g id="patch_21">
    <path d="M 193.320313 16.236471 
L 193.320313 16.236471 
L 193.320313 16.236471 
L 193.320313 16.236471 
z
" clip-path="url(#p9da4249177)" style="fill: #e1812c"/>
   </g>
   <g id="patch_22">
    <path d="M 193.320313 16.236471 
L 193.320313 16.236471 
L 193.320313 16.236471 
L 193.320313 16.236471 
z
" clip-path="url(#p9da4249177)" style="fill: #3a923a"/>
   </g>
   <g id="patch_23">
    <path d="M 193.320313 16.236471 
L 193.320313 16.236471 
L 193.320313 16.236471 
L 193.320313 16.236471 
z
" clip-path="url(#p9da4249177)" style="fill: #c03d3e"/>
   </g>
   <g id="patch_24">
    <path d="M 193.320313 16.236471 
L 193.320313 16.236471 
L 193.320313 16.236471 
L 193.320313 16.236471 
z
" clip-path="url(#p9da4249177)" style="fill: #9372b2"/>
   </g>
   <g id="patch_25">
    <path d="M 193.320313 16.236471 
L 193.320313 16.236471 
L 193.320313 16.236471 
L 193.320313 16.236471 
z
" clip-path="url(#p9da4249177)" style="fill: #845b53"/>
   </g>
   <g id="patch_26">
    <path d="M 193.320313 16.236471 
L 193.320313 16.236471 
L 193.320313 16.236471 
L 193.320313 16.236471 
z
" clip-path="url(#p9da4249177)" style="fill: #d684bd"/>
   </g>
   <g id="matplotlib.axis_1">
    <g id="xtick_1">
     <g id="line2d_1">
      <defs>
       <path id="m0b03198620" d="M 0 0 
L 0 3.5 
" style="stroke: #000000; stroke-width: 0.8"/>
      </defs>
      <g>
       <use xlink:href="#m0b03198620" x="193.320313" y="314.44" style="stroke: #000000; stroke-width: 0.8"/>
      </g>
     </g>
     <g id="text_1">
      <!-- 0 -->
      <g transform="translate(190.139063 329.038437) scale(0.1 -0.1)">
       <defs>
        <path id="DejaVuSans-30" d="M 2034 4250 
Q 1547 4250 1301 3770 
Q 1056 3291 1056 2328 
Q 1056 1369 1301 889 
Q 1547 409 2034 409 
Q 2525 409 2770 889 
Q 3016 1369 3016 2328 
Q 3016 3291 2770 3770 
Q 2525 4250 2034 4250 
z
M 2034 4750 
Q 2819 4750 3233 4129 
Q 3647 3509 3647 2328 
Q 3647 1150 3233 529 
Q 2819 -91 2034 -91 
Q 1250 -91 836 529 
Q 422 1150 422 2328 
Q 422 3509 836 4129 
Q 1250 4750 2034 4750 
z
" transform="scale(0.015625)"/>
       </defs>
       <use xlink:href="#DejaVuSans-30"/>
      </g>
     </g>
    </g>
    <g id="xtick_2">
     <g id="line2d_2">
      <g>
       <use xlink:href="#m0b03198620" x="257.487061" y="314.44" style="stroke: #000000; stroke-width: 0.8"/>
      </g>
     </g>
     <g id="text_2">
      <!-- 100 -->
      <g transform="translate(247.943311 329.038437) scale(0.1 -0.1)">
       <defs>
        <path id="DejaVuSans-31" d="M 794 531 
L 1825 531 
L 1825 4091 
L 703 3866 
L 703 4441 
L 1819 4666 
L 2450 4666 
L 2450 531 
L 3481 531 
L 3481 0 
L 794 0 
L 794 531 
z
" transform="scale(0.015625)"/>
       </defs>
       <use xlink:href="#DejaVuSans-31"/>
       <use xlink:href="#DejaVuSans-30" transform="translate(63.623047 0)"/>
       <use xlink:href="#DejaVuSans-30" transform="translate(127.246094 0)"/>
      </g>
     </g>
    </g>
    <g id="text_3">
     <!-- score -->
     <g transform="translate(222.09743 342.716562) scale(0.1 -0.1)">
      <defs>
       <path id="DejaVuSans-73" d="M 2834 3397 
L 2834 2853 
Q 2591 2978 2328 3040 
Q 2066 3103 1784 3103 
Q 1356 3103 1142 2972 
Q 928 2841 928 2578 
Q 928 2378 1081 2264 
Q 1234 2150 1697 2047 
L 1894 2003 
Q 2506 1872 2764 1633 
Q 3022 1394 3022 966 
Q 3022 478 2636 193 
Q 2250 -91 1575 -91 
Q 1294 -91 989 -36 
Q 684 19 347 128 
L 347 722 
Q 666 556 975 473 
Q 1284 391 1588 391 
Q 1994 391 2212 530 
Q 2431 669 2431 922 
Q 2431 1156 2273 1281 
Q 2116 1406 1581 1522 
L 1381 1569 
Q 847 1681 609 1914 
Q 372 2147 372 2553 
Q 372 3047 722 3315 
Q 1072 3584 1716 3584 
Q 2034 3584 2315 3537 
Q 2597 3491 2834 3397 
z
" transform="scale(0.015625)"/>
       <path id="DejaVuSans-63" d="M 3122 3366 
L 3122 2828 
Q 2878 2963 2633 3030 
Q 2388 3097 2138 3097 
Q 1578 3097 1268 2742 
Q 959 2388 959 1747 
Q 959 1106 1268 751 
Q 1578 397 2138 397 
Q 2388 397 2633 464 
Q 2878 531 3122 666 
L 3122 134 
Q 2881 22 2623 -34 
Q 2366 -91 2075 -91 
Q 1284 -91 818 406 
Q 353 903 353 1747 
Q 353 2603 823 3093 
Q 1294 3584 2113 3584 
Q 2378 3584 2631 3529 
Q 2884 3475 3122 3366 
z
" transform="scale(0.015625)"/>
       <path id="DejaVuSans-6f" d="M 1959 3097 
Q 1497 3097 1228 2736 
Q 959 2375 959 1747 
Q 959 1119 1226 758 
Q 1494 397 1959 397 
Q 2419 397 2687 759 
Q 2956 1122 2956 1747 
Q 2956 2369 2687 2733 
Q 2419 3097 1959 3097 
z
M 1959 3584 
Q 2709 3584 3137 3096 
Q 3566 2609 3566 1747 
Q 3566 888 3137 398 
Q 2709 -91 1959 -91 
Q 1206 -91 779 398 
Q 353 888 353 1747 
Q 353 2609 779 3096 
Q 1206 3584 1959 3584 
z
" transform="scale(0.015625)"/>
       <path id="DejaVuSans-72" d="M 2631 2963 
Q 2534 3019 2420 3045 
Q 2306 3072 2169 3072 
Q 1681 3072 1420 2755 
Q 1159 2438 1159 1844 
L 1159 0 
L 581 0 
L 581 3500 
L 1159 3500 
L 1159 2956 
Q 1341 3275 1631 3429 
Q 1922 3584 2338 3584 
Q 2397 3584 2469 3576 
Q 2541 3569 2628 3553 
L 2631 2963 
z
" transform="scale(0.015625)"/>
       <path id="DejaVuSans-65" d="M 3597 1894 
L 3597 1613 
L 953 1613 
Q 991 1019 1311 708 
Q 1631 397 2203 397 
Q 2534 397 2845 478 
Q 3156 559 3463 722 
L 3463 178 
Q 3153 47 2828 -22 
Q 2503 -91 2169 -91 
Q 1331 -91 842 396 
Q 353 884 353 1716 
Q 353 2575 817 3079 
Q 1281 3584 2069 3584 
Q 2775 3584 3186 3129 
Q 3597 2675 3597 1894 
z
M 3022 2063 
Q 3016 2534 2758 2815 
Q 2500 3097 2075 3097 
Q 1594 3097 1305 2825 
Q 1016 2553 972 2059 
L 3022 2063 
z
" transform="scale(0.015625)"/>
      </defs>
      <use xlink:href="#DejaVuSans-73"/>
      <use xlink:href="#DejaVuSans-63" transform="translate(52.099609 0)"/>
      <use xlink:href="#DejaVuSans-6f" transform="translate(107.080078 0)"/>
      <use xlink:href="#DejaVuSans-72" transform="translate(168.261719 0)"/>
      <use xlink:href="#DejaVuSans-65" transform="translate(207.125 0)"/>
     </g>
    </g>
   </g>
   <g id="matplotlib.axis_2">
    <g id="ytick_1">
     <g id="line2d_3">
      <defs>
       <path id="med00ddc03b" d="M 0 0 
L -3.5 0 
" style="stroke: #000000; stroke-width: 0.8"/>
      </defs>
      <g>
       <use xlink:href="#med00ddc03b" x="193.320313" y="16.236471" style="stroke: #000000; stroke-width: 0.8"/>
      </g>
     </g>
     <g id="text_4">
      <!-- FL -->
      <g transform="translate(174.996875 20.035689) scale(0.1 -0.1)">
       <defs>
        <path id="DejaVuSans-46" d="M 628 4666 
L 3309 4666 
L 3309 4134 
L 1259 4134 
L 1259 2759 
L 3109 2759 
L 3109 2228 
L 1259 2228 
L 1259 0 
L 628 0 
L 628 4666 
z
" transform="scale(0.015625)"/>
        <path id="DejaVuSans-4c" d="M 628 4666 
L 1259 4666 
L 1259 531 
L 3531 531 
L 3531 0 
L 628 0 
L 628 4666 
z
" transform="scale(0.015625)"/>
       </defs>
       <use xlink:href="#DejaVuSans-46"/>
       <use xlink:href="#DejaVuSans-4c" transform="translate(57.519531 0)"/>
      </g>
     </g>
    </g>
    <g id="ytick_2">
     <g id="line2d_4">
      <g>
       <use xlink:href="#med00ddc03b" x="193.320313" y="34.309412" style="stroke: #000000; stroke-width: 0.8"/>
      </g>
     </g>
     <g id="text_5">
      <!-- PL-1 -->
      <g transform="translate(164.923438 38.108631) scale(0.1 -0.1)">
       <defs>
        <path id="DejaVuSans-50" d="M 1259 4147 
L 1259 2394 
L 2053 2394 
Q 2494 2394 2734 2622 
Q 2975 2850 2975 3272 
Q 2975 3691 2734 3919 
Q 2494 4147 2053 4147 
L 1259 4147 
z
M 628 4666 
L 2053 4666 
Q 2838 4666 3239 4311 
Q 3641 3956 3641 3272 
Q 3641 2581 3239 2228 
Q 2838 1875 2053 1875 
L 1259 1875 
L 1259 0 
L 628 0 
L 628 4666 
z
" transform="scale(0.015625)"/>
        <path id="DejaVuSans-2d" d="M 313 2009 
L 1997 2009 
L 1997 1497 
L 313 1497 
L 313 2009 
z
" transform="scale(0.015625)"/>
       </defs>
       <use xlink:href="#DejaVuSans-50"/>
       <use xlink:href="#DejaVuSans-4c" transform="translate(60.302734 0)"/>
       <use xlink:href="#DejaVuSans-2d" transform="translate(114.265625 0)"/>
       <use xlink:href="#DejaVuSans-31" transform="translate(150.349609 0)"/>
      </g>
     </g>
    </g>
    <g id="ytick_3">
     <g id="line2d_5">
      <g>
       <use xlink:href="#med00ddc03b" x="193.320313" y="52.382353" style="stroke: #000000; stroke-width: 0.8"/>
      </g>
     </g>
     <g id="text_6">
      <!-- PL-2 -->
      <g transform="translate(164.923438 56.181572) scale(0.1 -0.1)">
       <defs>
        <path id="DejaVuSans-32" d="M 1228 531 
L 3431 531 
L 3431 0 
L 469 0 
L 469 531 
Q 828 903 1448 1529 
Q 2069 2156 2228 2338 
Q 2531 2678 2651 2914 
Q 2772 3150 2772 3378 
Q 2772 3750 2511 3984 
Q 2250 4219 1831 4219 
Q 1534 4219 1204 4116 
Q 875 4013 500 3803 
L 500 4441 
Q 881 4594 1212 4672 
Q 1544 4750 1819 4750 
Q 2544 4750 2975 4387 
Q 3406 4025 3406 3419 
Q 3406 3131 3298 2873 
Q 3191 2616 2906 2266 
Q 2828 2175 2409 1742 
Q 1991 1309 1228 531 
z
" transform="scale(0.015625)"/>
       </defs>
       <use xlink:href="#DejaVuSans-50"/>
       <use xlink:href="#DejaVuSans-4c" transform="translate(60.302734 0)"/>
       <use xlink:href="#DejaVuSans-2d" transform="translate(114.265625 0)"/>
       <use xlink:href="#DejaVuSans-32" transform="translate(150.349609 0)"/>
      </g>
     </g>
    </g>
    <g id="ytick_4">
     <g id="line2d_6">
      <g>
       <use xlink:href="#med00ddc03b" x="193.320313" y="70.455294" style="stroke: #000000; stroke-width: 0.8"/>
      </g>
     </g>
     <g id="text_7">
      <!-- PL -->
      <g transform="translate(174.71875 74.254513) scale(0.1 -0.1)">
       <use xlink:href="#DejaVuSans-50"/>
       <use xlink:href="#DejaVuSans-4c" transform="translate(60.302734 0)"/>
      </g>
     </g>
    </g>
    <g id="ytick_5">
     <g id="line2d_7">
      <g>
       <use xlink:href="#med00ddc03b" x="193.320313" y="88.528235" style="stroke: #000000; stroke-width: 0.8"/>
      </g>
     </g>
     <g id="text_8">
      <!-- FL+PL -->
      <g transform="translate(155.015625 92.327454) scale(0.1 -0.1)">
       <defs>
        <path id="DejaVuSans-2b" d="M 2944 4013 
L 2944 2272 
L 4684 2272 
L 4684 1741 
L 2944 1741 
L 2944 0 
L 2419 0 
L 2419 1741 
L 678 1741 
L 678 2272 
L 2419 2272 
L 2419 4013 
L 2944 4013 
z
" transform="scale(0.015625)"/>
       </defs>
       <use xlink:href="#DejaVuSans-46"/>
       <use xlink:href="#DejaVuSans-4c" transform="translate(57.519531 0)"/>
       <use xlink:href="#DejaVuSans-2b" transform="translate(113.232422 0)"/>
       <use xlink:href="#DejaVuSans-50" transform="translate(197.021484 0)"/>
       <use xlink:href="#DejaVuSans-4c" transform="translate(257.324219 0)"/>
      </g>
     </g>
    </g>
    <g id="ytick_6">
     <g id="line2d_8">
      <g>
       <use xlink:href="#med00ddc03b" x="193.320313" y="106.601176" style="stroke: #000000; stroke-width: 0.8"/>
      </g>
     </g>
     <g id="text_9">
      <!-- gemma3:12b_independent -->
      <g transform="translate(51.189063 110.400395) scale(0.1 -0.1)">
       <defs>
        <path id="DejaVuSans-67" d="M 2906 1791 
Q 2906 2416 2648 2759 
Q 2391 3103 1925 3103 
Q 1463 3103 1205 2759 
Q 947 2416 947 1791 
Q 947 1169 1205 825 
Q 1463 481 1925 481 
Q 2391 481 2648 825 
Q 2906 1169 2906 1791 
z
M 3481 434 
Q 3481 -459 3084 -895 
Q 2688 -1331 1869 -1331 
Q 1566 -1331 1297 -1286 
Q 1028 -1241 775 -1147 
L 775 -588 
Q 1028 -725 1275 -790 
Q 1522 -856 1778 -856 
Q 2344 -856 2625 -561 
Q 2906 -266 2906 331 
L 2906 616 
Q 2728 306 2450 153 
Q 2172 0 1784 0 
Q 1141 0 747 490 
Q 353 981 353 1791 
Q 353 2603 747 3093 
Q 1141 3584 1784 3584 
Q 2172 3584 2450 3431 
Q 2728 3278 2906 2969 
L 2906 3500 
L 3481 3500 
L 3481 434 
z
" transform="scale(0.015625)"/>
        <path id="DejaVuSans-6d" d="M 3328 2828 
Q 3544 3216 3844 3400 
Q 4144 3584 4550 3584 
Q 5097 3584 5394 3201 
Q 5691 2819 5691 2113 
L 5691 0 
L 5113 0 
L 5113 2094 
Q 5113 2597 4934 2840 
Q 4756 3084 4391 3084 
Q 3944 3084 3684 2787 
Q 3425 2491 3425 1978 
L 3425 0 
L 2847 0 
L 2847 2094 
Q 2847 2600 2669 2842 
Q 2491 3084 2119 3084 
Q 1678 3084 1418 2786 
Q 1159 2488 1159 1978 
L 1159 0 
L 581 0 
L 581 3500 
L 1159 3500 
L 1159 2956 
Q 1356 3278 1631 3431 
Q 1906 3584 2284 3584 
Q 2666 3584 2933 3390 
Q 3200 3197 3328 2828 
z
" transform="scale(0.015625)"/>
        <path id="DejaVuSans-61" d="M 2194 1759 
Q 1497 1759 1228 1600 
Q 959 1441 959 1056 
Q 959 750 1161 570 
Q 1363 391 1709 391 
Q 2188 391 2477 730 
Q 2766 1069 2766 1631 
L 2766 1759 
L 2194 1759 
z
M 3341 1997 
L 3341 0 
L 2766 0 
L 2766 531 
Q 2569 213 2275 61 
Q 1981 -91 1556 -91 
Q 1019 -91 701 211 
Q 384 513 384 1019 
Q 384 1609 779 1909 
Q 1175 2209 1959 2209 
L 2766 2209 
L 2766 2266 
Q 2766 2663 2505 2880 
Q 2244 3097 1772 3097 
Q 1472 3097 1187 3025 
Q 903 2953 641 2809 
L 641 3341 
Q 956 3463 1253 3523 
Q 1550 3584 1831 3584 
Q 2591 3584 2966 3190 
Q 3341 2797 3341 1997 
z
" transform="scale(0.015625)"/>
        <path id="DejaVuSans-33" d="M 2597 2516 
Q 3050 2419 3304 2112 
Q 3559 1806 3559 1356 
Q 3559 666 3084 287 
Q 2609 -91 1734 -91 
Q 1441 -91 1130 -33 
Q 819 25 488 141 
L 488 750 
Q 750 597 1062 519 
Q 1375 441 1716 441 
Q 2309 441 2620 675 
Q 2931 909 2931 1356 
Q 2931 1769 2642 2001 
Q 2353 2234 1838 2234 
L 1294 2234 
L 1294 2753 
L 1863 2753 
Q 2328 2753 2575 2939 
Q 2822 3125 2822 3475 
Q 2822 3834 2567 4026 
Q 2313 4219 1838 4219 
Q 1578 4219 1281 4162 
Q 984 4106 628 3988 
L 628 4550 
Q 988 4650 1302 4700 
Q 1616 4750 1894 4750 
Q 2613 4750 3031 4423 
Q 3450 4097 3450 3541 
Q 3450 3153 3228 2886 
Q 3006 2619 2597 2516 
z
" transform="scale(0.015625)"/>
        <path id="DejaVuSans-3a" d="M 750 794 
L 1409 794 
L 1409 0 
L 750 0 
L 750 794 
z
M 750 3309 
L 1409 3309 
L 1409 2516 
L 750 2516 
L 750 3309 
z
" transform="scale(0.015625)"/>
        <path id="DejaVuSans-62" d="M 3116 1747 
Q 3116 2381 2855 2742 
Q 2594 3103 2138 3103 
Q 1681 3103 1420 2742 
Q 1159 2381 1159 1747 
Q 1159 1113 1420 752 
Q 1681 391 2138 391 
Q 2594 391 2855 752 
Q 3116 1113 3116 1747 
z
M 1159 2969 
Q 1341 3281 1617 3432 
Q 1894 3584 2278 3584 
Q 2916 3584 3314 3078 
Q 3713 2572 3713 1747 
Q 3713 922 3314 415 
Q 2916 -91 2278 -91 
Q 1894 -91 1617 61 
Q 1341 213 1159 525 
L 1159 0 
L 581 0 
L 581 4863 
L 1159 4863 
L 1159 2969 
z
" transform="scale(0.015625)"/>
        <path id="DejaVuSans-5f" d="M 3263 -1063 
L 3263 -1509 
L -63 -1509 
L -63 -1063 
L 3263 -1063 
z
" transform="scale(0.015625)"/>
        <path id="DejaVuSans-69" d="M 603 3500 
L 1178 3500 
L 1178 0 
L 603 0 
L 603 3500 
z
M 603 4863 
L 1178 4863 
L 1178 4134 
L 603 4134 
L 603 4863 
z
" transform="scale(0.015625)"/>
        <path id="DejaVuSans-6e" d="M 3513 2113 
L 3513 0 
L 2938 0 
L 2938 2094 
Q 2938 2591 2744 2837 
Q 2550 3084 2163 3084 
Q 1697 3084 1428 2787 
Q 1159 2491 1159 1978 
L 1159 0 
L 581 0 
L 581 3500 
L 1159 3500 
L 1159 2956 
Q 1366 3272 1645 3428 
Q 1925 3584 2291 3584 
Q 2894 3584 3203 3211 
Q 3513 2838 3513 2113 
z
" transform="scale(0.015625)"/>
        <path id="DejaVuSans-64" d="M 2906 2969 
L 2906 4863 
L 3481 4863 
L 3481 0 
L 2906 0 
L 2906 525 
Q 2725 213 2448 61 
Q 2172 -91 1784 -91 
Q 1150 -91 751 415 
Q 353 922 353 1747 
Q 353 2572 751 3078 
Q 1150 3584 1784 3584 
Q 2172 3584 2448 3432 
Q 2725 3281 2906 2969 
z
M 947 1747 
Q 947 1113 1208 752 
Q 1469 391 1925 391 
Q 2381 391 2643 752 
Q 2906 1113 2906 1747 
Q 2906 2381 2643 2742 
Q 2381 3103 1925 3103 
Q 1469 3103 1208 2742 
Q 947 2381 947 1747 
z
" transform="scale(0.015625)"/>
        <path id="DejaVuSans-70" d="M 1159 525 
L 1159 -1331 
L 581 -1331 
L 581 3500 
L 1159 3500 
L 1159 2969 
Q 1341 3281 1617 3432 
Q 1894 3584 2278 3584 
Q 2916 3584 3314 3078 
Q 3713 2572 3713 1747 
Q 3713 922 3314 415 
Q 2916 -91 2278 -91 
Q 1894 -91 1617 61 
Q 1341 213 1159 525 
z
M 3116 1747 
Q 3116 2381 2855 2742 
Q 2594 3103 2138 3103 
Q 1681 3103 1420 2742 
Q 1159 2381 1159 1747 
Q 1159 1113 1420 752 
Q 1681 391 2138 391 
Q 2594 391 2855 752 
Q 3116 1113 3116 1747 
z
" transform="scale(0.015625)"/>
        <path id="DejaVuSans-74" d="M 1172 4494 
L 1172 3500 
L 2356 3500 
L 2356 3053 
L 1172 3053 
L 1172 1153 
Q 1172 725 1289 603 
Q 1406 481 1766 481 
L 2356 481 
L 2356 0 
L 1766 0 
Q 1100 0 847 248 
Q 594 497 594 1153 
L 594 3053 
L 172 3053 
L 172 3500 
L 594 3500 
L 594 4494 
L 1172 4494 
z
" transform="scale(0.015625)"/>
       </defs>
       <use xlink:href="#DejaVuSans-67"/>
       <use xlink:href="#DejaVuSans-65" transform="translate(63.476562 0)"/>
       <use xlink:href="#DejaVuSans-6d" transform="translate(125 0)"/>
       <use xlink:href="#DejaVuSans-6d" transform="translate(222.412109 0)"/>
       <use xlink:href="#DejaVuSans-61" transform="translate(319.824219 0)"/>
       <use xlink:href="#DejaVuSans-33" transform="translate(381.103516 0)"/>
       <use xlink:href="#DejaVuSans-3a" transform="translate(444.726562 0)"/>
       <use xlink:href="#DejaVuSans-31" transform="translate(478.417969 0)"/>
       <use xlink:href="#DejaVuSans-32" transform="translate(542.041016 0)"/>
       <use xlink:href="#DejaVuSans-62" transform="translate(605.664062 0)"/>
       <use xlink:href="#DejaVuSans-5f" transform="translate(669.140625 0)"/>
       <use xlink:href="#DejaVuSans-69" transform="translate(719.140625 0)"/>
       <use xlink:href="#DejaVuSans-6e" transform="translate(746.923828 0)"/>
       <use xlink:href="#DejaVuSans-64" transform="translate(810.302734 0)"/>
       <use xlink:href="#DejaVuSans-65" transform="translate(873.779297 0)"/>
       <use xlink:href="#DejaVuSans-70" transform="translate(935.302734 0)"/>
       <use xlink:href="#DejaVuSans-65" transform="translate(998.779297 0)"/>
       <use xlink:href="#DejaVuSans-6e" transform="translate(1060.302734 0)"/>
       <use xlink:href="#DejaVuSans-64" transform="translate(1123.681641 0)"/>
       <use xlink:href="#DejaVuSans-65" transform="translate(1187.158203 0)"/>
       <use xlink:href="#DejaVuSans-6e" transform="translate(1248.681641 0)"/>
       <use xlink:href="#DejaVuSans-74" transform="translate(1312.060547 0)"/>
      </g>
     </g>
    </g>
    <g id="ytick_7">
     <g id="line2d_9">
      <g>
       <use xlink:href="#med00ddc03b" x="193.320313" y="124.674118" style="stroke: #000000; stroke-width: 0.8"/>
      </g>
     </g>
     <g id="text_10">
      <!-- gemma3:12b-it-qat_independent -->
      <g transform="translate(20.878125 128.473336) scale(0.1 -0.1)">
       <defs>
        <path id="DejaVuSans-71" d="M 947 1747 
Q 947 1113 1208 752 
Q 1469 391 1925 391 
Q 2381 391 2643 752 
Q 2906 1113 2906 1747 
Q 2906 2381 2643 2742 
Q 2381 3103 1925 3103 
Q 1469 3103 1208 2742 
Q 947 2381 947 1747 
z
M 2906 525 
Q 2725 213 2448 61 
Q 2172 -91 1784 -91 
Q 1150 -91 751 415 
Q 353 922 353 1747 
Q 353 2572 751 3078 
Q 1150 3584 1784 3584 
Q 2172 3584 2448 3432 
Q 2725 3281 2906 2969 
L 2906 3500 
L 3481 3500 
L 3481 -1331 
L 2906 -1331 
L 2906 525 
z
" transform="scale(0.015625)"/>
       </defs>
       <use xlink:href="#DejaVuSans-67"/>
       <use xlink:href="#DejaVuSans-65" transform="translate(63.476562 0)"/>
       <use xlink:href="#DejaVuSans-6d" transform="translate(125 0)"/>
       <use xlink:href="#DejaVuSans-6d" transform="translate(222.412109 0)"/>
       <use xlink:href="#DejaVuSans-61" transform="translate(319.824219 0)"/>
       <use xlink:href="#DejaVuSans-33" transform="translate(381.103516 0)"/>
       <use xlink:href="#DejaVuSans-3a" transform="translate(444.726562 0)"/>
       <use xlink:href="#DejaVuSans-31" transform="translate(478.417969 0)"/>
       <use xlink:href="#DejaVuSans-32" transform="translate(542.041016 0)"/>
       <use xlink:href="#DejaVuSans-62" transform="translate(605.664062 0)"/>
       <use xlink:href="#DejaVuSans-2d" transform="translate(669.140625 0)"/>
       <use xlink:href="#DejaVuSans-69" transform="translate(705.224609 0)"/>
       <use xlink:href="#DejaVuSans-74" transform="translate(733.007812 0)"/>
       <use xlink:href="#DejaVuSans-2d" transform="translate(772.216797 0)"/>
       <use xlink:href="#DejaVuSans-71" transform="translate(808.300781 0)"/>
       <use xlink:href="#DejaVuSans-61" transform="translate(871.777344 0)"/>
       <use xlink:href="#DejaVuSans-74" transform="translate(933.056641 0)"/>
       <use xlink:href="#DejaVuSans-5f" transform="translate(972.265625 0)"/>
       <use xlink:href="#DejaVuSans-69" transform="translate(1022.265625 0)"/>
       <use xlink:href="#DejaVuSans-6e" transform="translate(1050.048828 0)"/>
       <use xlink:href="#DejaVuSans-64" transform="translate(1113.427734 0)"/>
       <use xlink:href="#DejaVuSans-65" transform="translate(1176.904297 0)"/>
       <use xlink:href="#DejaVuSans-70" transform="translate(1238.427734 0)"/>
       <use xlink:href="#DejaVuSans-65" transform="translate(1301.904297 0)"/>
       <use xlink:href="#DejaVuSans-6e" transform="translate(1363.427734 0)"/>
       <use xlink:href="#DejaVuSans-64" transform="translate(1426.806641 0)"/>
       <use xlink:href="#DejaVuSans-65" transform="translate(1490.283203 0)"/>
       <use xlink:href="#DejaVuSans-6e" transform="translate(1551.806641 0)"/>
       <use xlink:href="#DejaVuSans-74" transform="translate(1615.185547 0)"/>
      </g>
     </g>
    </g>
    <g id="ytick_8">
     <g id="line2d_10">
      <g>
       <use xlink:href="#med00ddc03b" x="193.320313" y="142.747059" style="stroke: #000000; stroke-width: 0.8"/>
      </g>
     </g>
     <g id="text_11">
      <!-- gemma3:27b_independent -->
      <g transform="translate(51.189063 146.546278) scale(0.1 -0.1)">
       <defs>
        <path id="DejaVuSans-37" d="M 525 4666 
L 3525 4666 
L 3525 4397 
L 1831 0 
L 1172 0 
L 2766 4134 
L 525 4134 
L 525 4666 
z
" transform="scale(0.015625)"/>
       </defs>
       <use xlink:href="#DejaVuSans-67"/>
       <use xlink:href="#DejaVuSans-65" transform="translate(63.476562 0)"/>
       <use xlink:href="#DejaVuSans-6d" transform="translate(125 0)"/>
       <use xlink:href="#DejaVuSans-6d" transform="translate(222.412109 0)"/>
       <use xlink:href="#DejaVuSans-61" transform="translate(319.824219 0)"/>
       <use xlink:href="#DejaVuSans-33" transform="translate(381.103516 0)"/>
       <use xlink:href="#DejaVuSans-3a" transform="translate(444.726562 0)"/>
       <use xlink:href="#DejaVuSans-32" transform="translate(478.417969 0)"/>
       <use xlink:href="#DejaVuSans-37" transform="translate(542.041016 0)"/>
       <use xlink:href="#DejaVuSans-62" transform="translate(605.664062 0)"/>
       <use xlink:href="#DejaVuSans-5f" transform="translate(669.140625 0)"/>
       <use xlink:href="#DejaVuSans-69" transform="translate(719.140625 0)"/>
       <use xlink:href="#DejaVuSans-6e" transform="translate(746.923828 0)"/>
       <use xlink:href="#DejaVuSans-64" transform="translate(810.302734 0)"/>
       <use xlink:href="#DejaVuSans-65" transform="translate(873.779297 0)"/>
       <use xlink:href="#DejaVuSans-70" transform="translate(935.302734 0)"/>
       <use xlink:href="#DejaVuSans-65" transform="translate(998.779297 0)"/>
       <use xlink:href="#DejaVuSans-6e" transform="translate(1060.302734 0)"/>
       <use xlink:href="#DejaVuSans-64" transform="translate(1123.681641 0)"/>
       <use xlink:href="#DejaVuSans-65" transform="translate(1187.158203 0)"/>
       <use xlink:href="#DejaVuSans-6e" transform="translate(1248.681641 0)"/>
       <use xlink:href="#DejaVuSans-74" transform="translate(1312.060547 0)"/>
      </g>
     </g>
    </g>
    <g id="ytick_9">
     <g id="line2d_11">
      <g>
       <use xlink:href="#med00ddc03b" x="193.320313" y="160.82" style="stroke: #000000; stroke-width: 0.8"/>
      </g>
     </g>
     <g id="text_12">
      <!-- gemma3:27b-it-qat_independent -->
      <g transform="translate(20.878125 164.619219) scale(0.1 -0.1)">
       <use xlink:href="#DejaVuSans-67"/>
       <use xlink:href="#DejaVuSans-65" transform="translate(63.476562 0)"/>
       <use xlink:href="#DejaVuSans-6d" transform="translate(125 0)"/>
       <use xlink:href="#DejaVuSans-6d" transform="translate(222.412109 0)"/>
       <use xlink:href="#DejaVuSans-61" transform="translate(319.824219 0)"/>
       <use xlink:href="#DejaVuSans-33" transform="translate(381.103516 0)"/>
       <use xlink:href="#DejaVuSans-3a" transform="translate(444.726562 0)"/>
       <use xlink:href="#DejaVuSans-32" transform="translate(478.417969 0)"/>
       <use xlink:href="#DejaVuSans-37" transform="translate(542.041016 0)"/>
       <use xlink:href="#DejaVuSans-62" transform="translate(605.664062 0)"/>
       <use xlink:href="#DejaVuSans-2d" transform="translate(669.140625 0)"/>
       <use xlink:href="#DejaVuSans-69" transform="translate(705.224609 0)"/>
       <use xlink:href="#DejaVuSans-74" transform="translate(733.007812 0)"/>
       <use xlink:href="#DejaVuSans-2d" transform="translate(772.216797 0)"/>
       <use xlink:href="#DejaVuSans-71" transform="translate(808.300781 0)"/>
       <use xlink:href="#DejaVuSans-61" transform="translate(871.777344 0)"/>
       <use xlink:href="#DejaVuSans-74" transform="translate(933.056641 0)"/>
       <use xlink:href="#DejaVuSans-5f" transform="translate(972.265625 0)"/>
       <use xlink:href="#DejaVuSans-69" transform="translate(1022.265625 0)"/>
       <use xlink:href="#DejaVuSans-6e" transform="translate(1050.048828 0)"/>
       <use xlink:href="#DejaVuSans-64" transform="translate(1113.427734 0)"/>
       <use xlink:href="#DejaVuSans-65" transform="translate(1176.904297 0)"/>
       <use xlink:href="#DejaVuSans-70" transform="translate(1238.427734 0)"/>
       <use xlink:href="#DejaVuSans-65" transform="translate(1301.904297 0)"/>
       <use xlink:href="#DejaVuSans-6e" transform="translate(1363.427734 0)"/>
       <use xlink:href="#DejaVuSans-64" transform="translate(1426.806641 0)"/>
       <use xlink:href="#DejaVuSans-65" transform="translate(1490.283203 0)"/>
       <use xlink:href="#DejaVuSans-6e" transform="translate(1551.806641 0)"/>
       <use xlink:href="#DejaVuSans-74" transform="translate(1615.185547 0)"/>
      </g>
     </g>
    </g>
    <g id="ytick_10">
     <g id="line2d_12">
      <g>
       <use xlink:href="#med00ddc03b" x="193.320313" y="178.892941" style="stroke: #000000; stroke-width: 0.8"/>
      </g>
     </g>
     <g id="text_13">
      <!-- llama3.3:70b_independent -->
      <g transform="translate(52.20625 182.69216) scale(0.1 -0.1)">
       <defs>
        <path id="DejaVuSans-6c" d="M 603 4863 
L 1178 4863 
L 1178 0 
L 603 0 
L 603 4863 
z
" transform="scale(0.015625)"/>
        <path id="DejaVuSans-2e" d="M 684 794 
L 1344 794 
L 1344 0 
L 684 0 
L 684 794 
z
" transform="scale(0.015625)"/>
       </defs>
       <use xlink:href="#DejaVuSans-6c"/>
       <use xlink:href="#DejaVuSans-6c" transform="translate(27.783203 0)"/>
       <use xlink:href="#DejaVuSans-61" transform="translate(55.566406 0)"/>
       <use xlink:href="#DejaVuSans-6d" transform="translate(116.845703 0)"/>
       <use xlink:href="#DejaVuSans-61" transform="translate(214.257812 0)"/>
       <use xlink:href="#DejaVuSans-33" transform="translate(275.537109 0)"/>
       <use xlink:href="#DejaVuSans-2e" transform="translate(339.160156 0)"/>
       <use xlink:href="#DejaVuSans-33" transform="translate(370.947266 0)"/>
       <use xlink:href="#DejaVuSans-3a" transform="translate(434.570312 0)"/>
       <use xlink:href="#DejaVuSans-37" transform="translate(468.261719 0)"/>
       <use xlink:href="#DejaVuSans-30" transform="translate(531.884766 0)"/>
       <use xlink:href="#DejaVuSans-62" transform="translate(595.507812 0)"/>
       <use xlink:href="#DejaVuSans-5f" transform="translate(658.984375 0)"/>
       <use xlink:href="#DejaVuSans-69" transform="translate(708.984375 0)"/>
       <use xlink:href="#DejaVuSans-6e" transform="translate(736.767578 0)"/>
       <use xlink:href="#DejaVuSans-64" transform="translate(800.146484 0)"/>
       <use xlink:href="#DejaVuSans-65" transform="translate(863.623047 0)"/>
       <use xlink:href="#DejaVuSans-70" transform="translate(925.146484 0)"/>
       <use xlink:href="#DejaVuSans-65" transform="translate(988.623047 0)"/>
       <use xlink:href="#DejaVuSans-6e" transform="translate(1050.146484 0)"/>
       <use xlink:href="#DejaVuSans-64" transform="translate(1113.525391 0)"/>
       <use xlink:href="#DejaVuSans-65" transform="translate(1177.001953 0)"/>
       <use xlink:href="#DejaVuSans-6e" transform="translate(1238.525391 0)"/>
       <use xlink:href="#DejaVuSans-74" transform="translate(1301.904297 0)"/>
      </g>
     </g>
    </g>
    <g id="ytick_11">
     <g id="line2d_13">
      <g>
       <use xlink:href="#med00ddc03b" x="193.320313" y="196.965882" style="stroke: #000000; stroke-width: 0.8"/>
      </g>
     </g>
     <g id="text_14">
      <!-- llama4:scout_independent -->
      <g transform="translate(53.735938 200.765101) scale(0.1 -0.1)">
       <defs>
        <path id="DejaVuSans-34" d="M 2419 4116 
L 825 1625 
L 2419 1625 
L 2419 4116 
z
M 2253 4666 
L 3047 4666 
L 3047 1625 
L 3713 1625 
L 3713 1100 
L 3047 1100 
L 3047 0 
L 2419 0 
L 2419 1100 
L 313 1100 
L 313 1709 
L 2253 4666 
z
" transform="scale(0.015625)"/>
        <path id="DejaVuSans-75" d="M 544 1381 
L 544 3500 
L 1119 3500 
L 1119 1403 
Q 1119 906 1312 657 
Q 1506 409 1894 409 
Q 2359 409 2629 706 
Q 2900 1003 2900 1516 
L 2900 3500 
L 3475 3500 
L 3475 0 
L 2900 0 
L 2900 538 
Q 2691 219 2414 64 
Q 2138 -91 1772 -91 
Q 1169 -91 856 284 
Q 544 659 544 1381 
z
M 1991 3584 
L 1991 3584 
z
" transform="scale(0.015625)"/>
       </defs>
       <use xlink:href="#DejaVuSans-6c"/>
       <use xlink:href="#DejaVuSans-6c" transform="translate(27.783203 0)"/>
       <use xlink:href="#DejaVuSans-61" transform="translate(55.566406 0)"/>
       <use xlink:href="#DejaVuSans-6d" transform="translate(116.845703 0)"/>
       <use xlink:href="#DejaVuSans-61" transform="translate(214.257812 0)"/>
       <use xlink:href="#DejaVuSans-34" transform="translate(275.537109 0)"/>
       <use xlink:href="#DejaVuSans-3a" transform="translate(339.160156 0)"/>
       <use xlink:href="#DejaVuSans-73" transform="translate(372.851562 0)"/>
       <use xlink:href="#DejaVuSans-63" transform="translate(424.951172 0)"/>
       <use xlink:href="#DejaVuSans-6f" transform="translate(479.931641 0)"/>
       <use xlink:href="#DejaVuSans-75" transform="translate(541.113281 0)"/>
       <use xlink:href="#DejaVuSans-74" transform="translate(604.492188 0)"/>
       <use xlink:href="#DejaVuSans-5f" transform="translate(643.701172 0)"/>
       <use xlink:href="#DejaVuSans-69" transform="translate(693.701172 0)"/>
       <use xlink:href="#DejaVuSans-6e" transform="translate(721.484375 0)"/>
       <use xlink:href="#DejaVuSans-64" transform="translate(784.863281 0)"/>
       <use xlink:href="#DejaVuSans-65" transform="translate(848.339844 0)"/>
       <use xlink:href="#DejaVuSans-70" transform="translate(909.863281 0)"/>
       <use xlink:href="#DejaVuSans-65" transform="translate(973.339844 0)"/>
       <use xlink:href="#DejaVuSans-6e" transform="translate(1034.863281 0)"/>
       <use xlink:href="#DejaVuSans-64" transform="translate(1098.242188 0)"/>
       <use xlink:href="#DejaVuSans-65" transform="translate(1161.71875 0)"/>
       <use xlink:href="#DejaVuSans-6e" transform="translate(1223.242188 0)"/>
       <use xlink:href="#DejaVuSans-74" transform="translate(1286.621094 0)"/>
      </g>
     </g>
    </g>
    <g id="ytick_12">
     <g id="line2d_14">
      <g>
       <use xlink:href="#med00ddc03b" x="193.320313" y="215.038824" style="stroke: #000000; stroke-width: 0.8"/>
      </g>
     </g>
     <g id="text_15">
      <!-- gemma3:12b_cumulative -->
      <g transform="translate(58.814063 218.838042) scale(0.1 -0.1)">
       <defs>
        <path id="DejaVuSans-76" d="M 191 3500 
L 800 3500 
L 1894 563 
L 2988 3500 
L 3597 3500 
L 2284 0 
L 1503 0 
L 191 3500 
z
" transform="scale(0.015625)"/>
       </defs>
       <use xlink:href="#DejaVuSans-67"/>
       <use xlink:href="#DejaVuSans-65" transform="translate(63.476562 0)"/>
       <use xlink:href="#DejaVuSans-6d" transform="translate(125 0)"/>
       <use xlink:href="#DejaVuSans-6d" transform="translate(222.412109 0)"/>
       <use xlink:href="#DejaVuSans-61" transform="translate(319.824219 0)"/>
       <use xlink:href="#DejaVuSans-33" transform="translate(381.103516 0)"/>
       <use xlink:href="#DejaVuSans-3a" transform="translate(444.726562 0)"/>
       <use xlink:href="#DejaVuSans-31" transform="translate(478.417969 0)"/>
       <use xlink:href="#DejaVuSans-32" transform="translate(542.041016 0)"/>
       <use xlink:href="#DejaVuSans-62" transform="translate(605.664062 0)"/>
       <use xlink:href="#DejaVuSans-5f" transform="translate(669.140625 0)"/>
       <use xlink:href="#DejaVuSans-63" transform="translate(719.140625 0)"/>
       <use xlink:href="#DejaVuSans-75" transform="translate(774.121094 0)"/>
       <use xlink:href="#DejaVuSans-6d" transform="translate(837.5 0)"/>
       <use xlink:href="#DejaVuSans-75" transform="translate(934.912109 0)"/>
       <use xlink:href="#DejaVuSans-6c" transform="translate(998.291016 0)"/>
       <use xlink:href="#DejaVuSans-61" transform="translate(1026.074219 0)"/>
       <use xlink:href="#DejaVuSans-74" transform="translate(1087.353516 0)"/>
       <use xlink:href="#DejaVuSans-69" transform="translate(1126.5625 0)"/>
       <use xlink:href="#DejaVuSans-76" transform="translate(1154.345703 0)"/>
       <use xlink:href="#DejaVuSans-65" transform="translate(1213.525391 0)"/>
      </g>
     </g>
    </g>
    <g id="ytick_13">
     <g id="line2d_15">
      <g>
       <use xlink:href="#med00ddc03b" x="193.320313" y="233.111765" style="stroke: #000000; stroke-width: 0.8"/>
      </g>
     </g>
     <g id="text_16">
      <!-- gemma3:12b-it-qat_cumulative -->
      <g transform="translate(28.503125 236.910983) scale(0.1 -0.1)">
       <use xlink:href="#DejaVuSans-67"/>
       <use xlink:href="#DejaVuSans-65" transform="translate(63.476562 0)"/>
       <use xlink:href="#DejaVuSans-6d" transform="translate(125 0)"/>
       <use xlink:href="#DejaVuSans-6d" transform="translate(222.412109 0)"/>
       <use xlink:href="#DejaVuSans-61" transform="translate(319.824219 0)"/>
       <use xlink:href="#DejaVuSans-33" transform="translate(381.103516 0)"/>
       <use xlink:href="#DejaVuSans-3a" transform="translate(444.726562 0)"/>
       <use xlink:href="#DejaVuSans-31" transform="translate(478.417969 0)"/>
       <use xlink:href="#DejaVuSans-32" transform="translate(542.041016 0)"/>
       <use xlink:href="#DejaVuSans-62" transform="translate(605.664062 0)"/>
       <use xlink:href="#DejaVuSans-2d" transform="translate(669.140625 0)"/>
       <use xlink:href="#DejaVuSans-69" transform="translate(705.224609 0)"/>
       <use xlink:href="#DejaVuSans-74" transform="translate(733.007812 0)"/>
       <use xlink:href="#DejaVuSans-2d" transform="translate(772.216797 0)"/>
       <use xlink:href="#DejaVuSans-71" transform="translate(808.300781 0)"/>
       <use xlink:href="#DejaVuSans-61" transform="translate(871.777344 0)"/>
       <use xlink:href="#DejaVuSans-74" transform="translate(933.056641 0)"/>
       <use xlink:href="#DejaVuSans-5f" transform="translate(972.265625 0)"/>
       <use xlink:href="#DejaVuSans-63" transform="translate(1022.265625 0)"/>
       <use xlink:href="#DejaVuSans-75" transform="translate(1077.246094 0)"/>
       <use xlink:href="#DejaVuSans-6d" transform="translate(1140.625 0)"/>
       <use xlink:href="#DejaVuSans-75" transform="translate(1238.037109 0)"/>
       <use xlink:href="#DejaVuSans-6c" transform="translate(1301.416016 0)"/>
       <use xlink:href="#DejaVuSans-61" transform="translate(1329.199219 0)"/>
       <use xlink:href="#DejaVuSans-74" transform="translate(1390.478516 0)"/>
       <use xlink:href="#DejaVuSans-69" transform="translate(1429.6875 0)"/>
       <use xlink:href="#DejaVuSans-76" transform="translate(1457.470703 0)"/>
       <use xlink:href="#DejaVuSans-65" transform="translate(1516.650391 0)"/>
      </g>
     </g>
    </g>
    <g id="ytick_14">
     <g id="line2d_16">
      <g>
       <use xlink:href="#med00ddc03b" x="193.320313" y="251.184706" style="stroke: #000000; stroke-width: 0.8"/>
      </g>
     </g>
     <g id="text_17">
      <!-- gemma3:27b_cumulative -->
      <g transform="translate(58.814063 254.983925) scale(0.1 -0.1)">
       <use xlink:href="#DejaVuSans-67"/>
       <use xlink:href="#DejaVuSans-65" transform="translate(63.476562 0)"/>
       <use xlink:href="#DejaVuSans-6d" transform="translate(125 0)"/>
       <use xlink:href="#DejaVuSans-6d" transform="translate(222.412109 0)"/>
       <use xlink:href="#DejaVuSans-61" transform="translate(319.824219 0)"/>
       <use xlink:href="#DejaVuSans-33" transform="translate(381.103516 0)"/>
       <use xlink:href="#DejaVuSans-3a" transform="translate(444.726562 0)"/>
       <use xlink:href="#DejaVuSans-32" transform="translate(478.417969 0)"/>
       <use xlink:href="#DejaVuSans-37" transform="translate(542.041016 0)"/>
       <use xlink:href="#DejaVuSans-62" transform="translate(605.664062 0)"/>
       <use xlink:href="#DejaVuSans-5f" transform="translate(669.140625 0)"/>
       <use xlink:href="#DejaVuSans-63" transform="translate(719.140625 0)"/>
       <use xlink:href="#DejaVuSans-75" transform="translate(774.121094 0)"/>
       <use xlink:href="#DejaVuSans-6d" transform="translate(837.5 0)"/>
       <use xlink:href="#DejaVuSans-75" transform="translate(934.912109 0)"/>
       <use xlink:href="#DejaVuSans-6c" transform="translate(998.291016 0)"/>
       <use xlink:href="#DejaVuSans-61" transform="translate(1026.074219 0)"/>
       <use xlink:href="#DejaVuSans-74" transform="translate(1087.353516 0)"/>
       <use xlink:href="#DejaVuSans-69" transform="translate(1126.5625 0)"/>
       <use xlink:href="#DejaVuSans-76" transform="translate(1154.345703 0)"/>
       <use xlink:href="#DejaVuSans-65" transform="translate(1213.525391 0)"/>
      </g>
     </g>
    </g>
    <g id="ytick_15">
     <g id="line2d_17">
      <g>
       <use xlink:href="#med00ddc03b" x="193.320313" y="269.257647" style="stroke: #000000; stroke-width: 0.8"/>
      </g>
     </g>
     <g id="text_18">
      <!-- gemma3:27b-it-qat_cumulative -->
      <g transform="translate(28.503125 273.056866) scale(0.1 -0.1)">
       <use xlink:href="#DejaVuSans-67"/>
       <use xlink:href="#DejaVuSans-65" transform="translate(63.476562 0)"/>
       <use xlink:href="#DejaVuSans-6d" transform="translate(125 0)"/>
       <use xlink:href="#DejaVuSans-6d" transform="translate(222.412109 0)"/>
       <use xlink:href="#DejaVuSans-61" transform="translate(319.824219 0)"/>
       <use xlink:href="#DejaVuSans-33" transform="translate(381.103516 0)"/>
       <use xlink:href="#DejaVuSans-3a" transform="translate(444.726562 0)"/>
       <use xlink:href="#DejaVuSans-32" transform="translate(478.417969 0)"/>
       <use xlink:href="#DejaVuSans-37" transform="translate(542.041016 0)"/>
       <use xlink:href="#DejaVuSans-62" transform="translate(605.664062 0)"/>
       <use xlink:href="#DejaVuSans-2d" transform="translate(669.140625 0)"/>
       <use xlink:href="#DejaVuSans-69" transform="translate(705.224609 0)"/>
       <use xlink:href="#DejaVuSans-74" transform="translate(733.007812 0)"/>
       <use xlink:href="#DejaVuSans-2d" transform="translate(772.216797 0)"/>
       <use xlink:href="#DejaVuSans-71" transform="translate(808.300781 0)"/>
       <use xlink:href="#DejaVuSans-61" transform="translate(871.777344 0)"/>
       <use xlink:href="#DejaVuSans-74" transform="translate(933.056641 0)"/>
       <use xlink:href="#DejaVuSans-5f" transform="translate(972.265625 0)"/>
       <use xlink:href="#DejaVuSans-63" transform="translate(1022.265625 0)"/>
       <use xlink:href="#DejaVuSans-75" transform="translate(1077.246094 0)"/>
       <use xlink:href="#DejaVuSans-6d" transform="translate(1140.625 0)"/>
       <use xlink:href="#DejaVuSans-75" transform="translate(1238.037109 0)"/>
       <use xlink:href="#DejaVuSans-6c" transform="translate(1301.416016 0)"/>
       <use xlink:href="#DejaVuSans-61" transform="translate(1329.199219 0)"/>
       <use xlink:href="#DejaVuSans-74" transform="translate(1390.478516 0)"/>
       <use xlink:href="#DejaVuSans-69" transform="translate(1429.6875 0)"/>
       <use xlink:href="#DejaVuSans-76" transform="translate(1457.470703 0)"/>
       <use xlink:href="#DejaVuSans-65" transform="translate(1516.650391 0)"/>
      </g>
     </g>
    </g>
    <g id="ytick_16">
     <g id="line2d_18">
      <g>
       <use xlink:href="#med00ddc03b" x="193.320313" y="287.330588" style="stroke: #000000; stroke-width: 0.8"/>
      </g>
     </g>
     <g id="text_19">
      <!-- llama3.3:70b_cumulative -->
      <g transform="translate(59.83125 291.129807) scale(0.1 -0.1)">
       <use xlink:href="#DejaVuSans-6c"/>
       <use xlink:href="#DejaVuSans-6c" transform="translate(27.783203 0)"/>
       <use xlink:href="#DejaVuSans-61" transform="translate(55.566406 0)"/>
       <use xlink:href="#DejaVuSans-6d" transform="translate(116.845703 0)"/>
       <use xlink:href="#DejaVuSans-61" transform="translate(214.257812 0)"/>
       <use xlink:href="#DejaVuSans-33" transform="translate(275.537109 0)"/>
       <use xlink:href="#DejaVuSans-2e" transform="translate(339.160156 0)"/>
       <use xlink:href="#DejaVuSans-33" transform="translate(370.947266 0)"/>
       <use xlink:href="#DejaVuSans-3a" transform="translate(434.570312 0)"/>
       <use xlink:href="#DejaVuSans-37" transform="translate(468.261719 0)"/>
       <use xlink:href="#DejaVuSans-30" transform="translate(531.884766 0)"/>
       <use xlink:href="#DejaVuSans-62" transform="translate(595.507812 0)"/>
       <use xlink:href="#DejaVuSans-5f" transform="translate(658.984375 0)"/>
       <use xlink:href="#DejaVuSans-63" transform="translate(708.984375 0)"/>
       <use xlink:href="#DejaVuSans-75" transform="translate(763.964844 0)"/>
       <use xlink:href="#DejaVuSans-6d" transform="translate(827.34375 0)"/>
       <use xlink:href="#DejaVuSans-75" transform="translate(924.755859 0)"/>
       <use xlink:href="#DejaVuSans-6c" transform="translate(988.134766 0)"/>
       <use xlink:href="#DejaVuSans-61" transform="translate(1015.917969 0)"/>
       <use xlink:href="#DejaVuSans-74" transform="translate(1077.197266 0)"/>
       <use xlink:href="#DejaVuSans-69" transform="translate(1116.40625 0)"/>
       <use xlink:href="#DejaVuSans-76" transform="translate(1144.189453 0)"/>
       <use xlink:href="#DejaVuSans-65" transform="translate(1203.369141 0)"/>
      </g>
     </g>
    </g>
    <g id="ytick_17">
     <g id="line2d_19">
      <g>
       <use xlink:href="#med00ddc03b" x="193.320313" y="305.403529" style="stroke: #000000; stroke-width: 0.8"/>
      </g>
     </g>
     <g id="text_20">
      <!-- llama4:scout_cumulative -->
      <g transform="translate(61.360938 309.202748) scale(0.1 -0.1)">
       <use xlink:href="#DejaVuSans-6c"/>
       <use xlink:href="#DejaVuSans-6c" transform="translate(27.783203 0)"/>
       <use xlink:href="#DejaVuSans-61" transform="translate(55.566406 0)"/>
       <use xlink:href="#DejaVuSans-6d" transform="translate(116.845703 0)"/>
       <use xlink:href="#DejaVuSans-61" transform="translate(214.257812 0)"/>
       <use xlink:href="#DejaVuSans-34" transform="translate(275.537109 0)"/>
       <use xlink:href="#DejaVuSans-3a" transform="translate(339.160156 0)"/>
       <use xlink:href="#DejaVuSans-73" transform="translate(372.851562 0)"/>
       <use xlink:href="#DejaVuSans-63" transform="translate(424.951172 0)"/>
       <use xlink:href="#DejaVuSans-6f" transform="translate(479.931641 0)"/>
       <use xlink:href="#DejaVuSans-75" transform="translate(541.113281 0)"/>
       <use xlink:href="#DejaVuSans-74" transform="translate(604.492188 0)"/>
       <use xlink:href="#DejaVuSans-5f" transform="translate(643.701172 0)"/>
       <use xlink:href="#DejaVuSans-63" transform="translate(693.701172 0)"/>
       <use xlink:href="#DejaVuSans-75" transform="translate(748.681641 0)"/>
       <use xlink:href="#DejaVuSans-6d" transform="translate(812.060547 0)"/>
       <use xlink:href="#DejaVuSans-75" transform="translate(909.472656 0)"/>
       <use xlink:href="#DejaVuSans-6c" transform="translate(972.851562 0)"/>
       <use xlink:href="#DejaVuSans-61" transform="translate(1000.634766 0)"/>
       <use xlink:href="#DejaVuSans-74" transform="translate(1061.914062 0)"/>
       <use xlink:href="#DejaVuSans-69" transform="translate(1101.123047 0)"/>
       <use xlink:href="#DejaVuSans-76" transform="translate(1128.90625 0)"/>
       <use xlink:href="#DejaVuSans-65" transform="translate(1188.085938 0)"/>
      </g>
     </g>
    </g>
    <g id="text_21">
     <!-- groups -->
     <g transform="translate(14.798438 177.944219) rotate(-90) scale(0.1 -0.1)">
      <use xlink:href="#DejaVuSans-67"/>
      <use xlink:href="#DejaVuSans-72" transform="translate(63.476562 0)"/>
      <use xlink:href="#DejaVuSans-6f" transform="translate(102.339844 0)"/>
      <use xlink:href="#DejaVuSans-75" transform="translate(163.521484 0)"/>
      <use xlink:href="#DejaVuSans-70" transform="translate(226.900391 0)"/>
      <use xlink:href="#DejaVuSans-73" transform="translate(290.376953 0)"/>
     </g>
    </g>
   </g>
   <g id="line2d_20">
    <path d="M 265.360179 16.055741 
L 265.360179 16.4172 
M 265.360179 16.236471 
L 268.236533 16.236471 
M 268.236533 16.055741 
L 268.236533 16.4172 
" clip-path="url(#p9da4249177)" style="fill: none; stroke: #424242; stroke-width: 2.25; stroke-linecap: square"/>
   </g>
   <g id="line2d_21">
    <path d="M 271.376382 34.128682 
L 271.376382 34.490141 
M 271.376382 34.309412 
L 273.720179 34.309412 
M 273.720179 34.128682 
L 273.720179 34.490141 
" clip-path="url(#p9da4249177)" style="fill: none; stroke: #424242; stroke-width: 2.25; stroke-linecap: square"/>
   </g>
   <g id="line2d_22">
    <path d="M 270.472058 52.201624 
L 270.472058 52.563082 
M 270.472058 52.382353 
L 272.825133 52.382353 
M 272.825133 52.201624 
L 272.825133 52.563082 
" clip-path="url(#p9da4249177)" style="fill: none; stroke: #424242; stroke-width: 2.25; stroke-linecap: square"/>
   </g>
   <g id="line2d_23">
    <path d="M 271.029185 70.274565 
L 271.029185 70.636024 
M 271.029185 70.455294 
L 272.419518 70.455294 
M 272.419518 70.274565 
L 272.419518 70.636024 
" clip-path="url(#p9da4249177)" style="fill: none; stroke: #424242; stroke-width: 2.25; stroke-linecap: square"/>
   </g>
   <g id="line2d_24">
    <path d="M 269.829317 88.347506 
L 269.829317 88.708965 
M 269.829317 88.528235 
L 271.09132 88.528235 
M 271.09132 88.347506 
L 271.09132 88.708965 
" clip-path="url(#p9da4249177)" style="fill: none; stroke: #424242; stroke-width: 2.25; stroke-linecap: square"/>
   </g>
   <g id="line2d_25">
    <path d="M 258.291231 106.420447 
L 258.291231 106.781906 
M 258.291231 106.601176 
L 260.708312 106.601176 
M 260.708312 106.420447 
L 260.708312 106.781906 
" clip-path="url(#p9da4249177)" style="fill: none; stroke: #424242; stroke-width: 2.25; stroke-linecap: square"/>
   </g>
   <g id="line2d_26">
    <path d="M 253.505407 214.858094 
L 253.505407 215.219553 
M 253.505407 215.038824 
L 256.628403 215.038824 
M 256.628403 214.858094 
L 256.628403 215.219553 
" clip-path="url(#p9da4249177)" style="fill: none; stroke: #424242; stroke-width: 2.25; stroke-linecap: square"/>
   </g>
   <g id="line2d_27">
    <path d="M 258.358419 124.493388 
L 258.358419 124.854847 
M 258.358419 124.674118 
L 260.672005 124.674118 
M 260.672005 124.493388 
L 260.672005 124.854847 
" clip-path="url(#p9da4249177)" style="fill: none; stroke: #424242; stroke-width: 2.25; stroke-linecap: square"/>
   </g>
   <g id="line2d_28">
    <path d="M 254.228085 232.931035 
L 254.228085 233.292494 
M 254.228085 233.111765 
L 257.802013 233.111765 
M 257.802013 232.931035 
L 257.802013 233.292494 
" clip-path="url(#p9da4249177)" style="fill: none; stroke: #424242; stroke-width: 2.25; stroke-linecap: square"/>
   </g>
   <g id="line2d_29">
    <path d="M 255.909441 142.566329 
L 255.909441 142.927788 
M 255.909441 142.747059 
L 259.882647 142.747059 
M 259.882647 142.566329 
L 259.882647 142.927788 
" clip-path="url(#p9da4249177)" style="fill: none; stroke: #424242; stroke-width: 2.25; stroke-linecap: square"/>
   </g>
   <g id="line2d_30">
    <path d="M 264.437256 251.003976 
L 264.437256 251.365435 
M 264.437256 251.184706 
L 267.75096 251.184706 
M 267.75096 251.003976 
L 267.75096 251.365435 
" clip-path="url(#p9da4249177)" style="fill: none; stroke: #424242; stroke-width: 2.25; stroke-linecap: square"/>
   </g>
   <g id="line2d_31">
    <path d="M 260.626419 160.639271 
L 260.626419 161.000729 
M 260.626419 160.82 
L 264.016108 160.82 
M 264.016108 160.639271 
L 264.016108 161.000729 
" clip-path="url(#p9da4249177)" style="fill: none; stroke: #424242; stroke-width: 2.25; stroke-linecap: square"/>
   </g>
   <g id="line2d_32">
    <path d="M 262.281226 269.076918 
L 262.281226 269.438376 
M 262.281226 269.257647 
L 265.87935 269.257647 
M 265.87935 269.076918 
L 265.87935 269.438376 
" clip-path="url(#p9da4249177)" style="fill: none; stroke: #424242; stroke-width: 2.25; stroke-linecap: square"/>
   </g>
   <g id="line2d_33">
    <path d="M 262.351863 178.712212 
L 262.351863 179.073671 
M 262.351863 178.892941 
L 266.551737 178.892941 
M 266.551737 178.712212 
L 266.551737 179.073671 
" clip-path="url(#p9da4249177)" style="fill: none; stroke: #424242; stroke-width: 2.25; stroke-linecap: square"/>
   </g>
   <g id="line2d_34">
    <path d="M 261.998625 287.149859 
L 261.998625 287.511318 
M 261.998625 287.330588 
L 266.268709 287.330588 
M 266.268709 287.149859 
L 266.268709 287.511318 
" clip-path="url(#p9da4249177)" style="fill: none; stroke: #424242; stroke-width: 2.25; stroke-linecap: square"/>
   </g>
   <g id="line2d_35">
    <path d="M 262.128135 196.785153 
L 262.128135 197.146612 
M 262.128135 196.965882 
L 264.686651 196.965882 
M 264.686651 196.785153 
L 264.686651 197.146612 
" clip-path="url(#p9da4249177)" style="fill: none; stroke: #424242; stroke-width: 2.25; stroke-linecap: square"/>
   </g>
   <g id="line2d_36">
    <path d="M 263.758639 305.2228 
L 263.758639 305.584259 
M 263.758639 305.403529 
L 266.972163 305.403529 
M 266.972163 305.2228 
L 266.972163 305.584259 
" clip-path="url(#p9da4249177)" style="fill: none; stroke: #424242; stroke-width: 2.25; stroke-linecap: square"/>
   </g>
   <g id="patch_27">
    <path d="M 193.320313 314.44 
L 193.320313 7.2 
" style="fill: none; stroke: #000000; stroke-width: 0.8; stroke-linejoin: miter; stroke-linecap: square"/>
   </g>
   <g id="patch_28">
    <path d="M 193.320313 314.44 
L 277.740173 314.44 
" style="fill: none; stroke: #000000; stroke-width: 0.8; stroke-linejoin: miter; stroke-linecap: square"/>
   </g>
  </g>
  <g id="legend_1">
   <g id="text_22">
    <!-- model -->
    <g transform="translate(331.07116 127.384062) scale(0.1 -0.1)">
     <use xlink:href="#DejaVuSans-6d"/>
     <use xlink:href="#DejaVuSans-6f" transform="translate(97.412109 0)"/>
     <use xlink:href="#DejaVuSans-64" transform="translate(158.59375 0)"/>
     <use xlink:href="#DejaVuSans-65" transform="translate(222.070312 0)"/>
     <use xlink:href="#DejaVuSans-6c" transform="translate(283.59375 0)"/>
    </g>
   </g>
   <g id="patch_29">
    <path d="M 284.02741 142.062187 
L 304.02741 142.062187 
L 304.02741 135.062187 
L 284.02741 135.062187 
z
" style="fill: #3274a1"/>
   </g>
   <g id="text_23">
    <!-- HUMAN -->
    <g transform="translate(312.02741 142.062187) scale(0.1 -0.1)">
     <defs>
      <path id="DejaVuSans-48" d="M 628 4666 
L 1259 4666 
L 1259 2753 
L 3553 2753 
L 3553 4666 
L 4184 4666 
L 4184 0 
L 3553 0 
L 3553 2222 
L 1259 2222 
L 1259 0 
L 628 0 
L 628 4666 
z
" transform="scale(0.015625)"/>
      <path id="DejaVuSans-55" d="M 556 4666 
L 1191 4666 
L 1191 1831 
Q 1191 1081 1462 751 
Q 1734 422 2344 422 
Q 2950 422 3222 751 
Q 3494 1081 3494 1831 
L 3494 4666 
L 4128 4666 
L 4128 1753 
Q 4128 841 3676 375 
Q 3225 -91 2344 -91 
Q 1459 -91 1007 375 
Q 556 841 556 1753 
L 556 4666 
z
" transform="scale(0.015625)"/>
      <path id="DejaVuSans-4d" d="M 628 4666 
L 1569 4666 
L 2759 1491 
L 3956 4666 
L 4897 4666 
L 4897 0 
L 4281 0 
L 4281 4097 
L 3078 897 
L 2444 897 
L 1241 4097 
L 1241 0 
L 628 0 
L 628 4666 
z
" transform="scale(0.015625)"/>
      <path id="DejaVuSans-41" d="M 2188 4044 
L 1331 1722 
L 3047 1722 
L 2188 4044 
z
M 1831 4666 
L 2547 4666 
L 4325 0 
L 3669 0 
L 3244 1197 
L 1141 1197 
L 716 0 
L 50 0 
L 1831 4666 
z
" transform="scale(0.015625)"/>
      <path id="DejaVuSans-4e" d="M 628 4666 
L 1478 4666 
L 3547 763 
L 3547 4666 
L 4159 4666 
L 4159 0 
L 3309 0 
L 1241 3903 
L 1241 0 
L 628 0 
L 628 4666 
z
" transform="scale(0.015625)"/>
     </defs>
     <use xlink:href="#DejaVuSans-48"/>
     <use xlink:href="#DejaVuSans-55" transform="translate(75.195312 0)"/>
     <use xlink:href="#DejaVuSans-4d" transform="translate(148.388672 0)"/>
     <use xlink:href="#DejaVuSans-41" transform="translate(234.667969 0)"/>
     <use xlink:href="#DejaVuSans-4e" transform="translate(303.076172 0)"/>
    </g>
   </g>
   <g id="patch_30">
    <path d="M 284.02741 156.740313 
L 304.02741 156.740313 
L 304.02741 149.740313 
L 284.02741 149.740313 
z
" style="fill: #e1812c"/>
   </g>
   <g id="text_24">
    <!-- gemma3:12b -->
    <g transform="translate(312.02741 156.740313) scale(0.1 -0.1)">
     <use xlink:href="#DejaVuSans-67"/>
     <use xlink:href="#DejaVuSans-65" transform="translate(63.476562 0)"/>
     <use xlink:href="#DejaVuSans-6d" transform="translate(125 0)"/>
     <use xlink:href="#DejaVuSans-6d" transform="translate(222.412109 0)"/>
     <use xlink:href="#DejaVuSans-61" transform="translate(319.824219 0)"/>
     <use xlink:href="#DejaVuSans-33" transform="translate(381.103516 0)"/>
     <use xlink:href="#DejaVuSans-3a" transform="translate(444.726562 0)"/>
     <use xlink:href="#DejaVuSans-31" transform="translate(478.417969 0)"/>
     <use xlink:href="#DejaVuSans-32" transform="translate(542.041016 0)"/>
     <use xlink:href="#DejaVuSans-62" transform="translate(605.664062 0)"/>
    </g>
   </g>
   <g id="patch_31">
    <path d="M 284.02741 171.418437 
L 304.02741 171.418437 
L 304.02741 164.418437 
L 284.02741 164.418437 
z
" style="fill: #3a923a"/>
   </g>
   <g id="text_25">
    <!-- gemma3:12b-it-qat -->
    <g transform="translate(312.02741 171.418437) scale(0.1 -0.1)">
     <use xlink:href="#DejaVuSans-67"/>
     <use xlink:href="#DejaVuSans-65" transform="translate(63.476562 0)"/>
     <use xlink:href="#DejaVuSans-6d" transform="translate(125 0)"/>
     <use xlink:href="#DejaVuSans-6d" transform="translate(222.412109 0)"/>
     <use xlink:href="#DejaVuSans-61" transform="translate(319.824219 0)"/>
     <use xlink:href="#DejaVuSans-33" transform="translate(381.103516 0)"/>
     <use xlink:href="#DejaVuSans-3a" transform="translate(444.726562 0)"/>
     <use xlink:href="#DejaVuSans-31" transform="translate(478.417969 0)"/>
     <use xlink:href="#DejaVuSans-32" transform="translate(542.041016 0)"/>
     <use xlink:href="#DejaVuSans-62" transform="translate(605.664062 0)"/>
     <use xlink:href="#DejaVuSans-2d" transform="translate(669.140625 0)"/>
     <use xlink:href="#DejaVuSans-69" transform="translate(705.224609 0)"/>
     <use xlink:href="#DejaVuSans-74" transform="translate(733.007812 0)"/>
     <use xlink:href="#DejaVuSans-2d" transform="translate(772.216797 0)"/>
     <use xlink:href="#DejaVuSans-71" transform="translate(808.300781 0)"/>
     <use xlink:href="#DejaVuSans-61" transform="translate(871.777344 0)"/>
     <use xlink:href="#DejaVuSans-74" transform="translate(933.056641 0)"/>
    </g>
   </g>
   <g id="patch_32">
    <path d="M 284.02741 186.096563 
L 304.02741 186.096563 
L 304.02741 179.096563 
L 284.02741 179.096563 
z
" style="fill: #c03d3e"/>
   </g>
   <g id="text_26">
    <!-- gemma3:27b -->
    <g transform="translate(312.02741 186.096563) scale(0.1 -0.1)">
     <use xlink:href="#DejaVuSans-67"/>
     <use xlink:href="#DejaVuSans-65" transform="translate(63.476562 0)"/>
     <use xlink:href="#DejaVuSans-6d" transform="translate(125 0)"/>
     <use xlink:href="#DejaVuSans-6d" transform="translate(222.412109 0)"/>
     <use xlink:href="#DejaVuSans-61" transform="translate(319.824219 0)"/>
     <use xlink:href="#DejaVuSans-33" transform="translate(381.103516 0)"/>
     <use xlink:href="#DejaVuSans-3a" transform="translate(444.726562 0)"/>
     <use xlink:href="#DejaVuSans-32" transform="translate(478.417969 0)"/>
     <use xlink:href="#DejaVuSans-37" transform="translate(542.041016 0)"/>
     <use xlink:href="#DejaVuSans-62" transform="translate(605.664062 0)"/>
    </g>
   </g>
   <g id="patch_33">
    <path d="M 284.02741 200.774687 
L 304.02741 200.774687 
L 304.02741 193.774687 
L 284.02741 193.774687 
z
" style="fill: #9372b2"/>
   </g>
   <g id="text_27">
    <!-- gemma3:27b-it-qat -->
    <g transform="translate(312.02741 200.774687) scale(0.1 -0.1)">
     <use xlink:href="#DejaVuSans-67"/>
     <use xlink:href="#DejaVuSans-65" transform="translate(63.476562 0)"/>
     <use xlink:href="#DejaVuSans-6d" transform="translate(125 0)"/>
     <use xlink:href="#DejaVuSans-6d" transform="translate(222.412109 0)"/>
     <use xlink:href="#DejaVuSans-61" transform="translate(319.824219 0)"/>
     <use xlink:href="#DejaVuSans-33" transform="translate(381.103516 0)"/>
     <use xlink:href="#DejaVuSans-3a" transform="translate(444.726562 0)"/>
     <use xlink:href="#DejaVuSans-32" transform="translate(478.417969 0)"/>
     <use xlink:href="#DejaVuSans-37" transform="translate(542.041016 0)"/>
     <use xlink:href="#DejaVuSans-62" transform="translate(605.664062 0)"/>
     <use xlink:href="#DejaVuSans-2d" transform="translate(669.140625 0)"/>
     <use xlink:href="#DejaVuSans-69" transform="translate(705.224609 0)"/>
     <use xlink:href="#DejaVuSans-74" transform="translate(733.007812 0)"/>
     <use xlink:href="#DejaVuSans-2d" transform="translate(772.216797 0)"/>
     <use xlink:href="#DejaVuSans-71" transform="translate(808.300781 0)"/>
     <use xlink:href="#DejaVuSans-61" transform="translate(871.777344 0)"/>
     <use xlink:href="#DejaVuSans-74" transform="translate(933.056641 0)"/>
    </g>
   </g>
   <g id="patch_34">
    <path d="M 284.02741 215.452812 
L 304.02741 215.452812 
L 304.02741 208.452812 
L 284.02741 208.452812 
z
" style="fill: #845b53"/>
   </g>
   <g id="text_28">
    <!-- llama3.3:70b -->
    <g transform="translate(312.02741 215.452812) scale(0.1 -0.1)">
     <use xlink:href="#DejaVuSans-6c"/>
     <use xlink:href="#DejaVuSans-6c" transform="translate(27.783203 0)"/>
     <use xlink:href="#DejaVuSans-61" transform="translate(55.566406 0)"/>
     <use xlink:href="#DejaVuSans-6d" transform="translate(116.845703 0)"/>
     <use xlink:href="#DejaVuSans-61" transform="translate(214.257812 0)"/>
     <use xlink:href="#DejaVuSans-33" transform="translate(275.537109 0)"/>
     <use xlink:href="#DejaVuSans-2e" transform="translate(339.160156 0)"/>
     <use xlink:href="#DejaVuSans-33" transform="translate(370.947266 0)"/>
     <use xlink:href="#DejaVuSans-3a" transform="translate(434.570312 0)"/>
     <use xlink:href="#DejaVuSans-37" transform="translate(468.261719 0)"/>
     <use xlink:href="#DejaVuSans-30" transform="translate(531.884766 0)"/>
     <use xlink:href="#DejaVuSans-62" transform="translate(595.507812 0)"/>
    </g>
   </g>
   <g id="patch_35">
    <path d="M 284.02741 230.130937 
L 304.02741 230.130937 
L 304.02741 223.130937 
L 284.02741 223.130937 
z
" style="fill: #d684bd"/>
   </g>
   <g id="text_29">
    <!-- llama4:scout -->
    <g transform="translate(312.02741 230.130937) scale(0.1 -0.1)">
     <use xlink:href="#DejaVuSans-6c"/>
     <use xlink:href="#DejaVuSans-6c" transform="translate(27.783203 0)"/>
     <use xlink:href="#DejaVuSans-61" transform="translate(55.566406 0)"/>
     <use xlink:href="#DejaVuSans-6d" transform="translate(116.845703 0)"/>
     <use xlink:href="#DejaVuSans-61" transform="translate(214.257812 0)"/>
     <use xlink:href="#DejaVuSans-34" transform="translate(275.537109 0)"/>
     <use xlink:href="#DejaVuSans-3a" transform="translate(339.160156 0)"/>
     <use xlink:href="#DejaVuSans-73" transform="translate(372.851562 0)"/>
     <use xlink:href="#DejaVuSans-63" transform="translate(424.951172 0)"/>
     <use xlink:href="#DejaVuSans-6f" transform="translate(479.931641 0)"/>
     <use xlink:href="#DejaVuSans-75" transform="translate(541.113281 0)"/>
     <use xlink:href="#DejaVuSans-74" transform="translate(604.492188 0)"/>
    </g>
   </g>
  </g>
 </g>
 <defs>
  <clipPath id="p9da4249177">
   <rect x="193.320313" y="7.2" width="84.41986" height="307.24"/>
  </clipPath>
 </defs>
</svg>
